<?xml version="1.0" encoding="UTF-8"?>
<!DOCTYPE svg PUBLIC "-//W3C//DTD SVG 1.1//EN" "http://www.w3.org/Graphics/SVG/1.1/DTD/svg11.dtd">
<!-- Creator: CorelDRAW 2020 (64-Bit) -->
<svg xmlns="http://www.w3.org/2000/svg" xml:space="preserve" width="999px" height="429px" version="1.1" style="shape-rendering:geometricPrecision; text-rendering:geometricPrecision; image-rendering:optimizeQuality; fill-rule:evenodd; clip-rule:evenodd"
viewBox="0 0 998.51 428.66"
 xmlns:xlink="http://www.w3.org/1999/xlink"
 xmlns:xodm="http://www.corel.com/coreldraw/odm/2003">
 <defs>
  <style type="text/css">
   <![CDATA[
    .str2 {stroke:#373435;stroke-width:2.44;stroke-miterlimit:22.9256}
    .str3 {stroke:#2B3B4E;stroke-width:2.44;stroke-miterlimit:22.9256}
    .str0 {stroke:#373435;stroke-width:0.69;stroke-miterlimit:22.9256}
    .str1 {stroke:#2B3B4E;stroke-width:0.69;stroke-miterlimit:22.9256}
    .fil2 {fill:none}
    .fil0 {fill:#373435}
    .fil1 {fill:#2B3B4E}
    .fil3 {fill:#373435;fill-rule:nonzero}
   ]]>
  </style>
 </defs>
 <g id="Capa_x0020_2">
  <metadata id="CorelCorpID_0Corel-Layer"/>
  <g id="_2578270713296">
   <g>
    <g>
     <circle class="fil0 str0" cx="332.64" cy="364.17" r="1.31"/>
     <circle class="fil0 str0" cx="332.64" cy="332.74" r="1.31"/>
     <circle class="fil0 str0" cx="461.9" cy="364.28" r="1.31"/>
     <circle class="fil0 str0" cx="461.9" cy="332.8" r="1.31"/>
     <circle class="fil0 str0" cx="592.41" cy="364.22" r="1.31"/>
     <circle class="fil0 str0" cx="721.67" cy="364" r="1.31"/>
     <circle class="fil0 str0" cx="721.67" cy="332.67" r="1.31"/>
     <circle class="fil0 str0" cx="852.18" cy="332.76" r="1.31"/>
     <circle class="fil0 str0" cx="852.18" cy="364.27" r="1.31"/>
     <circle class="fil0 str0" cx="981.66" cy="364.14" r="1.31"/>
     <circle class="fil0 str0" cx="39.99" cy="284.88" r="1.31"/>
     <circle class="fil0 str0" cx="169.35" cy="284.78" r="1.31"/>
     <circle class="fil0 str0" cx="304.15" cy="284.88" r="1.31"/>
     <circle class="fil0 str0" cx="563.77" cy="284.69" r="1.31"/>
     <circle class="fil0 str0" cx="692.91" cy="284.53" r="1.31"/>
     <circle class="fil0 str0" cx="954.29" cy="284.88" r="1.31"/>
     <circle class="fil0 str0" cx="858.34" cy="252.63" r="1.31"/>
     <circle class="fil0 str0" cx="858.29" cy="239.32" r="1.31"/>
     <circle class="fil1 str1" cx="858.2" cy="226.06" r="1.31"/>
     <circle class="fil0 str0" cx="823.25" cy="284.59" r="1.31"/>
     <circle class="fil0 str0" cx="981.66" cy="332.76" r="1.31"/>
     <circle class="fil0 str0" cx="592.41" cy="332.7" r="1.31"/>
     <g>
      <line class="fil2 str2" x1="68.92" y1="333.23" x2="68.92" y2= "364.66" />
      <circle class="fil0 str0" cx="68.92" cy="364.66" r="1.31"/>
      <circle class="fil0 str0" cx="68.92" cy="333.23" r="1.31"/>
     </g>
     <line class="fil2 str2" x1="332.64" y1="332.74" x2="332.64" y2= "364.17" />
     <line class="fil2 str2" x1="592.41" y1="332.7" x2="592.41" y2= "364.22" />
     <line class="fil2 str2" x1="852.18" y1="332.76" x2="852.18" y2= "364.27" />
     <polyline class="fil2 str2" points="39.99,284.88 39.99,179.32 68.78,179.32 "/>
     <polyline class="fil2 str2" points="304.15,284.88 304.15,179.51 331.98,179.51 "/>
     <polyline class="fil2 str2" points="692.93,284.69 692.93,179.41 664.78,179.41 "/>
     <polyline class="fil2 str2" points="954.29,284.88 954.29,178.98 925.6,178.98 "/>
     <circle class="fil0 str0" cx="925.6" cy="178.98" r="1.31"/>
     <circle class="fil0 str0" cx="881.92" cy="150.28" r="1.31"/>
     <circle class="fil1 str1" cx="895.37" cy="150.28" r="1.31"/>
     <circle class="fil0 str0" cx="664.78" cy="179.42" r="1.31"/>
     <circle class="fil1 str1" cx="635.19" cy="150.01" r="1.31"/>
     <circle class="fil0 str0" cx="621.74" cy="150.01" r="1.31"/>
     <circle class="fil0 str0" cx="331.98" cy="179.51" r="1.31"/>
     <circle class="fil1 str1" cx="361.88" cy="149.83" r="1.31"/>
     <circle class="fil0 str0" cx="375.33" cy="149.83" r="1.31"/>
     <circle class="fil0 str0" cx="68.78" cy="179.32" r="1.31"/>
     <circle class="fil0 str0" cx="134.64" cy="239.58" r="1.31"/>
     <circle class="fil1 str1" cx="134.64" cy="225.94" r="1.31"/>
     <circle class="fil0 str0" cx="111.34" cy="150.18" r="1.31"/>
     <circle class="fil1 str1" cx="97.89" cy="150.18" r="1.31"/>
     <polyline class="fil2 str2" points="169.35,284.78 169.35,252.93 134.55,252.75 "/>
     <polyline class="fil2 str2" points="432.66,284.88 432.66,253.14 397.91,252.95 "/>
     <polyline class="fil2 str2" points="563.77,284.69 563.77,252.91 598.68,252.72 "/>
     <polyline class="fil2 str2" points="823.25,284.59 823.25,252.81 858.34,252.63 "/>
     <circle class="fil0 str0" cx="432.66" cy="284.88" r="1.31"/>
     <circle class="fil0 str0" cx="134.55" cy="252.75" r="1.31"/>
     <circle class="fil0 str0" cx="397.91" cy="252.95" r="1.31"/>
     <circle class="fil0 str0" cx="398.12" cy="239.41" r="1.31"/>
     <circle class="fil1 str1" cx="398.12" cy="225.96" r="1.31"/>
     <circle class="fil0 str0" cx="598.68" cy="252.72" r="1.31"/>
     <circle class="fil0 str0" cx="598.63" cy="239.56" r="1.31"/>
     <circle class="fil1 str1" cx="598.63" cy="225.91" r="1.31"/>
     <g>
      <circle class="fil0 str0" cx="198.61" cy="364.47" r="1.31"/>
      <circle class="fil0 str0" cx="198.61" cy="333.13" r="1.31"/>
      <line class="fil2 str2" x1="198.61" y1="333.13" x2="198.61" y2= "364.47" />
     </g>
     <line class="fil2 str2" x1="461.9" y1="332.8" x2="461.9" y2= "364.28" />
     <line class="fil2 str2" x1="721.67" y1="332.67" x2="721.67" y2= "364" />
     <line class="fil2 str2" x1="981.66" y1="332.76" x2="981.66" y2= "364.14" />
     <path class="fil3" d="M137.44 263.05l0 -5.1c0,-1.93 0.91,-2.89 2.73,-2.89 0.41,0 0.81,0.03 1.2,0.1l-0.12 1.18c-0.23,-0.03 -0.44,-0.05 -0.61,-0.06 -0.18,-0.01 -0.34,-0.01 -0.51,-0.01 -0.93,0 -1.4,0.54 -1.4,1.63l0 5.15 -1.29 0zm-1.72 -3.31l0 -1.09 5.26 0 0 1.09 -5.26 0z"/>
     <path id="1" class="fil3" d="M145.95 263.1l-0.1 -1.65 -0.08 -0.62 0 -1.23c0,-0.33 -0.12,-0.57 -0.38,-0.72 -0.26,-0.15 -0.64,-0.23 -1.15,-0.25l-1.38 -0.03 0.1 -1.18 1.18 0.02c0.97,0.01 1.7,0.21 2.17,0.6 0.47,0.38 0.71,0.94 0.71,1.67l0 2.17 0.84 0.11 0 1.06 -1.91 0.05zm-1.92 0.05c-0.59,0 -1.05,-0.14 -1.37,-0.43 -0.32,-0.29 -0.49,-0.69 -0.49,-1.22 0,-0.61 0.22,-1.08 0.66,-1.4 0.43,-0.33 1.04,-0.49 1.84,-0.49 0.31,0 0.59,0.02 0.83,0.05 0.24,0.04 0.47,0.09 0.68,0.16l-0.23 0.97c-0.23,-0.05 -0.44,-0.08 -0.63,-0.09 -0.2,-0.01 -0.41,-0.01 -0.62,-0.01 -0.83,0 -1.24,0.23 -1.24,0.71 0,0.21 0.07,0.38 0.22,0.5 0.14,0.11 0.36,0.17 0.63,0.17 0.32,0 0.59,-0.06 0.81,-0.17 0.22,-0.12 0.38,-0.27 0.49,-0.45 0.11,-0.18 0.16,-0.37 0.16,-0.56l0 -0.45 0.25 1.43 -0.44 0 0.18 -0.17c0,0.32 -0.08,0.59 -0.22,0.81 -0.14,0.21 -0.34,0.37 -0.6,0.48 -0.25,0.11 -0.56,0.16 -0.91,0.16z"/>
     <path id="2" class="fil3" d="M151.18 263.15c-1.73,0 -2.59,-1.26 -2.59,-3.78 0,-2.6 0.86,-3.89 2.59,-3.89 1.73,0 2.6,1.29 2.6,3.89 0,2.52 -0.87,3.78 -2.6,3.78zm0 -2.9c-0.22,0 -0.4,-0.08 -0.54,-0.24 -0.13,-0.16 -0.2,-0.37 -0.2,-0.64 0,-0.27 0.06,-0.48 0.2,-0.65 0.14,-0.16 0.32,-0.24 0.54,-0.24 0.22,0 0.4,0.08 0.53,0.24 0.14,0.17 0.21,0.38 0.2,0.65 0,0.27 -0.07,0.48 -0.2,0.65 -0.14,0.16 -0.31,0.24 -0.53,0.23zm0 1.76c0.86,0 1.29,-0.88 1.29,-2.64 0,-1.84 -0.43,-2.76 -1.29,-2.75 -0.87,-0.01 -1.3,0.91 -1.3,2.75 0,1.76 0.43,2.64 1.3,2.64z"/>
     <polygon id="3" class="fil3" points="154.83,264.04 158.96,254.58 160.27,254.58 156.14,264.04 "/>
     <path id="4" class="fil3" d="M163.79 263.15c-1.73,0 -2.59,-1.26 -2.59,-3.78 0,-2.6 0.86,-3.89 2.59,-3.89 1.74,0 2.6,1.29 2.6,3.89 0,2.52 -0.86,3.78 -2.6,3.78zm0 -2.9c-0.22,0 -0.4,-0.08 -0.53,-0.24 -0.14,-0.16 -0.21,-0.37 -0.21,-0.64 0,-0.27 0.07,-0.48 0.2,-0.65 0.14,-0.16 0.32,-0.24 0.54,-0.24 0.22,0 0.4,0.08 0.54,0.24 0.13,0.17 0.2,0.38 0.2,0.65 0,0.27 -0.07,0.48 -0.21,0.65 -0.13,0.16 -0.31,0.24 -0.53,0.23zm0 1.76c0.86,0 1.29,-0.88 1.29,-2.64 0,-1.84 -0.43,-2.76 -1.29,-2.75 -0.86,-0.01 -1.3,0.91 -1.29,2.75 -0.01,1.76 0.43,2.64 1.29,2.64z"/>
     <path class="fil3" d="M400.91 263.75l0 -5.1c0,-1.92 0.9,-2.89 2.72,-2.89 0.42,0 0.82,0.04 1.21,0.11l-0.12 1.18c-0.24,-0.03 -0.44,-0.05 -0.61,-0.06 -0.18,-0.01 -0.35,-0.02 -0.51,-0.02 -0.93,0 -1.4,0.54 -1.4,1.63l0 5.15 -1.29 0zm-1.72 -3.31l0 -1.09 5.25 0 0 1.09 -5.25 0z"/>
     <path id="1" class="fil3" d="M409.41 263.8l-0.1 -1.65 -0.07 -0.62 0 -1.23c0,-0.32 -0.13,-0.56 -0.38,-0.71 -0.26,-0.16 -0.64,-0.24 -1.15,-0.25l-1.39 -0.04 0.11 -1.17 1.18 0.01c0.97,0.02 1.69,0.22 2.17,0.6 0.47,0.38 0.71,0.94 0.71,1.68l0 2.16 0.84 0.12 0 1.05 -1.92 0.05zm-1.91 0.06c-0.59,0 -1.05,-0.15 -1.37,-0.44 -0.33,-0.28 -0.49,-0.69 -0.49,-1.21 0,-0.61 0.22,-1.08 0.65,-1.41 0.44,-0.32 1.05,-0.49 1.85,-0.49 0.31,0 0.59,0.02 0.83,0.06 0.23,0.03 0.46,0.09 0.68,0.16l-0.23 0.97c-0.23,-0.06 -0.44,-0.09 -0.64,-0.1 -0.19,0 -0.4,-0.01 -0.61,-0.01 -0.83,0 -1.24,0.24 -1.24,0.71 0,0.22 0.07,0.38 0.22,0.5 0.14,0.12 0.35,0.18 0.63,0.18 0.32,0 0.59,-0.06 0.81,-0.18 0.22,-0.12 0.38,-0.26 0.49,-0.44 0.11,-0.19 0.16,-0.37 0.16,-0.56l0 -0.46 0.25 1.43 -0.44 0 0.18 -0.16c-0.01,0.32 -0.08,0.59 -0.22,0.8 -0.15,0.22 -0.35,0.38 -0.6,0.48 -0.26,0.11 -0.56,0.17 -0.91,0.17z"/>
     <path id="2" class="fil3" d="M414.65 263.86c-1.73,0 -2.6,-1.27 -2.6,-3.79 0,-2.59 0.87,-3.89 2.6,-3.89 1.73,0 2.59,1.3 2.59,3.89 0,2.52 -0.86,3.79 -2.59,3.79zm-0.01 -2.9c-0.22,0 -0.39,-0.08 -0.53,-0.24 -0.14,-0.16 -0.2,-0.38 -0.2,-0.65 -0.01,-0.26 0.06,-0.48 0.2,-0.64 0.13,-0.16 0.31,-0.25 0.53,-0.25 0.22,0 0.4,0.08 0.54,0.25 0.14,0.16 0.2,0.38 0.2,0.64 0,0.27 -0.07,0.49 -0.2,0.65 -0.14,0.16 -0.32,0.24 -0.54,0.24zm0.01 1.76c0.86,0 1.29,-0.88 1.29,-2.65 0,-1.83 -0.43,-2.75 -1.29,-2.75 -0.87,0 -1.3,0.92 -1.3,2.75 0,1.77 0.43,2.65 1.3,2.65z"/>
     <polygon id="3" class="fil3" points="418.3,264.75 422.43,255.29 423.74,255.29 419.61,264.75 "/>
     <path id="4" class="fil3" d="M427.26 263.86c-1.73,0 -2.59,-1.27 -2.59,-3.79 0,-2.59 0.86,-3.89 2.59,-3.89 1.73,0 2.6,1.3 2.6,3.89 0,2.52 -0.87,3.79 -2.6,3.79zm0 -2.9c-0.22,0 -0.4,-0.08 -0.54,-0.24 -0.13,-0.16 -0.2,-0.38 -0.2,-0.65 0,-0.26 0.06,-0.48 0.2,-0.64 0.14,-0.16 0.32,-0.25 0.54,-0.25 0.22,0 0.4,0.08 0.53,0.25 0.14,0.16 0.21,0.38 0.2,0.64 0,0.27 -0.07,0.49 -0.2,0.65 -0.14,0.16 -0.31,0.24 -0.53,0.24zm0 1.76c0.86,0 1.29,-0.88 1.29,-2.65 0,-1.83 -0.43,-2.75 -1.29,-2.75 -0.87,0 -1.3,0.92 -1.3,2.75 0,1.77 0.43,2.65 1.3,2.65z"/>
     <path class="fil3" d="M568.5 263.57l0 -5.1c0,-1.92 0.91,-2.89 2.73,-2.89 0.42,0 0.82,0.04 1.21,0.11l-0.13 1.17c-0.23,-0.02 -0.43,-0.04 -0.61,-0.05 -0.17,-0.01 -0.34,-0.02 -0.5,-0.02 -0.94,0 -1.4,0.54 -1.4,1.63l0 5.15 -1.3 0zm-1.71 -3.31l0 -1.09 5.25 0 0 1.09 -5.25 0z"/>
     <path id="1" class="fil3" d="M577.01 263.62l-0.1 -1.65 -0.07 -0.62 0 -1.23c0,-0.32 -0.13,-0.56 -0.38,-0.72 -0.26,-0.15 -0.64,-0.23 -1.15,-0.24l-1.39 -0.04 0.11 -1.17 1.18 0.01c0.97,0.02 1.69,0.22 2.17,0.6 0.47,0.38 0.71,0.94 0.71,1.68l0 2.16 0.84 0.12 0 1.05 -1.92 0.05zm-1.92 0.06c-0.58,0 -1.04,-0.15 -1.36,-0.44 -0.33,-0.28 -0.49,-0.69 -0.49,-1.21 0,-0.61 0.22,-1.08 0.65,-1.41 0.44,-0.32 1.05,-0.49 1.85,-0.49 0.31,0 0.59,0.02 0.83,0.05 0.23,0.04 0.46,0.09 0.68,0.17l-0.23 0.96c-0.23,-0.05 -0.44,-0.08 -0.64,-0.09 -0.19,-0.01 -0.4,-0.01 -0.61,-0.01 -0.83,0 -1.24,0.24 -1.24,0.71 0,0.22 0.07,0.38 0.22,0.5 0.14,0.12 0.35,0.18 0.63,0.18 0.32,0 0.59,-0.06 0.81,-0.18 0.22,-0.12 0.38,-0.27 0.49,-0.45 0.11,-0.18 0.16,-0.36 0.16,-0.55l0 -0.46 0.25 1.43 -0.45 0 0.19 -0.17c-0.01,0.33 -0.08,0.6 -0.22,0.81 -0.15,0.22 -0.35,0.38 -0.6,0.48 -0.26,0.11 -0.56,0.17 -0.92,0.17z"/>
     <path id="2" class="fil3" d="M582.25 263.68c-1.73,0 -2.6,-1.27 -2.6,-3.79 0,-2.59 0.87,-3.89 2.6,-3.89 1.73,0 2.59,1.3 2.59,3.89 0,2.52 -0.86,3.79 -2.59,3.79zm-0.01 -2.9c-0.22,0 -0.4,-0.08 -0.53,-0.24 -0.14,-0.16 -0.2,-0.38 -0.2,-0.65 -0.01,-0.27 0.06,-0.48 0.2,-0.64 0.13,-0.16 0.31,-0.25 0.53,-0.25 0.22,0 0.4,0.08 0.54,0.24 0.14,0.17 0.2,0.38 0.2,0.65 0,0.27 -0.07,0.49 -0.2,0.65 -0.14,0.16 -0.32,0.24 -0.54,0.24zm0.01 1.75c0.86,0.01 1.29,-0.87 1.29,-2.64 0,-1.83 -0.43,-2.75 -1.29,-2.75 -0.87,0 -1.3,0.92 -1.3,2.75 0,1.77 0.43,2.65 1.3,2.64z"/>
     <polygon id="3" class="fil3" points="585.89,264.57 590.03,255.11 591.34,255.11 587.21,264.57 "/>
     <path id="4" class="fil3" d="M594.86 263.68c-1.73,0 -2.59,-1.27 -2.59,-3.79 0,-2.59 0.86,-3.89 2.59,-3.89 1.73,0 2.6,1.3 2.6,3.89 0,2.52 -0.87,3.79 -2.6,3.79zm0 -2.9c-0.22,0 -0.4,-0.08 -0.54,-0.24 -0.13,-0.16 -0.2,-0.38 -0.2,-0.65 0,-0.27 0.06,-0.48 0.2,-0.64 0.14,-0.16 0.32,-0.25 0.54,-0.25 0.22,0 0.4,0.08 0.53,0.24 0.14,0.17 0.2,0.38 0.2,0.65 0,0.27 -0.07,0.49 -0.2,0.65 -0.14,0.16 -0.31,0.24 -0.53,0.24zm0 1.75c0.86,0.01 1.29,-0.87 1.29,-2.64 0,-1.83 -0.43,-2.75 -1.29,-2.75 -0.87,0 -1.3,0.92 -1.3,2.75 0,1.77 0.43,2.65 1.3,2.64z"/>
     <path class="fil3" d="M828.23 263.62l0 -5.09c0,-1.93 0.91,-2.89 2.73,-2.89 0.42,0 0.82,0.03 1.21,0.1l-0.13 1.18c-0.23,-0.03 -0.43,-0.05 -0.61,-0.06 -0.17,-0.01 -0.34,-0.01 -0.5,-0.01 -0.94,0 -1.4,0.54 -1.4,1.62l0 5.15 -1.3 0zm-1.72 -3.3l0 -1.09 5.26 0 0 1.09 -5.26 0z"/>
     <path id="1" class="fil3" d="M836.74 263.68l-0.1 -1.65 -0.07 -0.62 0 -1.23c0,-0.33 -0.13,-0.57 -0.39,-0.72 -0.25,-0.15 -0.63,-0.24 -1.14,-0.25l-1.39 -0.04 0.11 -1.17 1.17 0.02c0.98,0.01 1.7,0.21 2.17,0.59 0.48,0.39 0.71,0.95 0.71,1.68l0 2.17 0.84 0.11 0 1.05 -1.91 0.06zm-1.92 0.05c-0.59,0 -1.04,-0.14 -1.37,-0.43 -0.32,-0.29 -0.48,-0.69 -0.48,-1.22 0,-0.61 0.22,-1.08 0.65,-1.4 0.43,-0.33 1.05,-0.49 1.85,-0.49 0.31,0 0.59,0.02 0.82,0.05 0.24,0.04 0.47,0.09 0.69,0.16l-0.23 0.97c-0.23,-0.05 -0.44,-0.08 -0.64,-0.09 -0.19,-0.01 -0.4,-0.01 -0.61,-0.01 -0.83,0 -1.24,0.23 -1.24,0.7 0,0.22 0.07,0.39 0.21,0.51 0.15,0.11 0.36,0.17 0.64,0.17 0.32,0 0.59,-0.06 0.81,-0.17 0.21,-0.12 0.38,-0.27 0.48,-0.45 0.11,-0.18 0.17,-0.37 0.17,-0.56l0 -0.45 0.25 1.43 -0.45 0 0.19 -0.17c-0.01,0.32 -0.08,0.59 -0.23,0.81 -0.14,0.21 -0.34,0.37 -0.59,0.48 -0.26,0.11 -0.56,0.16 -0.92,0.16z"/>
     <path id="2" class="fil3" d="M841.98 263.73c-1.73,0 -2.6,-1.26 -2.6,-3.78 0,-2.6 0.87,-3.89 2.6,-3.89 1.73,0 2.59,1.29 2.59,3.89 0,2.52 -0.86,3.78 -2.59,3.78zm-0.01 -2.9c-0.22,0 -0.4,-0.08 -0.53,-0.24 -0.14,-0.16 -0.2,-0.37 -0.2,-0.64 -0.01,-0.27 0.06,-0.49 0.19,-0.65 0.14,-0.16 0.32,-0.24 0.54,-0.24 0.22,-0.01 0.4,0.07 0.54,0.24 0.13,0.16 0.2,0.38 0.2,0.65 0,0.27 -0.07,0.48 -0.21,0.64 -0.13,0.17 -0.31,0.25 -0.53,0.24zm0.01 1.76c0.85,0 1.28,-0.88 1.28,-2.64 0,-1.84 -0.43,-2.76 -1.28,-2.75 -0.87,-0.01 -1.31,0.91 -1.3,2.75 -0.01,1.76 0.43,2.64 1.3,2.64z"/>
     <polygon id="3" class="fil3" points="845.62,264.62 849.75,255.16 851.07,255.16 846.94,264.62 "/>
     <path id="4" class="fil3" d="M854.59 263.73c-1.73,0 -2.6,-1.26 -2.6,-3.78 0,-2.6 0.87,-3.89 2.6,-3.89 1.73,0 2.59,1.29 2.59,3.89 0,2.52 -0.86,3.78 -2.59,3.78zm-0.01 -2.9c-0.22,0 -0.39,-0.08 -0.53,-0.24 -0.14,-0.16 -0.2,-0.37 -0.2,-0.64 -0.01,-0.27 0.06,-0.49 0.2,-0.65 0.13,-0.16 0.31,-0.24 0.53,-0.24 0.22,-0.01 0.4,0.07 0.54,0.24 0.14,0.16 0.2,0.38 0.2,0.65 0,0.27 -0.07,0.48 -0.2,0.64 -0.14,0.17 -0.32,0.25 -0.54,0.24zm0.01 1.76c0.86,0 1.29,-0.88 1.29,-2.64 0,-1.84 -0.43,-2.76 -1.29,-2.75 -0.87,-0.01 -1.3,0.91 -1.3,2.75 0,1.76 0.43,2.64 1.3,2.64z"/>
     <path class="fil3" d="M39.48 176.23l0 -5.1c0,-1.93 0.91,-2.89 2.73,-2.89 0.42,0 0.82,0.03 1.21,0.1l-0.13 1.18c-0.23,-0.03 -0.43,-0.05 -0.61,-0.06 -0.17,-0.01 -0.34,-0.01 -0.5,-0.01 -0.94,0 -1.4,0.54 -1.4,1.63l0 5.15 -1.3 0zm-1.71 -3.31l0 -1.09 5.25 0 0 1.09 -5.25 0z"/>
     <path id="1" class="fil3" d="M47.99 176.28l-0.1 -1.65 -0.07 -0.62 0 -1.23c0,-0.33 -0.13,-0.57 -0.38,-0.72 -0.26,-0.15 -0.64,-0.23 -1.15,-0.25l-1.39 -0.03 0.11 -1.18 1.18 0.02c0.97,0.01 1.69,0.21 2.17,0.6 0.47,0.38 0.71,0.94 0.71,1.67l0 2.17 0.84 0.11 0 1.06 -1.92 0.05zm-1.92 0.05c-0.58,0 -1.04,-0.14 -1.36,-0.43 -0.33,-0.29 -0.49,-0.69 -0.49,-1.22 0,-0.61 0.22,-1.08 0.65,-1.4 0.44,-0.33 1.05,-0.49 1.85,-0.49 0.31,0 0.59,0.02 0.83,0.05 0.23,0.04 0.46,0.09 0.68,0.16l-0.23 0.97c-0.23,-0.05 -0.44,-0.08 -0.64,-0.09 -0.19,-0.01 -0.4,-0.01 -0.61,-0.01 -0.83,0 -1.24,0.23 -1.24,0.71 0,0.21 0.07,0.38 0.22,0.5 0.14,0.11 0.35,0.17 0.63,0.17 0.32,0 0.59,-0.06 0.81,-0.17 0.22,-0.12 0.38,-0.27 0.49,-0.45 0.11,-0.18 0.16,-0.37 0.16,-0.56l0 -0.45 0.25 1.43 -0.45 0 0.19 -0.17c-0.01,0.32 -0.08,0.59 -0.22,0.81 -0.15,0.21 -0.35,0.37 -0.6,0.48 -0.26,0.11 -0.56,0.16 -0.92,0.16z"/>
     <path id="2" class="fil3" d="M53.23 176.33c-1.73,0 -2.6,-1.26 -2.6,-3.78 0,-2.6 0.87,-3.89 2.6,-3.89 1.73,0 2.59,1.29 2.59,3.89 0,2.52 -0.86,3.78 -2.59,3.78zm-0.01 -2.9c-0.22,0 -0.4,-0.08 -0.53,-0.24 -0.14,-0.16 -0.2,-0.37 -0.2,-0.64 -0.01,-0.27 0.06,-0.48 0.2,-0.65 0.13,-0.16 0.31,-0.24 0.53,-0.24 0.22,0 0.4,0.08 0.54,0.24 0.14,0.17 0.2,0.38 0.2,0.65 0,0.27 -0.07,0.48 -0.2,0.65 -0.14,0.16 -0.32,0.24 -0.54,0.23zm0.01 1.76c0.86,0 1.29,-0.88 1.29,-2.64 0,-1.84 -0.43,-2.76 -1.29,-2.75 -0.87,-0.01 -1.3,0.91 -1.3,2.75 0,1.76 0.43,2.64 1.3,2.64z"/>
     <polygon id="3" class="fil3" points="56.87,177.22 61.01,167.76 62.32,167.76 58.19,177.22 "/>
     <path id="4" class="fil3" d="M65.84 176.33c-1.73,0 -2.59,-1.26 -2.59,-3.78 0,-2.6 0.86,-3.89 2.59,-3.89 1.73,0 2.6,1.29 2.6,3.89 0,2.52 -0.87,3.78 -2.6,3.78zm0 -2.9c-0.22,0 -0.4,-0.08 -0.54,-0.24 -0.13,-0.16 -0.2,-0.37 -0.2,-0.64 0,-0.27 0.06,-0.48 0.2,-0.65 0.14,-0.16 0.32,-0.24 0.54,-0.24 0.22,0 0.4,0.08 0.53,0.24 0.14,0.17 0.2,0.38 0.2,0.65 0,0.27 -0.07,0.48 -0.2,0.65 -0.14,0.16 -0.31,0.24 -0.53,0.23zm0 1.76c0.86,0 1.29,-0.88 1.29,-2.64 0,-1.84 -0.43,-2.76 -1.29,-2.75 -0.87,-0.01 -1.3,0.91 -1.3,2.75 0,1.76 0.43,2.64 1.3,2.64z"/>
     <path class="fil3" d="M303.32 176.18l0 -5.1c0,-1.92 0.91,-2.89 2.73,-2.89 0.41,0 0.82,0.04 1.21,0.11l-0.13 1.18c-0.23,-0.03 -0.43,-0.05 -0.61,-0.06 -0.18,-0.01 -0.34,-0.02 -0.5,-0.02 -0.94,0 -1.41,0.54 -1.41,1.63l0 5.15 -1.29 0zm-1.72 -3.3l0 -1.1 5.26 0 0 1.1 -5.26 0z"/>
     <path id="1" class="fil3" d="M311.83 176.23l-0.1 -1.65 -0.08 -0.62 0 -1.23c0,-0.32 -0.12,-0.56 -0.38,-0.71 -0.26,-0.16 -0.64,-0.24 -1.14,-0.25l-1.39 -0.04 0.1 -1.17 1.18 0.01c0.97,0.02 1.7,0.22 2.17,0.6 0.47,0.38 0.71,0.94 0.71,1.68l0 2.17 0.84 0.11 0 1.05 -1.91 0.05zm-1.92 0.06c-0.59,0 -1.04,-0.15 -1.37,-0.43 -0.32,-0.29 -0.49,-0.7 -0.49,-1.22 0,-0.61 0.22,-1.08 0.66,-1.41 0.43,-0.32 1.05,-0.49 1.84,-0.49 0.32,0 0.59,0.02 0.83,0.06 0.24,0.03 0.47,0.09 0.68,0.16l-0.23 0.97c-0.23,-0.06 -0.44,-0.09 -0.63,-0.09 -0.2,-0.01 -0.4,-0.02 -0.62,-0.02 -0.82,0 -1.24,0.24 -1.24,0.71 0,0.22 0.07,0.39 0.22,0.5 0.15,0.12 0.36,0.18 0.63,0.18 0.33,0 0.59,-0.06 0.81,-0.18 0.22,-0.11 0.38,-0.26 0.49,-0.44 0.11,-0.18 0.16,-0.37 0.16,-0.56l0 -0.45 0.26 1.42 -0.45 0 0.18 -0.16c0,0.32 -0.08,0.59 -0.22,0.8 -0.14,0.22 -0.34,0.38 -0.6,0.49 -0.25,0.1 -0.56,0.16 -0.91,0.16z"/>
     <path id="2" class="fil3" d="M317.06 176.29c-1.73,0 -2.59,-1.27 -2.59,-3.79 0,-2.59 0.86,-3.89 2.59,-3.89 1.73,0 2.6,1.3 2.6,3.89 0,2.52 -0.87,3.79 -2.6,3.79zm0 -2.9c-0.22,0 -0.4,-0.08 -0.54,-0.24 -0.13,-0.16 -0.2,-0.38 -0.2,-0.65 0,-0.26 0.06,-0.48 0.2,-0.64 0.14,-0.16 0.32,-0.25 0.54,-0.25 0.22,0 0.4,0.08 0.53,0.25 0.14,0.16 0.21,0.38 0.2,0.64 0,0.27 -0.07,0.49 -0.2,0.65 -0.13,0.17 -0.31,0.24 -0.53,0.24zm0 1.76c0.86,0 1.29,-0.88 1.29,-2.65 0,-1.83 -0.43,-2.75 -1.29,-2.75 -0.87,0 -1.3,0.92 -1.3,2.75 0,1.77 0.43,2.65 1.3,2.65z"/>
     <polygon id="3" class="fil3" points="320.71,177.18 324.84,167.72 326.16,167.72 322.02,177.18 "/>
     <path id="4" class="fil3" d="M329.68 176.29c-1.74,0 -2.6,-1.27 -2.6,-3.79 0,-2.59 0.86,-3.89 2.6,-3.89 1.73,0 2.59,1.3 2.59,3.89 0,2.52 -0.86,3.79 -2.59,3.79zm-0.01 -2.9c-0.22,0 -0.4,-0.08 -0.53,-0.24 -0.14,-0.16 -0.2,-0.38 -0.2,-0.65 -0.01,-0.26 0.06,-0.48 0.19,-0.64 0.14,-0.16 0.32,-0.25 0.54,-0.25 0.22,0 0.4,0.08 0.54,0.25 0.13,0.16 0.2,0.38 0.2,0.64 0,0.27 -0.07,0.49 -0.21,0.65 -0.13,0.17 -0.31,0.24 -0.53,0.24zm0.01 1.76c0.85,0 1.28,-0.88 1.28,-2.65 0,-1.83 -0.43,-2.75 -1.28,-2.75 -0.87,0 -1.31,0.92 -1.3,2.75 -0.01,1.77 0.43,2.65 1.3,2.65z"/>
     <path class="fil3" d="M927.16 176.16l0 -5.1c0,-1.93 0.91,-2.89 2.73,-2.89 0.42,0 0.82,0.03 1.21,0.1l-0.13 1.18c-0.23,-0.03 -0.43,-0.05 -0.61,-0.06 -0.17,-0.01 -0.34,-0.01 -0.5,-0.01 -0.94,0 -1.4,0.54 -1.4,1.63l0 5.15 -1.3 0zm-1.72 -3.31l0 -1.09 5.26 0 0 1.09 -5.26 0z"/>
     <path id="1" class="fil3" d="M935.67 176.21l-0.1 -1.65 -0.07 -0.62 0 -1.23c0,-0.33 -0.13,-0.56 -0.39,-0.72 -0.25,-0.15 -0.63,-0.23 -1.14,-0.25l-1.39 -0.03 0.11 -1.18 1.17 0.02c0.98,0.02 1.7,0.21 2.17,0.6 0.48,0.38 0.71,0.94 0.71,1.68l0 2.16 0.84 0.12 0 1.05 -1.91 0.05zm-1.92 0.05c-0.59,0 -1.04,-0.14 -1.37,-0.43 -0.32,-0.29 -0.48,-0.69 -0.48,-1.22 0,-0.61 0.22,-1.07 0.65,-1.4 0.43,-0.33 1.05,-0.49 1.85,-0.49 0.31,0 0.59,0.02 0.82,0.05 0.24,0.04 0.47,0.09 0.69,0.17l-0.23 0.96c-0.23,-0.05 -0.44,-0.08 -0.64,-0.09 -0.19,-0.01 -0.4,-0.01 -0.61,-0.01 -0.83,0 -1.24,0.23 -1.24,0.71 0,0.21 0.07,0.38 0.21,0.5 0.15,0.12 0.36,0.18 0.64,0.18 0.32,0 0.59,-0.06 0.81,-0.18 0.21,-0.12 0.38,-0.27 0.49,-0.45 0.1,-0.18 0.16,-0.36 0.16,-0.56l0 -0.45 0.25 1.43 -0.45 0 0.19 -0.17c-0.01,0.33 -0.08,0.59 -0.23,0.81 -0.14,0.22 -0.34,0.38 -0.59,0.48 -0.26,0.11 -0.56,0.16 -0.92,0.16z"/>
     <path id="2" class="fil3" d="M940.91 176.26c-1.73,0 -2.6,-1.26 -2.6,-3.78 0,-2.59 0.87,-3.89 2.6,-3.89 1.73,0 2.59,1.3 2.59,3.89 0,2.52 -0.86,3.78 -2.59,3.78zm-0.01 -2.89c-0.22,0 -0.4,-0.08 -0.53,-0.24 -0.14,-0.16 -0.2,-0.38 -0.2,-0.65 -0.01,-0.27 0.06,-0.48 0.19,-0.64 0.14,-0.17 0.32,-0.25 0.54,-0.25 0.22,0 0.4,0.08 0.54,0.24 0.13,0.17 0.2,0.38 0.2,0.65 0,0.27 -0.07,0.49 -0.21,0.65 -0.13,0.16 -0.31,0.24 -0.53,0.24zm0.01 1.75c0.85,0.01 1.28,-0.87 1.28,-2.64 0,-1.84 -0.43,-2.75 -1.28,-2.75 -0.87,0 -1.31,0.91 -1.3,2.75 -0.01,1.77 0.43,2.65 1.3,2.64z"/>
     <polygon id="3" class="fil3" points="944.55,177.16 948.68,167.7 950,167.7 945.87,177.16 "/>
     <path id="4" class="fil3" d="M953.52 176.26c-1.73,0 -2.6,-1.26 -2.6,-3.78 0,-2.59 0.87,-3.89 2.6,-3.89 1.73,0 2.6,1.3 2.6,3.89 0,2.52 -0.87,3.78 -2.6,3.78zm-0.01 -2.89c-0.22,0 -0.39,-0.08 -0.53,-0.24 -0.13,-0.16 -0.2,-0.38 -0.2,-0.65 0,-0.27 0.06,-0.48 0.2,-0.64 0.13,-0.17 0.31,-0.25 0.53,-0.25 0.23,0 0.4,0.08 0.54,0.24 0.14,0.17 0.2,0.38 0.2,0.65 0,0.27 -0.07,0.49 -0.2,0.65 -0.14,0.16 -0.31,0.24 -0.54,0.24zm0.01 1.75c0.86,0.01 1.29,-0.87 1.29,-2.64 0,-1.84 -0.43,-2.75 -1.29,-2.75 -0.87,0 -1.3,0.91 -1.3,2.75 0,1.77 0.43,2.65 1.3,2.64z"/>
     <path class="fil3" d="M666.6 176.29l0 -5.09c0,-1.93 0.91,-2.89 2.73,-2.89 0.41,0 0.82,0.03 1.21,0.1l-0.13 1.18c-0.23,-0.03 -0.43,-0.05 -0.61,-0.06 -0.18,-0.01 -0.34,-0.02 -0.5,-0.02 -0.94,0 -1.41,0.55 -1.41,1.63l0 5.15 -1.29 0zm-1.72 -3.3l0 -1.1 5.26 0 0 1.1 -5.26 0z"/>
     <path id="1" class="fil3" d="M675.11 176.35l-0.1 -1.66 -0.08 -0.61 0 -1.23c0,-0.33 -0.12,-0.57 -0.38,-0.72 -0.26,-0.15 -0.64,-0.24 -1.14,-0.25l-1.39 -0.04 0.1 -1.17 1.18 0.02c0.97,0.01 1.7,0.21 2.17,0.59 0.47,0.39 0.71,0.94 0.71,1.68l0 2.17 0.84 0.11 0 1.05 -1.91 0.06zm-1.92 0.05c-0.59,0 -1.04,-0.14 -1.37,-0.43 -0.32,-0.29 -0.49,-0.7 -0.49,-1.22 0,-0.61 0.22,-1.08 0.66,-1.41 0.43,-0.32 1.05,-0.48 1.84,-0.48 0.32,0 0.59,0.01 0.83,0.05 0.24,0.03 0.47,0.09 0.68,0.16l-0.23 0.97c-0.23,-0.05 -0.44,-0.08 -0.63,-0.09 -0.2,-0.01 -0.4,-0.02 -0.62,-0.02 -0.82,0 -1.24,0.24 -1.24,0.71 0,0.22 0.07,0.39 0.22,0.51 0.15,0.11 0.36,0.17 0.63,0.17 0.33,0 0.59,-0.06 0.81,-0.17 0.22,-0.12 0.38,-0.27 0.49,-0.45 0.11,-0.18 0.16,-0.37 0.16,-0.56l0 -0.45 0.26 1.43 -0.45 0 0.18 -0.17c0,0.32 -0.08,0.59 -0.22,0.81 -0.14,0.21 -0.34,0.37 -0.6,0.48 -0.25,0.11 -0.56,0.16 -0.91,0.16z"/>
     <path id="2" class="fil3" d="M680.34 176.4c-1.73,0 -2.59,-1.26 -2.59,-3.79 0,-2.59 0.86,-3.88 2.59,-3.88 1.73,0 2.6,1.29 2.6,3.88 0,2.53 -0.87,3.79 -2.6,3.79zm0 -2.9c-0.22,0 -0.4,-0.08 -0.54,-0.24 -0.13,-0.16 -0.2,-0.38 -0.2,-0.65 0,-0.26 0.06,-0.48 0.2,-0.64 0.14,-0.16 0.32,-0.24 0.54,-0.24 0.22,-0.01 0.4,0.07 0.53,0.24 0.14,0.16 0.21,0.38 0.2,0.64 0,0.27 -0.07,0.49 -0.2,0.65 -0.13,0.17 -0.31,0.25 -0.53,0.24zm0 1.76c0.86,0 1.29,-0.88 1.29,-2.65 0,-1.83 -0.43,-2.75 -1.29,-2.74 -0.87,-0.01 -1.3,0.91 -1.3,2.74 0,1.77 0.43,2.65 1.3,2.65z"/>
     <polygon id="3" class="fil3" points="683.99,177.29 688.12,167.83 689.44,167.83 685.3,177.29 "/>
     <path id="4" class="fil3" d="M692.96 176.4c-1.74,0 -2.6,-1.26 -2.6,-3.79 0,-2.59 0.86,-3.88 2.6,-3.88 1.73,0 2.59,1.29 2.59,3.88 0,2.53 -0.86,3.79 -2.59,3.79zm-0.01 -2.9c-0.22,0 -0.4,-0.08 -0.53,-0.24 -0.14,-0.16 -0.2,-0.38 -0.2,-0.65 -0.01,-0.26 0.06,-0.48 0.19,-0.64 0.14,-0.16 0.32,-0.24 0.54,-0.24 0.22,-0.01 0.4,0.07 0.54,0.24 0.13,0.16 0.2,0.38 0.2,0.64 0,0.27 -0.07,0.49 -0.21,0.65 -0.13,0.17 -0.31,0.25 -0.53,0.24zm0.01 1.76c0.85,0 1.28,-0.88 1.28,-2.65 0,-1.83 -0.43,-2.75 -1.28,-2.74 -0.87,-0.01 -1.31,0.91 -1.3,2.74 -0.01,1.77 0.43,2.65 1.3,2.65z"/>
     <path class="fil3" d="M137.66 249.97l0 -5.1c0,-1.92 0.91,-2.89 2.72,-2.89 0.42,0 0.82,0.04 1.21,0.11l-0.12 1.18c-0.24,-0.03 -0.44,-0.05 -0.61,-0.06 -0.18,-0.01 -0.35,-0.02 -0.51,-0.02 -0.93,0 -1.4,0.54 -1.4,1.63l0 5.15 -1.29 0zm-1.72 -3.31l0 -1.09 5.25 0 0 1.09 -5.25 0z"/>
     <path id="1" class="fil3" d="M146.16 250.02l-0.09 -1.65 -0.08 -0.62 0 -1.23c0,-0.32 -0.13,-0.56 -0.38,-0.72 -0.26,-0.15 -0.64,-0.23 -1.15,-0.24l-1.38 -0.04 0.1 -1.17 1.18 0.01c0.97,0.02 1.69,0.22 2.17,0.6 0.47,0.38 0.71,0.94 0.71,1.68l0 2.16 0.84 0.12 0 1.05 -1.92 0.05zm-1.91 0.06c-0.59,0 -1.05,-0.15 -1.37,-0.44 -0.33,-0.28 -0.49,-0.69 -0.49,-1.21 0,-0.61 0.22,-1.08 0.65,-1.41 0.44,-0.32 1.05,-0.49 1.85,-0.49 0.31,0 0.59,0.02 0.83,0.06 0.24,0.03 0.46,0.08 0.68,0.16l-0.23 0.97c-0.23,-0.06 -0.44,-0.09 -0.64,-0.1 -0.19,-0.01 -0.4,-0.01 -0.61,-0.01 -0.83,0 -1.24,0.24 -1.24,0.71 0,0.22 0.07,0.38 0.22,0.5 0.14,0.12 0.35,0.18 0.63,0.18 0.32,0 0.59,-0.06 0.81,-0.18 0.22,-0.12 0.38,-0.27 0.49,-0.44 0.11,-0.19 0.16,-0.37 0.16,-0.56l0 -0.46 0.25 1.43 -0.44 0 0.18 -0.17c-0.01,0.33 -0.08,0.6 -0.22,0.81 -0.14,0.22 -0.34,0.38 -0.6,0.48 -0.26,0.11 -0.56,0.17 -0.91,0.17z"/>
     <path id="2" class="fil3" d="M151.4 250.08c-1.73,0 -2.6,-1.27 -2.6,-3.79 0,-2.59 0.87,-3.89 2.6,-3.89 1.73,0 2.6,1.3 2.6,3.89 0,2.52 -0.87,3.79 -2.6,3.79zm-0.01 -2.9c-0.22,0 -0.39,-0.08 -0.53,-0.24 -0.13,-0.16 -0.2,-0.38 -0.2,-0.65 0,-0.26 0.06,-0.48 0.2,-0.64 0.13,-0.16 0.31,-0.25 0.53,-0.25 0.23,0 0.4,0.08 0.54,0.25 0.14,0.16 0.2,0.38 0.2,0.64 0,0.27 -0.07,0.49 -0.2,0.65 -0.14,0.16 -0.31,0.24 -0.54,0.24zm0.01 1.75c0.86,0.01 1.29,-0.87 1.29,-2.64 0,-1.83 -0.43,-2.75 -1.29,-2.75 -0.87,0 -1.3,0.92 -1.3,2.75 0,1.77 0.43,2.65 1.3,2.64z"/>
     <polygon id="3" class="fil3" points="155.05,250.97 159.18,241.51 160.49,241.51 156.36,250.97 "/>
     <path id="4" class="fil3" d="M163.52 249.97l0 -7.46 1.3 0 0 7.46 -1.3 0zm-1.82 0l0 -1.13 1.93 0.01 0 1.12 -1.93 0zm3.01 0l0 -1.13 1.73 0.01 0 1.12 -1.73 0zm-2.91 -5.62l0 -1.21 1.72 -0.63 0 1.24 -1.72 0.6z"/>
     <path class="fil3" d="M399.9 249.86l0 -5.09c0,-1.93 0.91,-2.89 2.72,-2.89 0.42,0 0.82,0.03 1.21,0.1l-0.12 1.18c-0.23,-0.03 -0.44,-0.05 -0.61,-0.06 -0.18,-0.01 -0.35,-0.02 -0.51,-0.02 -0.93,0 -1.4,0.55 -1.4,1.63l0 5.15 -1.29 0zm-1.72 -3.3l0 -1.1 5.25 0 0 1.1 -5.25 0z"/>
     <path id="1" class="fil3" d="M408.4 249.91l-0.09 -1.65 -0.08 -0.61 0 -1.23c0,-0.33 -0.12,-0.57 -0.38,-0.72 -0.26,-0.15 -0.64,-0.24 -1.15,-0.25l-1.38 -0.04 0.1 -1.17 1.18 0.02c0.97,0.01 1.7,0.21 2.17,0.59 0.47,0.39 0.71,0.94 0.71,1.68l0 2.17 0.84 0.11 0 1.05 -1.92 0.05zm-1.91 0.06c-0.59,0 -1.05,-0.14 -1.37,-0.43 -0.33,-0.29 -0.49,-0.7 -0.49,-1.22 0,-0.61 0.22,-1.08 0.65,-1.41 0.44,-0.32 1.05,-0.48 1.85,-0.48 0.31,0 0.59,0.01 0.83,0.05 0.24,0.03 0.46,0.09 0.68,0.16l-0.23 0.97c-0.23,-0.05 -0.44,-0.08 -0.64,-0.09 -0.19,-0.01 -0.4,-0.02 -0.61,-0.02 -0.83,0 -1.24,0.24 -1.24,0.71 0,0.22 0.07,0.39 0.22,0.5 0.14,0.12 0.35,0.18 0.63,0.18 0.32,0 0.59,-0.06 0.81,-0.18 0.22,-0.11 0.38,-0.26 0.49,-0.44 0.11,-0.18 0.16,-0.37 0.16,-0.56l0 -0.45 0.25 1.43 -0.44 0 0.18 -0.17c-0.01,0.32 -0.08,0.59 -0.22,0.8 -0.14,0.22 -0.34,0.38 -0.6,0.49 -0.25,0.1 -0.56,0.16 -0.91,0.16z"/>
     <path id="2" class="fil3" d="M413.64 249.97c-1.73,0 -2.6,-1.26 -2.6,-3.79 0,-2.59 0.87,-3.88 2.6,-3.88 1.73,0 2.6,1.29 2.6,3.88 0,2.53 -0.87,3.79 -2.6,3.79zm0 -2.9c-0.23,0 -0.4,-0.08 -0.54,-0.24 -0.13,-0.16 -0.2,-0.38 -0.2,-0.65 0,-0.26 0.06,-0.48 0.2,-0.64 0.13,-0.16 0.31,-0.24 0.54,-0.24 0.22,-0.01 0.39,0.07 0.53,0.24 0.14,0.16 0.2,0.38 0.2,0.64 0,0.27 -0.07,0.49 -0.2,0.65 -0.14,0.17 -0.31,0.25 -0.53,0.24zm0 1.76c0.86,0 1.29,-0.88 1.29,-2.65 0,-1.83 -0.43,-2.75 -1.29,-2.74 -0.87,-0.01 -1.3,0.91 -1.3,2.74 0,1.77 0.43,2.65 1.3,2.65z"/>
     <polygon id="3" class="fil3" points="417.29,250.86 421.42,241.4 422.73,241.4 418.6,250.86 "/>
     <path id="4" class="fil3" d="M425.76 249.86l0 -7.46 1.3 0 0 7.46 -1.3 0zm-1.82 0l0 -1.13 1.93 0.01 0 1.12 -1.93 0zm3.01 0l0 -1.13 1.73 0.01 0 1.12 -1.73 0zm-2.9 -5.62l0 -1.21 1.71 -0.63 0 1.24 -1.71 0.6z"/>
     <path class="fil3" d="M568.58 249.92l0 -5.1c0,-1.92 0.91,-2.89 2.72,-2.89 0.42,0 0.82,0.04 1.21,0.11l-0.12 1.18c-0.23,-0.03 -0.44,-0.05 -0.61,-0.06 -0.18,-0.01 -0.35,-0.02 -0.51,-0.02 -0.93,0 -1.4,0.55 -1.4,1.63l0 5.15 -1.29 0zm-1.72 -3.3l0 -1.1 5.25 0 0 1.1 -5.25 0z"/>
     <path id="1" class="fil3" d="M577.08 249.97l-0.09 -1.65 -0.08 -0.62 0 -1.23c0,-0.32 -0.12,-0.56 -0.38,-0.71 -0.26,-0.16 -0.64,-0.24 -1.15,-0.25l-1.38 -0.04 0.1 -1.17 1.18 0.01c0.97,0.02 1.7,0.22 2.17,0.6 0.47,0.38 0.71,0.94 0.71,1.68l0 2.17 0.84 0.11 0 1.05 -1.92 0.05zm-1.91 0.06c-0.59,0 -1.05,-0.15 -1.37,-0.43 -0.33,-0.29 -0.49,-0.7 -0.49,-1.22 0,-0.61 0.22,-1.08 0.65,-1.41 0.44,-0.32 1.05,-0.48 1.85,-0.48 0.31,0 0.59,0.01 0.83,0.05 0.24,0.03 0.46,0.09 0.68,0.16l-0.23 0.97c-0.23,-0.05 -0.44,-0.09 -0.63,-0.09 -0.2,-0.01 -0.41,-0.02 -0.62,-0.02 -0.83,0 -1.24,0.24 -1.24,0.71 0,0.22 0.07,0.39 0.22,0.5 0.14,0.12 0.35,0.18 0.63,0.18 0.32,0 0.59,-0.06 0.81,-0.18 0.22,-0.11 0.38,-0.26 0.49,-0.44 0.11,-0.18 0.16,-0.37 0.16,-0.56l0 -0.45 0.25 1.43 -0.44 0 0.18 -0.17c-0.01,0.32 -0.08,0.59 -0.22,0.8 -0.14,0.22 -0.34,0.38 -0.6,0.49 -0.25,0.1 -0.56,0.16 -0.91,0.16z"/>
     <path id="2" class="fil3" d="M582.32 250.03c-1.73,0 -2.6,-1.27 -2.6,-3.79 0,-2.59 0.87,-3.89 2.6,-3.89 1.73,0 2.6,1.3 2.6,3.89 0,2.52 -0.87,3.79 -2.6,3.79zm0 -2.9c-0.23,0 -0.4,-0.08 -0.54,-0.24 -0.13,-0.16 -0.2,-0.38 -0.2,-0.65 0,-0.26 0.06,-0.48 0.2,-0.64 0.14,-0.16 0.31,-0.25 0.54,-0.25 0.22,0 0.4,0.08 0.53,0.25 0.14,0.16 0.2,0.38 0.2,0.64 0,0.27 -0.07,0.49 -0.2,0.65 -0.14,0.17 -0.31,0.24 -0.53,0.24zm0 1.76c0.86,0 1.29,-0.88 1.29,-2.65 0,-1.83 -0.43,-2.75 -1.29,-2.74 -0.87,-0.01 -1.3,0.91 -1.3,2.74 0,1.77 0.43,2.65 1.3,2.65z"/>
     <polygon id="3" class="fil3" points="585.97,250.92 590.1,241.46 591.41,241.46 587.28,250.92 "/>
     <path id="4" class="fil3" d="M594.44 249.92l0 -7.46 1.3 0 0 7.46 -1.3 0zm-1.82 0l0 -1.13 1.93 0.01 0 1.12 -1.93 0zm3.01 0l0 -1.13 1.73 0.01 0 1.12 -1.73 0zm-2.9 -5.62l0 -1.21 1.71 -0.63 0 1.24 -1.71 0.6z"/>
     <path class="fil3" d="M828.21 249.99l0 -5.1c0,-1.93 0.91,-2.89 2.72,-2.89 0.42,0 0.82,0.03 1.21,0.1l-0.12 1.18c-0.23,-0.03 -0.44,-0.05 -0.61,-0.06 -0.18,-0.01 -0.35,-0.01 -0.51,-0.01 -0.93,0 -1.4,0.54 -1.4,1.63l0 5.15 -1.29 0zm-1.72 -3.31l0 -1.09 5.25 0 0 1.09 -5.25 0z"/>
     <path id="1" class="fil3" d="M836.71 250.04l-0.09 -1.65 -0.08 -0.62 0 -1.23c0,-0.33 -0.13,-0.57 -0.38,-0.72 -0.26,-0.15 -0.64,-0.23 -1.15,-0.25l-1.38 -0.03 0.1 -1.18 1.18 0.02c0.97,0.01 1.69,0.21 2.17,0.6 0.47,0.38 0.71,0.94 0.71,1.68l0 2.16 0.84 0.12 0 1.05 -1.92 0.05zm-1.91 0.05c-0.59,0 -1.05,-0.14 -1.37,-0.43 -0.33,-0.29 -0.49,-0.69 -0.49,-1.22 0,-0.61 0.22,-1.08 0.65,-1.4 0.44,-0.33 1.05,-0.49 1.85,-0.49 0.31,0 0.59,0.02 0.83,0.05 0.24,0.04 0.46,0.09 0.68,0.17l-0.23 0.96c-0.23,-0.05 -0.44,-0.08 -0.64,-0.09 -0.19,-0.01 -0.4,-0.01 -0.61,-0.01 -0.83,0 -1.24,0.23 -1.24,0.71 0,0.21 0.07,0.38 0.22,0.5 0.14,0.12 0.35,0.17 0.63,0.17 0.32,0 0.59,-0.05 0.81,-0.17 0.22,-0.12 0.38,-0.27 0.49,-0.45 0.11,-0.18 0.16,-0.37 0.16,-0.56l0 -0.45 0.25 1.43 -0.44 0 0.18 -0.17c-0.01,0.32 -0.08,0.59 -0.22,0.81 -0.14,0.21 -0.34,0.38 -0.6,0.48 -0.25,0.11 -0.56,0.16 -0.91,0.16z"/>
     <path id="2" class="fil3" d="M841.95 250.09c-1.73,0 -2.6,-1.26 -2.6,-3.78 0,-2.59 0.87,-3.89 2.6,-3.89 1.73,0 2.6,1.3 2.6,3.89 0,2.52 -0.87,3.78 -2.6,3.78zm-0.01 -2.89c-0.22,0 -0.39,-0.08 -0.53,-0.24 -0.13,-0.17 -0.2,-0.38 -0.2,-0.65 0,-0.27 0.06,-0.48 0.2,-0.65 0.13,-0.16 0.31,-0.24 0.53,-0.24 0.23,0 0.4,0.08 0.54,0.24 0.14,0.17 0.2,0.38 0.2,0.65 0,0.27 -0.07,0.48 -0.2,0.65 -0.14,0.16 -0.31,0.24 -0.54,0.24zm0.01 1.75c0.86,0.01 1.29,-0.88 1.29,-2.64 0,-1.84 -0.43,-2.75 -1.29,-2.75 -0.87,0 -1.3,0.91 -1.3,2.75 0,1.76 0.43,2.65 1.3,2.64z"/>
     <polygon id="3" class="fil3" points="845.6,250.99 849.73,241.53 851.04,241.53 846.91,250.99 "/>
     <path id="4" class="fil3" d="M854.07 249.99l0 -7.46 1.3 0 0 7.46 -1.3 0zm-1.82 0l0 -1.13 1.93 0 0 1.13 -1.93 0zm3.01 0l0 -1.13 1.73 0 0 1.13 -1.73 0zm-2.9 -5.62l0 -1.22 1.71 -0.62 0 1.23 -1.71 0.61z"/>
     <path class="fil3" d="M66.26 150.29l0 -5.1c0,-1.93 0.91,-2.89 2.73,-2.89 0.42,0 0.82,0.04 1.21,0.1l-0.13 1.18c-0.23,-0.03 -0.43,-0.05 -0.61,-0.06 -0.17,0 -0.34,-0.01 -0.5,-0.01 -0.94,0 -1.4,0.54 -1.4,1.63l0 5.15 -1.3 0zm-1.71 -3.31l0 -1.09 5.25 0 0 1.09 -5.25 0z"/>
     <path id="1" class="fil3" d="M74.77 150.34l-0.1 -1.65 -0.07 -0.62 0 -1.23c0,-0.33 -0.13,-0.56 -0.39,-0.72 -0.25,-0.15 -0.63,-0.23 -1.14,-0.25l-1.39 -0.03 0.11 -1.18 1.17 0.02c0.98,0.02 1.7,0.21 2.18,0.6 0.47,0.38 0.7,0.94 0.7,1.68l0 2.16 0.84 0.12 0 1.05 -1.91 0.05zm-1.92 0.05c-0.58,0 -1.04,-0.14 -1.37,-0.43 -0.32,-0.29 -0.48,-0.69 -0.48,-1.22 0,-0.61 0.22,-1.07 0.65,-1.4 0.43,-0.33 1.05,-0.49 1.85,-0.49 0.31,0 0.59,0.02 0.82,0.05 0.24,0.04 0.47,0.09 0.69,0.17l-0.23 0.96c-0.23,-0.05 -0.44,-0.08 -0.64,-0.09 -0.19,-0.01 -0.4,-0.01 -0.61,-0.01 -0.83,0 -1.24,0.23 -1.24,0.71 0,0.22 0.07,0.38 0.21,0.5 0.15,0.12 0.36,0.18 0.64,0.18 0.32,0 0.59,-0.06 0.81,-0.18 0.21,-0.12 0.38,-0.27 0.49,-0.45 0.1,-0.18 0.16,-0.36 0.16,-0.56l0 -0.45 0.25 1.43 -0.45 0 0.19 -0.17c-0.01,0.33 -0.08,0.59 -0.23,0.81 -0.14,0.22 -0.34,0.38 -0.59,0.48 -0.26,0.11 -0.56,0.16 -0.92,0.16z"/>
     <path id="2" class="fil3" d="M80.01 150.39c-1.73,0 -2.6,-1.26 -2.6,-3.78 0,-2.59 0.87,-3.89 2.6,-3.89 1.73,0 2.59,1.3 2.59,3.89 0,2.52 -0.86,3.78 -2.59,3.78zm-0.01 -2.89c-0.22,0 -0.4,-0.08 -0.53,-0.24 -0.14,-0.16 -0.2,-0.38 -0.2,-0.65 -0.01,-0.27 0.06,-0.48 0.19,-0.64 0.14,-0.17 0.32,-0.25 0.54,-0.25 0.22,0 0.4,0.08 0.54,0.24 0.13,0.17 0.2,0.38 0.2,0.65 0,0.27 -0.07,0.49 -0.21,0.65 -0.13,0.16 -0.31,0.24 -0.53,0.24zm0.01 1.75c0.85,0.01 1.28,-0.87 1.28,-2.64 0,-1.84 -0.43,-2.75 -1.28,-2.75 -0.87,0 -1.31,0.91 -1.3,2.75 -0.01,1.77 0.43,2.65 1.3,2.64z"/>
     <polygon id="3" class="fil3" points="83.65,151.29 87.78,141.83 89.1,141.83 84.97,151.29 "/>
     <path id="4" class="fil3" d="M92.13 150.29l0 -7.46 1.29 0 0 7.46 -1.29 0zm-1.82 0l0 -1.13 1.93 0 0 1.13 -1.93 0zm3.01 0l0 -1.13 1.73 0 0 1.13 -1.73 0zm-2.91 -5.62l0 -1.21 1.72 -0.63 0 1.24 -1.72 0.6z"/>
     <path class="fil3" d="M328.74 149.95l0 -5.1c0,-1.93 0.91,-2.89 2.73,-2.89 0.42,0 0.82,0.03 1.21,0.1l-0.13 1.18c-0.23,-0.03 -0.43,-0.05 -0.61,-0.06 -0.17,-0.01 -0.34,-0.01 -0.5,-0.01 -0.94,0 -1.4,0.54 -1.4,1.63l0 5.15 -1.3 0zm-1.71 -3.31l0 -1.09 5.25 0 0 1.09 -5.25 0z"/>
     <path id="1" class="fil3" d="M337.25 150l-0.1 -1.65 -0.07 -0.62 0 -1.23c0,-0.33 -0.13,-0.57 -0.38,-0.72 -0.26,-0.15 -0.64,-0.23 -1.15,-0.25l-1.39 -0.03 0.11 -1.18 1.17 0.02c0.98,0.01 1.7,0.21 2.18,0.6 0.47,0.38 0.7,0.94 0.7,1.67l0 2.17 0.85 0.11 0 1.06 -1.92 0.05zm-1.92 0.05c-0.58,0 -1.04,-0.14 -1.36,-0.43 -0.33,-0.29 -0.49,-0.69 -0.49,-1.22 0,-0.61 0.22,-1.08 0.65,-1.4 0.43,-0.33 1.05,-0.49 1.85,-0.49 0.31,0 0.59,0.02 0.82,0.05 0.24,0.04 0.47,0.09 0.69,0.16l-0.23 0.97c-0.23,-0.05 -0.44,-0.08 -0.64,-0.09 -0.19,-0.01 -0.4,-0.01 -0.61,-0.01 -0.83,0 -1.24,0.23 -1.24,0.71 0,0.21 0.07,0.38 0.21,0.5 0.15,0.11 0.36,0.17 0.64,0.17 0.32,0 0.59,-0.06 0.81,-0.17 0.21,-0.12 0.38,-0.27 0.49,-0.45 0.11,-0.18 0.16,-0.37 0.16,-0.56l0 -0.45 0.25 1.43 -0.45 0 0.19 -0.17c-0.01,0.32 -0.08,0.59 -0.23,0.81 -0.14,0.21 -0.34,0.37 -0.59,0.48 -0.26,0.11 -0.56,0.16 -0.92,0.16z"/>
     <path id="2" class="fil3" d="M342.49 150.05c-1.73,0 -2.6,-1.26 -2.6,-3.78 0,-2.6 0.87,-3.89 2.6,-3.89 1.73,0 2.59,1.29 2.59,3.89 0,2.52 -0.86,3.78 -2.59,3.78zm-0.01 -2.9c-0.22,0 -0.4,-0.08 -0.53,-0.24 -0.14,-0.16 -0.2,-0.37 -0.2,-0.64 -0.01,-0.27 0.06,-0.48 0.2,-0.65 0.13,-0.16 0.31,-0.24 0.53,-0.24 0.22,0 0.4,0.08 0.54,0.24 0.13,0.17 0.2,0.38 0.2,0.65 0,0.27 -0.07,0.48 -0.21,0.65 -0.13,0.16 -0.31,0.24 -0.53,0.23zm0.01 1.76c0.85,0 1.28,-0.88 1.28,-2.64 0,-1.84 -0.43,-2.76 -1.28,-2.75 -0.87,-0.01 -1.31,0.91 -1.3,2.75 -0.01,1.76 0.43,2.64 1.3,2.64z"/>
     <polygon id="3" class="fil3" points="346.13,150.94 350.26,141.48 351.58,141.48 347.45,150.94 "/>
     <path id="4" class="fil3" d="M354.61 149.95l0 -7.47 1.29 0 0 7.47 -1.29 0zm-1.82 0l0 -1.13 1.93 0 0 1.13 -1.93 0zm3.01 0l0 -1.13 1.73 0 0 1.13 -1.73 0zm-2.91 -5.62l0 -1.22 1.72 -0.63 0 1.24 -1.72 0.61z"/>
     <path class="fil3" d="M589.29 150.36l0 -5.09c0,-1.93 0.91,-2.89 2.72,-2.89 0.42,0 0.82,0.03 1.21,0.1l-0.12 1.18c-0.24,-0.03 -0.44,-0.05 -0.61,-0.06 -0.18,-0.01 -0.35,-0.02 -0.51,-0.02 -0.93,0 -1.4,0.55 -1.4,1.63l0 5.15 -1.29 0zm-1.72 -3.3l0 -1.1 5.25 0 0 1.1 -5.25 0z"/>
     <path id="1" class="fil3" d="M597.79 150.41l-0.09 -1.65 -0.08 -0.61 0 -1.23c0,-0.33 -0.13,-0.57 -0.38,-0.72 -0.26,-0.15 -0.64,-0.24 -1.15,-0.25l-1.38 -0.04 0.1 -1.17 1.18 0.02c0.97,0.01 1.69,0.21 2.17,0.59 0.47,0.38 0.71,0.94 0.71,1.68l0 2.17 0.84 0.11 0 1.05 -1.92 0.05zm-1.91 0.06c-0.59,0 -1.05,-0.14 -1.37,-0.43 -0.33,-0.29 -0.49,-0.7 -0.49,-1.22 0,-0.61 0.22,-1.08 0.65,-1.41 0.44,-0.32 1.05,-0.48 1.85,-0.48 0.31,0 0.59,0.01 0.83,0.05 0.24,0.03 0.46,0.09 0.68,0.16l-0.23 0.97c-0.23,-0.05 -0.44,-0.08 -0.64,-0.09 -0.19,-0.01 -0.4,-0.02 -0.61,-0.02 -0.83,0 -1.24,0.24 -1.24,0.71 0,0.22 0.07,0.39 0.22,0.5 0.14,0.12 0.35,0.18 0.63,0.18 0.32,0 0.59,-0.06 0.81,-0.18 0.22,-0.11 0.38,-0.26 0.49,-0.44 0.11,-0.18 0.16,-0.37 0.16,-0.56l0 -0.45 0.25 1.43 -0.44 0 0.18 -0.17c-0.01,0.32 -0.08,0.59 -0.22,0.8 -0.14,0.22 -0.34,0.38 -0.6,0.49 -0.25,0.1 -0.56,0.16 -0.91,0.16z"/>
     <path id="2" class="fil3" d="M603.03 150.47c-1.73,0 -2.6,-1.26 -2.6,-3.79 0,-2.59 0.87,-3.88 2.6,-3.88 1.73,0 2.6,1.29 2.6,3.88 0,2.53 -0.87,3.79 -2.6,3.79zm-0.01 -2.9c-0.22,0 -0.39,-0.08 -0.53,-0.24 -0.13,-0.16 -0.2,-0.38 -0.2,-0.65 0,-0.26 0.06,-0.48 0.2,-0.64 0.13,-0.16 0.31,-0.24 0.53,-0.24 0.23,-0.01 0.4,0.07 0.54,0.24 0.14,0.16 0.2,0.38 0.2,0.64 0,0.27 -0.07,0.49 -0.2,0.65 -0.14,0.17 -0.31,0.25 -0.54,0.24zm0.01 1.76c0.86,0 1.29,-0.88 1.29,-2.65 0,-1.83 -0.43,-2.75 -1.29,-2.74 -0.87,-0.01 -1.3,0.91 -1.3,2.74 0,1.77 0.43,2.65 1.3,2.65z"/>
     <polygon id="3" class="fil3" points="606.68,151.36 610.81,141.9 612.12,141.9 607.99,151.36 "/>
     <path id="4" class="fil3" d="M615.15 150.36l0 -7.46 1.3 0 0 7.46 -1.3 0zm-1.82 0l0 -1.13 1.93 0.01 0 1.12 -1.93 0zm3.01 0l0 -1.13 1.73 0.01 0 1.12 -1.73 0zm-2.91 -5.62l0 -1.21 1.72 -0.63 0 1.24 -1.72 0.6z"/>
     <path class="fil3" d="M849.09 150.26l0 -5.1c0,-1.93 0.91,-2.89 2.73,-2.89 0.42,0 0.82,0.04 1.21,0.11l-0.13 1.17c-0.23,-0.02 -0.43,-0.04 -0.61,-0.05 -0.18,-0.01 -0.34,-0.02 -0.5,-0.02 -0.94,0 -1.41,0.54 -1.41,1.63l0 5.15 -1.29 0zm-1.72 -3.31l0 -1.09 5.26 0 0 1.09 -5.26 0z"/>
     <path id="1" class="fil3" d="M857.6 150.31l-0.1 -1.65 -0.07 -0.62 0 -1.23c0,-0.32 -0.13,-0.56 -0.39,-0.72 -0.25,-0.15 -0.64,-0.23 -1.14,-0.24l-1.39 -0.04 0.1 -1.17 1.18 0.01c0.98,0.02 1.7,0.22 2.17,0.6 0.47,0.38 0.71,0.94 0.71,1.68l0 2.16 0.84 0.12 0 1.05 -1.91 0.05zm-1.92 0.06c-0.59,0 -1.04,-0.15 -1.37,-0.44 -0.32,-0.28 -0.48,-0.69 -0.48,-1.21 0,-0.61 0.21,-1.08 0.65,-1.41 0.43,-0.32 1.05,-0.49 1.84,-0.49 0.32,0 0.6,0.02 0.83,0.05 0.24,0.04 0.47,0.09 0.69,0.17l-0.24 0.96c-0.22,-0.05 -0.44,-0.08 -0.63,-0.09 -0.2,-0.01 -0.4,-0.01 -0.62,-0.01 -0.82,0 -1.24,0.24 -1.24,0.71 0,0.22 0.08,0.38 0.22,0.5 0.15,0.12 0.36,0.18 0.63,0.18 0.33,0 0.6,-0.06 0.82,-0.18 0.21,-0.12 0.37,-0.27 0.48,-0.45 0.11,-0.18 0.17,-0.36 0.17,-0.55l0 -0.46 0.25 1.43 -0.45 0 0.19 -0.17c-0.01,0.33 -0.09,0.6 -0.23,0.81 -0.14,0.22 -0.34,0.38 -0.59,0.48 -0.26,0.11 -0.57,0.17 -0.92,0.17z"/>
     <path id="2" class="fil3" d="M862.83 150.37c-1.73,0 -2.59,-1.27 -2.59,-3.79 0,-2.59 0.86,-3.89 2.59,-3.89 1.74,0 2.6,1.3 2.6,3.89 0,2.52 -0.86,3.79 -2.6,3.79zm0 -2.9c-0.22,0 -0.4,-0.08 -0.53,-0.24 -0.14,-0.16 -0.21,-0.38 -0.21,-0.65 0,-0.27 0.07,-0.48 0.2,-0.64 0.14,-0.16 0.32,-0.25 0.54,-0.25 0.22,0 0.4,0.08 0.54,0.24 0.13,0.17 0.2,0.38 0.19,0.65 0,0.27 -0.06,0.49 -0.2,0.65 -0.13,0.16 -0.31,0.24 -0.53,0.24zm0 1.75c0.86,0.01 1.29,-0.87 1.29,-2.64 0,-1.83 -0.43,-2.75 -1.29,-2.75 -0.87,0 -1.3,0.92 -1.29,2.75 -0.01,1.77 0.42,2.65 1.29,2.64z"/>
     <polygon id="3" class="fil3" points="866.48,151.26 870.61,141.8 871.93,141.8 867.8,151.26 "/>
     <path id="4" class="fil3" d="M874.96 150.26l0 -7.46 1.29 0 0 7.46 -1.29 0zm-1.82 0l0 -1.13 1.92 0 0 1.13 -1.92 0zm3.01 0l0 -1.13 1.72 0 0 1.13 -1.72 0zm-2.91 -5.62l0 -1.21 1.72 -0.63 0 1.24 -1.72 0.6z"/>
     <path class="fil3" d="M137.44 236.89l0 -5.09c0,-1.93 0.91,-2.89 2.73,-2.89 0.41,0 0.81,0.03 1.2,0.1l-0.12 1.18c-0.23,-0.03 -0.44,-0.05 -0.61,-0.06 -0.18,-0.01 -0.34,-0.01 -0.51,-0.01 -0.93,0 -1.4,0.54 -1.4,1.62l0 5.15 -1.29 0zm-1.72 -3.3l0 -1.09 5.26 0 0 1.09 -5.26 0z"/>
     <path id="1" class="fil3" d="M145.95 236.95l-0.1 -1.65 -0.08 -0.62 0 -1.23c0,-0.33 -0.12,-0.57 -0.38,-0.72 -0.26,-0.15 -0.64,-0.24 -1.15,-0.25l-1.38 -0.04 0.1 -1.17 1.18 0.02c0.97,0.01 1.7,0.21 2.17,0.59 0.47,0.39 0.71,0.95 0.71,1.68l0 2.17 0.84 0.11 0 1.05 -1.91 0.06zm-1.92 0.05c-0.59,0 -1.05,-0.14 -1.37,-0.43 -0.32,-0.29 -0.49,-0.69 -0.49,-1.22 0,-0.61 0.22,-1.08 0.66,-1.4 0.43,-0.33 1.04,-0.49 1.84,-0.49 0.31,0 0.59,0.02 0.83,0.05 0.24,0.03 0.47,0.09 0.68,0.16l-0.23 0.97c-0.23,-0.05 -0.44,-0.08 -0.63,-0.09 -0.2,-0.01 -0.41,-0.01 -0.62,-0.01 -0.83,0 -1.24,0.23 -1.24,0.7 0,0.22 0.07,0.39 0.22,0.51 0.14,0.11 0.36,0.17 0.63,0.17 0.32,0 0.59,-0.06 0.81,-0.17 0.22,-0.12 0.38,-0.27 0.49,-0.45 0.11,-0.18 0.16,-0.37 0.16,-0.56l0 -0.45 0.25 1.43 -0.44 0 0.18 -0.17c0,0.32 -0.08,0.59 -0.22,0.81 -0.14,0.21 -0.34,0.37 -0.6,0.48 -0.25,0.11 -0.56,0.16 -0.91,0.16z"/>
     <path id="2" class="fil3" d="M150.69 236.89l0 -7.46 1.3 0 0 7.46 -1.3 0zm-1.82 0l0 -1.13 1.93 0.01 0 1.12 -1.93 0zm3.01 0l0 -1.13 1.73 0.01 0 1.12 -1.73 0zm-2.91 -5.61l0 -1.22 1.72 -0.63 0 1.24 -1.72 0.61z"/>
     <polygon id="3" class="fil3" points="154.83,237.89 158.96,228.43 160.27,228.43 156.14,237.89 "/>
     <path id="4" class="fil3" d="M163.79 237c-1.73,0 -2.59,-1.26 -2.59,-3.78 0,-2.6 0.86,-3.89 2.59,-3.89 1.74,0 2.6,1.29 2.6,3.89 0,2.52 -0.86,3.78 -2.6,3.78zm0 -2.9c-0.22,0 -0.4,-0.08 -0.53,-0.24 -0.14,-0.16 -0.21,-0.37 -0.21,-0.64 0,-0.27 0.07,-0.49 0.2,-0.65 0.14,-0.16 0.32,-0.24 0.54,-0.24 0.22,-0.01 0.4,0.07 0.54,0.24 0.13,0.16 0.2,0.38 0.2,0.65 0,0.27 -0.07,0.48 -0.21,0.64 -0.13,0.17 -0.31,0.25 -0.53,0.24zm0 1.76c0.86,0 1.29,-0.88 1.29,-2.64 0,-1.84 -0.43,-2.76 -1.29,-2.75 -0.86,-0.01 -1.3,0.91 -1.29,2.75 -0.01,1.76 0.43,2.64 1.29,2.64z"/>
     <path class="fil3" d="M399.93 236.74l0 -5.1c0,-1.92 0.91,-2.89 2.72,-2.89 0.42,0 0.82,0.04 1.21,0.11l-0.12 1.18c-0.23,-0.03 -0.44,-0.05 -0.61,-0.06 -0.18,-0.01 -0.34,-0.02 -0.51,-0.02 -0.93,0 -1.4,0.54 -1.4,1.63l0 5.15 -1.29 0zm-1.72 -3.3l0 -1.1 5.26 0 0 1.1 -5.26 0z"/>
     <path id="1" class="fil3" d="M408.44 236.79l-0.1 -1.65 -0.08 -0.62 0 -1.23c0,-0.32 -0.12,-0.56 -0.38,-0.71 -0.26,-0.16 -0.64,-0.24 -1.15,-0.25l-1.38 -0.04 0.1 -1.17 1.18 0.01c0.97,0.02 1.7,0.22 2.17,0.6 0.47,0.38 0.71,0.94 0.71,1.68l0 2.17 0.84 0.11 0 1.05 -1.91 0.05zm-1.92 0.06c-0.59,0 -1.05,-0.15 -1.37,-0.43 -0.33,-0.29 -0.49,-0.7 -0.49,-1.22 0,-0.61 0.22,-1.08 0.65,-1.41 0.44,-0.32 1.05,-0.49 1.85,-0.49 0.31,0 0.59,0.02 0.83,0.06 0.24,0.03 0.47,0.09 0.68,0.16l-0.23 0.97c-0.23,-0.06 -0.44,-0.09 -0.63,-0.09 -0.2,-0.01 -0.41,-0.02 -0.62,-0.02 -0.83,0 -1.24,0.24 -1.24,0.71 0,0.22 0.07,0.39 0.22,0.5 0.14,0.12 0.36,0.18 0.63,0.18 0.32,0 0.59,-0.06 0.81,-0.18 0.22,-0.11 0.38,-0.26 0.49,-0.44 0.11,-0.18 0.16,-0.37 0.16,-0.56l0 -0.45 0.25 1.42 -0.44 0 0.18 -0.16c0,0.32 -0.08,0.59 -0.22,0.8 -0.14,0.22 -0.34,0.38 -0.6,0.49 -0.25,0.1 -0.56,0.16 -0.91,0.16z"/>
     <path id="2" class="fil3" d="M413.18 236.74l0 -7.46 1.3 0 0 7.46 -1.3 0zm-1.82 0l0 -1.13 1.93 0.01 0 1.12 -1.93 0zm3.01 0l0 -1.13 1.73 0.01 0 1.12 -1.73 0zm-2.91 -5.62l0 -1.21 1.72 -0.63 0 1.24 -1.72 0.6z"/>
     <polygon id="3" class="fil3" points="417.32,237.74 421.45,228.28 422.76,228.28 418.63,237.74 "/>
     <path id="4" class="fil3" d="M426.28 236.85c-1.73,0 -2.59,-1.27 -2.59,-3.79 0,-2.59 0.86,-3.89 2.59,-3.89 1.74,0 2.6,1.3 2.6,3.89 0,2.52 -0.86,3.79 -2.6,3.79zm0 -2.9c-0.22,0 -0.4,-0.08 -0.53,-0.24 -0.14,-0.16 -0.21,-0.38 -0.21,-0.65 0,-0.26 0.07,-0.48 0.2,-0.64 0.14,-0.16 0.32,-0.25 0.54,-0.25 0.22,0 0.4,0.08 0.54,0.25 0.13,0.16 0.2,0.38 0.19,0.64 0,0.27 -0.06,0.49 -0.2,0.65 -0.13,0.17 -0.31,0.24 -0.53,0.24zm0 1.76c0.86,0 1.29,-0.88 1.29,-2.65 0,-1.83 -0.43,-2.75 -1.29,-2.75 -0.87,0 -1.3,0.92 -1.29,2.75 -0.01,1.77 0.42,2.65 1.29,2.65z"/>
     <path class="fil3" d="M568.43 236.92l0 -5.1c0,-1.93 0.91,-2.89 2.73,-2.89 0.42,0 0.82,0.03 1.21,0.1l-0.13 1.18c-0.23,-0.03 -0.43,-0.05 -0.6,-0.06 -0.18,-0.01 -0.35,-0.01 -0.51,-0.01 -0.94,0 -1.4,0.54 -1.4,1.63l0 5.15 -1.3 0zm-1.71 -3.31l0 -1.09 5.25 0 0 1.09 -5.25 0z"/>
     <path id="1" class="fil3" d="M576.94 236.97l-0.1 -1.65 -0.07 -0.62 0 -1.23c0,-0.33 -0.13,-0.57 -0.38,-0.72 -0.26,-0.15 -0.64,-0.23 -1.15,-0.25l-1.39 -0.03 0.11 -1.18 1.18 0.02c0.97,0.01 1.69,0.21 2.17,0.6 0.47,0.38 0.71,0.94 0.71,1.67l0 2.17 0.84 0.11 0 1.06 -1.92 0.05zm-1.92 0.05c-0.58,0 -1.04,-0.14 -1.36,-0.43 -0.33,-0.29 -0.49,-0.69 -0.49,-1.22 0,-0.61 0.22,-1.08 0.65,-1.4 0.44,-0.33 1.05,-0.49 1.85,-0.49 0.31,0 0.59,0.02 0.83,0.05 0.23,0.04 0.46,0.09 0.68,0.16l-0.23 0.97c-0.23,-0.05 -0.44,-0.08 -0.64,-0.09 -0.19,-0.01 -0.4,-0.01 -0.61,-0.01 -0.83,0 -1.24,0.23 -1.24,0.71 0,0.21 0.07,0.38 0.22,0.5 0.14,0.11 0.35,0.17 0.63,0.17 0.32,0 0.59,-0.06 0.81,-0.17 0.22,-0.12 0.38,-0.27 0.49,-0.45 0.11,-0.18 0.16,-0.37 0.16,-0.56l0 -0.45 0.25 1.43 -0.45 0 0.19 -0.17c-0.01,0.32 -0.08,0.59 -0.22,0.81 -0.15,0.21 -0.35,0.37 -0.6,0.48 -0.26,0.11 -0.56,0.16 -0.92,0.16z"/>
     <path id="2" class="fil3" d="M581.69 236.92l0 -7.47 1.29 0 0 7.47 -1.29 0zm-1.82 0l0 -1.13 1.92 0 0 1.13 -1.92 0zm3.01 0l0 -1.13 1.72 0 0 1.13 -1.72 0zm-2.91 -5.62l0 -1.22 1.72 -0.63 0 1.24 -1.72 0.61z"/>
     <polygon id="3" class="fil3" points="585.82,237.91 589.96,228.45 591.27,228.45 587.14,237.91 "/>
     <path id="4" class="fil3" d="M594.79 237.02c-1.73,0 -2.59,-1.26 -2.59,-3.78 0,-2.6 0.86,-3.89 2.59,-3.89 1.73,0 2.6,1.29 2.6,3.89 0,2.52 -0.87,3.78 -2.6,3.78zm0 -2.9c-0.22,0 -0.4,-0.08 -0.54,-0.24 -0.13,-0.16 -0.2,-0.37 -0.2,-0.64 0,-0.27 0.06,-0.48 0.2,-0.65 0.14,-0.16 0.32,-0.24 0.54,-0.24 0.22,0 0.4,0.08 0.53,0.24 0.14,0.17 0.2,0.38 0.2,0.65 0,0.27 -0.07,0.48 -0.2,0.65 -0.14,0.16 -0.31,0.24 -0.53,0.23zm0 1.76c0.86,0 1.29,-0.88 1.29,-2.64 0,-1.84 -0.43,-2.75 -1.29,-2.75 -0.87,0 -1.3,0.91 -1.3,2.75 0,1.76 0.43,2.64 1.3,2.64z"/>
     <path class="fil3" d="M828.3 236.93l0 -5.1c0,-1.93 0.91,-2.89 2.73,-2.89 0.42,0 0.82,0.04 1.21,0.11l-0.13 1.17c-0.23,-0.02 -0.43,-0.04 -0.61,-0.05 -0.17,-0.01 -0.34,-0.02 -0.5,-0.02 -0.94,0 -1.41,0.54 -1.41,1.63l0 5.15 -1.29 0zm-1.72 -3.31l0 -1.09 5.26 0 0 1.09 -5.26 0z"/>
     <path id="1" class="fil3" d="M836.81 236.98l-0.1 -1.65 -0.07 -0.62 0 -1.23c0,-0.32 -0.13,-0.56 -0.39,-0.72 -0.25,-0.15 -0.64,-0.23 -1.14,-0.24l-1.39 -0.04 0.1 -1.17 1.18 0.01c0.98,0.02 1.7,0.22 2.17,0.6 0.47,0.38 0.71,0.94 0.71,1.68l0 2.16 0.84 0.12 0 1.05 -1.91 0.05zm-1.92 0.06c-0.59,0 -1.04,-0.15 -1.37,-0.44 -0.32,-0.28 -0.48,-0.69 -0.48,-1.21 0,-0.61 0.21,-1.08 0.65,-1.41 0.43,-0.32 1.05,-0.49 1.84,-0.49 0.32,0 0.6,0.02 0.83,0.05 0.24,0.04 0.47,0.09 0.69,0.17l-0.24 0.96c-0.22,-0.05 -0.44,-0.08 -0.63,-0.09 -0.2,-0.01 -0.4,-0.01 -0.62,-0.01 -0.82,0 -1.24,0.24 -1.24,0.71 0,0.22 0.08,0.38 0.22,0.5 0.15,0.12 0.36,0.18 0.63,0.18 0.33,0 0.6,-0.06 0.82,-0.18 0.21,-0.12 0.37,-0.27 0.48,-0.45 0.11,-0.18 0.17,-0.36 0.17,-0.55l0 -0.46 0.25 1.43 -0.45 0 0.19 -0.17c-0.01,0.33 -0.09,0.6 -0.23,0.81 -0.14,0.22 -0.34,0.38 -0.59,0.48 -0.26,0.11 -0.57,0.17 -0.92,0.17z"/>
     <path id="2" class="fil3" d="M841.55 236.93l0 -7.46 1.3 0 0 7.46 -1.3 0zm-1.82 0l0 -1.13 1.93 0 0 1.13 -1.93 0zm3.01 0l0 -1.13 1.73 0 0 1.13 -1.73 0zm-2.9 -5.62l0 -1.21 1.71 -0.63 0 1.24 -1.71 0.6z"/>
     <polygon id="3" class="fil3" points="845.69,237.93 849.82,228.47 851.14,228.47 847.01,237.93 "/>
     <path id="4" class="fil3" d="M854.66 237.04c-1.73,0 -2.6,-1.27 -2.6,-3.79 0,-2.59 0.87,-3.89 2.6,-3.89 1.73,0 2.59,1.3 2.59,3.89 0,2.52 -0.86,3.79 -2.59,3.79zm-0.01 -2.9c-0.22,0 -0.4,-0.08 -0.53,-0.24 -0.14,-0.16 -0.2,-0.38 -0.2,-0.65 -0.01,-0.27 0.06,-0.48 0.2,-0.64 0.13,-0.16 0.31,-0.25 0.53,-0.25 0.22,0 0.4,0.08 0.54,0.24 0.13,0.17 0.2,0.38 0.2,0.65 0,0.27 -0.07,0.49 -0.21,0.65 -0.13,0.16 -0.31,0.24 -0.53,0.24zm0.01 1.75c0.85,0.01 1.29,-0.87 1.29,-2.64 0,-1.83 -0.44,-2.75 -1.29,-2.75 -0.87,0 -1.3,0.92 -1.3,2.75 0,1.77 0.43,2.65 1.3,2.64z"/>
     <path class="fil3" d="M116.06 150.19l0 -5.09c0,-1.93 0.91,-2.89 2.72,-2.89 0.42,0 0.82,0.03 1.21,0.1l-0.12 1.18c-0.24,-0.03 -0.44,-0.05 -0.61,-0.06 -0.18,-0.01 -0.35,-0.01 -0.51,-0.01 -0.93,0 -1.4,0.54 -1.4,1.62l0 5.15 -1.29 0zm-1.72 -3.3l0 -1.09 5.25 0 0 1.09 -5.25 0z"/>
     <path id="1" class="fil3" d="M124.56 150.25l-0.09 -1.65 -0.08 -0.62 0 -1.23c0,-0.33 -0.13,-0.57 -0.38,-0.72 -0.26,-0.15 -0.64,-0.24 -1.15,-0.25l-1.38 -0.04 0.1 -1.17 1.18 0.02c0.97,0.01 1.69,0.21 2.17,0.59 0.47,0.39 0.71,0.95 0.71,1.68l0 2.17 0.84 0.11 0 1.05 -1.92 0.06zm-1.91 0.05c-0.59,0 -1.05,-0.14 -1.37,-0.43 -0.33,-0.29 -0.49,-0.69 -0.49,-1.22 0,-0.61 0.22,-1.08 0.65,-1.4 0.44,-0.33 1.05,-0.49 1.85,-0.49 0.31,0 0.59,0.02 0.83,0.05 0.24,0.04 0.46,0.09 0.68,0.16l-0.23 0.97c-0.23,-0.05 -0.44,-0.08 -0.64,-0.09 -0.19,-0.01 -0.4,-0.01 -0.61,-0.01 -0.83,0 -1.24,0.23 -1.24,0.7 0,0.22 0.07,0.39 0.22,0.51 0.14,0.11 0.35,0.17 0.63,0.17 0.32,0 0.59,-0.06 0.81,-0.17 0.22,-0.12 0.38,-0.27 0.49,-0.45 0.11,-0.18 0.16,-0.37 0.16,-0.56l0 -0.45 0.25 1.43 -0.44 0 0.18 -0.17c-0.01,0.32 -0.08,0.59 -0.22,0.81 -0.15,0.21 -0.34,0.37 -0.6,0.48 -0.26,0.11 -0.56,0.16 -0.91,0.16z"/>
     <path id="2" class="fil3" d="M129.31 150.19l0 -7.46 1.29 0 0 7.46 -1.29 0zm-1.82 0l0 -1.13 1.93 0.01 0 1.12 -1.93 0zm3.01 0l0 -1.13 1.73 0.01 0 1.12 -1.73 0zm-2.91 -5.61l0 -1.22 1.72 -0.63 0 1.24 -1.72 0.61z"/>
     <polygon id="3" class="fil3" points="133.45,151.19 137.58,141.73 138.89,141.73 134.76,151.19 "/>
     <path id="4" class="fil3" d="M142.41 150.3c-1.73,0 -2.59,-1.26 -2.59,-3.78 0,-2.6 0.86,-3.89 2.59,-3.89 1.73,0 2.6,1.29 2.6,3.89 0,2.52 -0.87,3.78 -2.6,3.78zm0 -2.9c-0.22,0 -0.4,-0.08 -0.54,-0.24 -0.13,-0.16 -0.2,-0.37 -0.2,-0.64 0,-0.27 0.06,-0.49 0.2,-0.65 0.14,-0.16 0.32,-0.24 0.54,-0.24 0.22,-0.01 0.4,0.07 0.53,0.24 0.14,0.16 0.21,0.38 0.2,0.65 0,0.27 -0.07,0.48 -0.2,0.64 -0.13,0.17 -0.31,0.25 -0.53,0.24zm0 1.76c0.86,0 1.29,-0.88 1.29,-2.64 0,-1.84 -0.43,-2.76 -1.29,-2.75 -0.87,-0.01 -1.3,0.91 -1.3,2.75 0,1.76 0.43,2.64 1.3,2.64z"/>
     <path class="fil3" d="M380.33 150.83l0 -5.1c0,-1.93 0.9,-2.89 2.72,-2.89 0.42,0 0.82,0.03 1.21,0.1l-0.12 1.18c-0.24,-0.03 -0.44,-0.05 -0.61,-0.06 -0.18,-0.01 -0.35,-0.01 -0.51,-0.01 -0.93,0 -1.4,0.54 -1.4,1.63l0 5.15 -1.29 0zm-1.72 -3.31l0 -1.09 5.25 0 0 1.09 -5.25 0z"/>
     <path id="1" class="fil3" d="M388.83 150.88l-0.1 -1.65 -0.07 -0.62 0 -1.23c0,-0.33 -0.13,-0.57 -0.38,-0.72 -0.26,-0.15 -0.64,-0.23 -1.15,-0.25l-1.39 -0.03 0.11 -1.18 1.18 0.02c0.97,0.01 1.69,0.21 2.17,0.6 0.47,0.38 0.71,0.94 0.71,1.68l0 2.16 0.84 0.12 0 1.05 -1.92 0.05zm-1.91 0.05c-0.59,0 -1.05,-0.14 -1.37,-0.43 -0.33,-0.29 -0.49,-0.69 -0.49,-1.22 0,-0.61 0.22,-1.08 0.65,-1.4 0.44,-0.33 1.05,-0.49 1.85,-0.49 0.31,0 0.59,0.02 0.83,0.05 0.23,0.04 0.46,0.09 0.68,0.17l-0.23 0.96c-0.23,-0.05 -0.44,-0.08 -0.64,-0.09 -0.19,-0.01 -0.4,-0.01 -0.61,-0.01 -0.83,0 -1.24,0.23 -1.24,0.71 0,0.21 0.07,0.38 0.22,0.5 0.14,0.12 0.35,0.17 0.63,0.17 0.32,0 0.59,-0.05 0.81,-0.17 0.22,-0.12 0.38,-0.27 0.49,-0.45 0.11,-0.18 0.16,-0.37 0.16,-0.56l0 -0.45 0.25 1.43 -0.44 0 0.18 -0.17c-0.01,0.32 -0.08,0.59 -0.22,0.81 -0.15,0.21 -0.35,0.38 -0.6,0.48 -0.26,0.11 -0.56,0.16 -0.91,0.16z"/>
     <path id="2" class="fil3" d="M393.58 150.83l0 -7.46 1.29 0 0 7.46 -1.29 0zm-1.82 0l0 -1.13 1.92 0 0 1.13 -1.92 0zm3.01 0l0 -1.13 1.73 0 0 1.13 -1.73 0zm-2.91 -5.62l0 -1.22 1.72 -0.62 0 1.23 -1.72 0.61z"/>
     <polygon id="3" class="fil3" points="397.72,151.83 401.85,142.37 403.16,142.37 399.03,151.83 "/>
     <path id="4" class="fil3" d="M406.68 150.93c-1.73,0 -2.59,-1.26 -2.59,-3.78 0,-2.59 0.86,-3.89 2.59,-3.89 1.73,0 2.6,1.3 2.6,3.89 0,2.52 -0.87,3.78 -2.6,3.78zm0 -2.89c-0.22,0 -0.4,-0.08 -0.54,-0.24 -0.13,-0.17 -0.2,-0.38 -0.2,-0.65 0,-0.27 0.06,-0.48 0.2,-0.65 0.14,-0.16 0.32,-0.24 0.54,-0.24 0.22,0 0.4,0.08 0.53,0.24 0.14,0.17 0.21,0.38 0.2,0.65 0,0.27 -0.07,0.48 -0.2,0.65 -0.14,0.16 -0.31,0.24 -0.53,0.24zm0 1.75c0.86,0.01 1.29,-0.88 1.29,-2.64 0,-1.84 -0.43,-2.75 -1.29,-2.75 -0.87,0 -1.3,0.91 -1.3,2.75 0,1.76 0.43,2.65 1.3,2.64z"/>
     <path class="fil3" d="M640.42 150.48l0 -5.1c0,-1.93 0.91,-2.89 2.72,-2.89 0.42,0 0.82,0.03 1.21,0.1l-0.12 1.18c-0.24,-0.03 -0.44,-0.05 -0.61,-0.06 -0.18,0 -0.35,-0.01 -0.51,-0.01 -0.93,0 -1.4,0.54 -1.4,1.63l0 5.15 -1.29 0zm-1.72 -3.31l0 -1.09 5.25 0 0 1.09 -5.25 0z"/>
     <path id="1" class="fil3" d="M648.92 150.53l-0.1 -1.65 -0.07 -0.62 0 -1.23c0,-0.33 -0.13,-0.56 -0.38,-0.72 -0.26,-0.15 -0.64,-0.23 -1.15,-0.25l-1.39 -0.03 0.11 -1.18 1.18 0.02c0.97,0.02 1.69,0.21 2.17,0.6 0.47,0.38 0.71,0.94 0.71,1.68l0 2.16 0.84 0.12 0 1.05 -1.92 0.05zm-1.91 0.05c-0.59,0 -1.05,-0.14 -1.37,-0.43 -0.33,-0.29 -0.49,-0.69 -0.49,-1.22 0,-0.61 0.22,-1.07 0.65,-1.4 0.44,-0.33 1.05,-0.49 1.85,-0.49 0.31,0 0.59,0.02 0.83,0.05 0.24,0.04 0.46,0.09 0.68,0.17l-0.23 0.96c-0.23,-0.05 -0.44,-0.08 -0.64,-0.09 -0.19,-0.01 -0.4,-0.01 -0.61,-0.01 -0.83,0 -1.24,0.23 -1.24,0.71 0,0.22 0.07,0.38 0.22,0.5 0.14,0.12 0.35,0.18 0.63,0.18 0.32,0 0.59,-0.06 0.81,-0.18 0.22,-0.12 0.38,-0.27 0.49,-0.45 0.11,-0.18 0.16,-0.36 0.16,-0.56l0 -0.45 0.25 1.43 -0.44 0 0.18 -0.17c-0.01,0.33 -0.08,0.59 -0.22,0.81 -0.15,0.22 -0.34,0.38 -0.6,0.48 -0.26,0.11 -0.56,0.16 -0.91,0.16z"/>
     <path id="2" class="fil3" d="M653.67 150.48l0 -7.46 1.29 0 0 7.46 -1.29 0zm-1.82 0l0 -1.13 1.93 0 0 1.13 -1.93 0zm3.01 0l0 -1.13 1.73 0 0 1.13 -1.73 0zm-2.91 -5.62l0 -1.21 1.72 -0.63 0 1.24 -1.72 0.6z"/>
     <polygon id="3" class="fil3" points="657.81,151.48 661.94,142.02 663.25,142.02 659.12,151.48 "/>
     <path id="4" class="fil3" d="M666.77 150.58c-1.73,0 -2.59,-1.26 -2.59,-3.78 0,-2.59 0.86,-3.89 2.59,-3.89 1.73,0 2.6,1.3 2.6,3.89 0,2.52 -0.87,3.78 -2.6,3.78zm0 -2.89c-0.22,0 -0.4,-0.08 -0.54,-0.24 -0.13,-0.16 -0.2,-0.38 -0.2,-0.65 0,-0.27 0.06,-0.48 0.2,-0.64 0.14,-0.17 0.32,-0.25 0.54,-0.25 0.22,0 0.4,0.08 0.53,0.24 0.14,0.17 0.21,0.38 0.2,0.65 0,0.27 -0.07,0.49 -0.2,0.65 -0.14,0.16 -0.31,0.24 -0.53,0.24zm0 1.75c0.86,0.01 1.29,-0.87 1.29,-2.64 0,-1.84 -0.43,-2.75 -1.29,-2.75 -0.87,0 -1.3,0.91 -1.3,2.75 0,1.77 0.43,2.65 1.3,2.64z"/>
     <path class="fil3" d="M900.47 150.22l0 -5.1c0,-1.92 0.9,-2.89 2.72,-2.89 0.42,0 0.82,0.04 1.21,0.11l-0.13 1.18c-0.23,-0.03 -0.43,-0.05 -0.6,-0.06 -0.18,-0.01 -0.35,-0.02 -0.51,-0.02 -0.94,0 -1.4,0.54 -1.4,1.63l0 5.15 -1.29 0zm-1.72 -3.31l0 -1.09 5.25 0 0 1.09 -5.25 0z"/>
     <path id="1" class="fil3" d="M908.97 150.27l-0.1 -1.65 -0.07 -0.62 0 -1.23c0,-0.32 -0.13,-0.56 -0.38,-0.71 -0.26,-0.16 -0.64,-0.24 -1.15,-0.25l-1.39 -0.04 0.11 -1.17 1.18 0.01c0.97,0.02 1.69,0.22 2.17,0.6 0.47,0.38 0.71,0.94 0.71,1.68l0 2.16 0.84 0.12 0 1.05 -1.92 0.05zm-1.92 0.06c-0.58,0 -1.04,-0.15 -1.36,-0.44 -0.33,-0.28 -0.49,-0.69 -0.49,-1.21 0,-0.61 0.22,-1.08 0.65,-1.41 0.44,-0.32 1.05,-0.49 1.85,-0.49 0.31,0 0.59,0.02 0.83,0.06 0.23,0.03 0.46,0.09 0.68,0.16l-0.23 0.97c-0.23,-0.06 -0.44,-0.09 -0.64,-0.1 -0.19,-0.01 -0.4,-0.01 -0.61,-0.01 -0.83,0 -1.24,0.24 -1.24,0.71 0,0.22 0.07,0.38 0.22,0.5 0.14,0.12 0.35,0.18 0.63,0.18 0.32,0 0.59,-0.06 0.81,-0.18 0.22,-0.12 0.38,-0.27 0.49,-0.44 0.11,-0.19 0.16,-0.37 0.16,-0.56l0 -0.46 0.25 1.43 -0.45 0 0.19 -0.17c-0.01,0.33 -0.08,0.6 -0.22,0.81 -0.15,0.22 -0.35,0.38 -0.6,0.48 -0.26,0.11 -0.56,0.17 -0.92,0.17z"/>
     <path id="2" class="fil3" d="M913.72 150.22l0 -7.46 1.29 0 0 7.46 -1.29 0zm-1.82 0l0 -1.13 1.92 0.01 0 1.12 -1.92 0zm3.01 0l0 -1.13 1.73 0.01 0 1.12 -1.73 0zm-2.91 -5.62l0 -1.21 1.72 -0.63 0 1.24 -1.72 0.6z"/>
     <polygon id="3" class="fil3" points="917.85,151.22 921.99,141.76 923.3,141.76 919.17,151.22 "/>
     <path id="4" class="fil3" d="M926.82 150.33c-1.73,0 -2.59,-1.27 -2.59,-3.79 0,-2.59 0.86,-3.89 2.59,-3.89 1.73,0 2.6,1.3 2.6,3.89 0,2.52 -0.87,3.79 -2.6,3.79zm0 -2.9c-0.22,0 -0.4,-0.08 -0.54,-0.24 -0.13,-0.16 -0.2,-0.38 -0.2,-0.65 0,-0.26 0.06,-0.48 0.2,-0.64 0.14,-0.16 0.32,-0.25 0.54,-0.25 0.22,0 0.4,0.08 0.53,0.25 0.14,0.16 0.21,0.38 0.2,0.64 0,0.27 -0.07,0.49 -0.2,0.65 -0.14,0.16 -0.31,0.24 -0.53,0.24zm0 1.76c0.86,0 1.29,-0.88 1.29,-2.65 0,-1.83 -0.43,-2.75 -1.29,-2.75 -0.87,0 -1.3,0.92 -1.3,2.75 0,1.77 0.43,2.65 1.3,2.65z"/>
     <line class="fil2 str2" x1="134.64" y1="239.58" x2="180.93" y2= "239.45" />
     <line class="fil2 str3" x1="134.64" y1="225.94" x2="166.51" y2= "226.19" />
     <polyline class="fil2 str2" points="398.12,239.41 479.89,239.41 480.71,61.49 "/>
     <polyline class="fil2 str3" points="398.12,225.95 467.4,225.95 467.4,61.49 "/>
     <polyline class="fil2 str2" points="598.63,239.56 508.34,239.56 507.89,61.49 "/>
     <polyline class="fil2 str3" points="598.63,225.91 521.41,225.91 521.27,61.49 "/>
     <polyline class="fil2 str2" points="375.33,149.83 375.33,139.59 453.18,139.69 453.28,61.49 "/>
     <polyline class="fil2 str2" points="621.74,150.01 621.74,139.12 534.29,139.03 534.29,61.49 "/>
     <polyline class="fil2 str3" points="361.88,149.83 361.69,125.95 440.5,125.95 440.3,61.49 "/>
     <polyline class="fil2 str3" points="635.19,150.01 635.29,125.77 547.65,125.77 547.42,61.49 "/>
     <polyline class="fil2 str2" points="180.93,239.45 180.83,112.22 426.85,111.84 426.94,61.49 "/>
     <polyline class="fil2 str3" points="166.51,226.19 166.61,98.38 413.2,98.38 413.06,61.5 "/>
     <polyline class="fil2 str2" points="111.34,150.18 111.64,83.97 400.52,83.97 400.52,61.49 "/>
     <polyline class="fil2 str3" points="97.89,150.18 98.38,68.98 387.06,68.98 387.14,61.49 "/>
     <polyline class="fil2 str3" points="858.2,226.06 826.95,225.82 827.15,98.63 575.28,98.63 575.19,61.49 "/>
     <polyline class="fil2 str2" points="858.29,239.32 812.46,239.27 813.81,111.26 561.62,110.5 561.71,61.49 "/>
     <polyline class="fil2 str2" points="881.92,150.28 881.79,83.78 588.88,83.78 588.92,61.49 "/>
     <polyline class="fil2 str3" points="895.37,150.28 895.44,69.56 602.14,69.75 602.14,61.49 "/>
     <ellipse class="fil2" cx="489.48" cy="1.15" rx="1.39" ry="1.15"/>
    </g>
    <ellipse class="fil2" cx="499.97" cy="426.74" rx="2.4" ry="1.92"/>
   </g>
   <ellipse class="fil2" cx="1.37" cy="353.86" rx="1.37" ry="1.35"/>
   <ellipse class="fil2" cx="996.6" cy="398" rx="1.91" ry="1.7"/>
  </g>
 </g>
</svg>
