<?xml version="1.0" encoding="UTF-8"?>
<!DOCTYPE svg PUBLIC "-//W3C//DTD SVG 1.1//EN" "http://www.w3.org/Graphics/SVG/1.1/DTD/svg11.dtd">
<!-- Creator: CorelDRAW 2020 (64-Bit) -->
<svg xmlns="http://www.w3.org/2000/svg" xml:space="preserve" width="105.913mm" height="44.8719mm" version="1.1" style="shape-rendering:geometricPrecision; text-rendering:geometricPrecision; image-rendering:optimizeQuality; fill-rule:evenodd; clip-rule:evenodd"
viewBox="0 0 10068.65 4265.75"
 xmlns:xlink="http://www.w3.org/1999/xlink"
 xmlns:xodm="http://www.corel.com/coreldraw/odm/2003">
 <defs>
  <style type="text/css">
   <![CDATA[
    .str4 {stroke:#373435;stroke-width:10.06;stroke-miterlimit:22.9256}
    .str0 {stroke:#FEFEFE;stroke-width:67.08;stroke-miterlimit:22.9256}
    .str6 {stroke:#373435;stroke-width:67.08;stroke-miterlimit:22.9256}
    .str7 {stroke:#373435;stroke-width:19.01;stroke-miterlimit:22.9256}
    .str2 {stroke:#31383E;stroke-width:19.01;stroke-miterlimit:22.9256}
    .str3 {stroke:#3F4749;stroke-width:19.01;stroke-miterlimit:22.9256}
    .str5 {stroke:#4CDBC4;stroke-width:19.01;stroke-miterlimit:22.9256}
    .str1 {stroke:#B5F1F4;stroke-width:19.01;stroke-miterlimit:22.9256}
    .fil0 {fill:none}
    .fil5 {fill:#373435}
    .fil8 {fill:#373435}
    .fil2 {fill:#31383E}
    .fil3 {fill:#3F4749}
    .fil6 {fill:#4CDBC4}
    .fil1 {fill:#B5F1F4}
    .fil7 {fill:#FEFEFE;fill-rule:nonzero}
    .fil4 {fill:#373435;fill-rule:nonzero}
   ]]>
  </style>
 </defs>
 <g id="Capa_x0020_1">
  <metadata id="CorelCorpID_0Corel-Layer"/>
  <line class="fil0 str0" x1="10003.62" y1="3262.23" x2="10001.97" y2= "2292.72" />
  <circle class="fil1 str1" cx="10001.97" cy="2292.72" r="57.18"/>
  <rect class="fil2 str2" x="9.51" y="1009.8" width="9625.35" height="2244.3"/>
  <rect class="fil3 str3" x="217.12" y="1219.42" width="9204.48" height="1821.9"/>
  <path class="fil4 str4" d="M423.86 3796.65l0 -158.85c0,-60.02 28.34,-90.04 84.96,-90.04 13.02,0 25.54,1.06 37.67,3.24l-3.92 36.71c-7.21,-0.89 -13.53,-1.5 -19,-1.84 -5.48,-0.28 -10.68,-0.45 -15.7,-0.45 -29.18,0 -43.71,16.88 -43.71,50.76l0 160.47 -40.3 0zm-53.54 -103.01l0 -34.04 163.76 0 0 34.04 -163.76 0z"/>
  <path id="1" class="fil4 str4" d="M688.95 3798.27l-3.07 -51.43 -2.29 -19.28 0 -38.34c0,-10.17 -3.97,-17.61 -11.96,-22.36 -7.99,-4.75 -19.91,-7.32 -35.72,-7.77l-43.21 -1.12 3.24 -36.55 36.72 0.5c30.34,0.45 52.88,6.65 67.63,18.61 14.7,11.9 22.07,29.34 22.07,52.31l0 67.46 26.22 3.58 0 32.75 -59.64 1.63zm-59.75 1.67c-18.33,0 -32.53,-4.47 -42.65,-13.47 -10.11,-8.95 -15.14,-21.58 -15.14,-37.95 0,-19 6.76,-33.6 20.29,-43.77 13.53,-10.11 32.69,-15.2 57.51,-15.2 9.78,0 18.44,0.56 25.82,1.62 7.43,1.12 14.54,2.79 21.29,5.09l-7.21 30.13c-7.1,-1.62 -13.7,-2.57 -19.78,-2.84 -6.09,-0.29 -12.52,-0.4 -19.17,-0.4 -25.77,0 -38.62,7.33 -38.62,22.08 0,6.76 2.23,11.96 6.77,15.65 4.53,3.63 11.12,5.48 19.73,5.48 10.06,0 18.44,-1.84 25.27,-5.48 6.76,-3.69 11.79,-8.33 15.2,-13.92 3.4,-5.65 5.09,-11.46 5.09,-17.43l0 -14.09 7.82 44.55 -13.92 0 5.76 -5.26c-0.23,10.07 -2.52,18.45 -6.99,25.15 -4.42,6.71 -10.63,11.74 -18.56,15.04 -7.99,3.36 -17.5,5.03 -28.51,5.03z"/>
  <path class="fil4 str4" d="M414.11 324.63l0 -158.85c0,-60.02 28.34,-90.04 84.96,-90.04 13.02,0 25.54,1.06 37.67,3.24l-3.92 36.71c-7.21,-0.89 -13.53,-1.5 -19,-1.84 -5.48,-0.28 -10.68,-0.45 -15.7,-0.45 -29.18,0 -43.71,16.88 -43.71,50.76l0 160.47 -40.3 0zm-53.54 -103.01l0 -34.04 163.76 0 0 34.04 -163.76 0z"/>
  <path id="1" class="fil4 str4" d="M679.21 326.25l-3.07 -51.43 -2.29 -19.28 0 -38.34c0,-10.17 -3.97,-17.61 -11.96,-22.36 -7.99,-4.75 -19.91,-7.32 -35.72,-7.77l-43.21 -1.12 3.24 -36.55 36.72 0.5c30.34,0.45 52.88,6.65 67.63,18.61 14.7,11.9 22.07,29.34 22.07,52.31l0 67.46 26.22 3.58 0 32.75 -59.64 1.63zm-59.75 1.67c-18.33,0 -32.53,-4.47 -42.65,-13.47 -10.11,-8.95 -15.14,-21.58 -15.14,-37.95 0,-19 6.76,-33.6 20.29,-43.77 13.53,-10.11 32.69,-15.2 57.51,-15.2 9.78,0 18.44,0.56 25.82,1.62 7.43,1.12 14.54,2.79 21.29,5.09l-7.21 30.13c-7.1,-1.62 -13.7,-2.57 -19.78,-2.84 -6.09,-0.29 -12.52,-0.4 -19.17,-0.4 -25.77,0 -38.62,7.33 -38.62,22.08 0,6.76 2.23,11.96 6.77,15.65 4.53,3.63 11.12,5.48 19.73,5.48 10.06,0 18.44,-1.84 25.27,-5.48 6.76,-3.69 11.79,-8.33 15.2,-13.92 3.4,-5.65 5.09,-11.46 5.09,-17.43l0 -14.09 7.82 44.55 -13.92 0 5.76 -5.26c-0.23,10.07 -2.52,18.45 -6.99,25.15 -4.42,6.71 -10.63,11.74 -18.56,15.04 -7.99,3.36 -17.5,5.03 -28.51,5.03z"/>
  <path class="fil4 str4" d="M2781.5 322.72l0 -158.85c0,-60.02 28.34,-90.04 84.96,-90.04 13.02,0 25.54,1.06 37.67,3.24l-3.92 36.71c-7.21,-0.89 -13.53,-1.5 -19,-1.84 -5.48,-0.28 -10.68,-0.45 -15.7,-0.45 -29.18,0 -43.71,16.88 -43.71,50.76l0 160.47 -40.3 0zm-53.54 -103.01l0 -34.04 163.76 0 0 34.04 -163.76 0z"/>
  <path id="1" class="fil4 str4" d="M3046.59 324.34l-3.07 -51.43 -2.29 -19.28 0 -38.34c0,-10.17 -3.97,-17.61 -11.96,-22.36 -7.99,-4.75 -19.91,-7.32 -35.72,-7.77l-43.21 -1.12 3.24 -36.55 36.72 0.5c30.34,0.45 52.88,6.65 67.63,18.61 14.7,11.9 22.07,29.34 22.07,52.31l0 67.46 26.22 3.58 0 32.75 -59.64 1.63zm-59.75 1.67c-18.33,0 -32.53,-4.47 -42.65,-13.47 -10.11,-8.95 -15.14,-21.58 -15.14,-37.95 0,-19 6.76,-33.6 20.29,-43.77 13.53,-10.11 32.69,-15.2 57.51,-15.2 9.78,0 18.44,0.56 25.82,1.62 7.43,1.12 14.54,2.79 21.29,5.09l-7.21 30.13c-7.1,-1.62 -13.7,-2.57 -19.78,-2.84 -6.09,-0.29 -12.52,-0.4 -19.17,-0.4 -25.77,0 -38.62,7.33 -38.62,22.08 0,6.76 2.23,11.96 6.77,15.65 4.53,3.63 11.12,5.48 19.73,5.48 10.06,0 18.44,-1.84 25.27,-5.48 6.76,-3.69 11.79,-8.33 15.2,-13.92 3.4,-5.65 5.09,-11.46 5.09,-17.43l0 -14.09 7.82 44.55 -13.92 0 5.76 -5.26c-0.23,10.07 -2.52,18.45 -6.99,25.15 -4.42,6.71 -10.63,11.74 -18.56,15.04 -7.99,3.36 -17.5,5.03 -28.51,5.03z"/>
  <path class="fil4 str4" d="M5101.35 320.81l0 -158.85c0,-60.02 28.34,-90.04 84.96,-90.04 13.02,0 25.54,1.06 37.67,3.24l-3.92 36.71c-7.21,-0.89 -13.53,-1.5 -19,-1.84 -5.48,-0.28 -10.68,-0.45 -15.7,-0.45 -29.18,0 -43.71,16.88 -43.71,50.76l0 160.47 -40.3 0zm-53.54 -103.01l0 -34.04 163.76 0 0 34.04 -163.76 0z"/>
  <path id="1" class="fil4 str4" d="M5366.45 322.43l-3.07 -51.43 -2.29 -19.28 0 -38.34c0,-10.17 -3.97,-17.61 -11.96,-22.36 -7.99,-4.75 -19.91,-7.32 -35.72,-7.77l-43.21 -1.12 3.24 -36.55 36.72 0.5c30.34,0.45 52.88,6.65 67.63,18.61 14.7,11.9 22.07,29.34 22.07,52.31l0 67.46 26.22 3.58 0 32.75 -59.64 1.63zm-59.75 1.67c-18.33,0 -32.53,-4.47 -42.65,-13.47 -10.11,-8.95 -15.14,-21.58 -15.14,-37.95 0,-19 6.76,-33.6 20.29,-43.77 13.53,-10.11 32.69,-15.2 57.51,-15.2 9.78,0 18.44,0.56 25.82,1.62 7.43,1.12 14.54,2.79 21.29,5.09l-7.21 30.13c-7.1,-1.62 -13.7,-2.57 -19.78,-2.84 -6.09,-0.29 -12.52,-0.4 -19.17,-0.4 -25.77,0 -38.62,7.33 -38.62,22.08 0,6.76 2.23,11.96 6.77,15.65 4.53,3.63 11.12,5.48 19.73,5.48 10.06,0 18.44,-1.84 25.27,-5.48 6.76,-3.69 11.79,-8.33 15.2,-13.92 3.4,-5.65 5.09,-11.46 5.09,-17.43l0 -14.09 7.82 44.55 -13.92 0 5.76 -5.26c-0.23,10.07 -2.52,18.45 -6.99,25.15 -4.42,6.71 -10.63,11.74 -18.56,15.04 -7.99,3.36 -17.5,5.03 -28.51,5.03z"/>
  <path class="fil4 str4" d="M7449.42 313.88l0 -158.85c0,-60.02 28.34,-90.04 84.96,-90.04 13.02,0 25.54,1.06 37.67,3.24l-3.92 36.71c-7.21,-0.89 -13.53,-1.5 -19,-1.84 -5.48,-0.28 -10.68,-0.45 -15.7,-0.45 -29.18,0 -43.71,16.88 -43.71,50.76l0 160.47 -40.3 0zm-53.54 -103.01l0 -34.04 163.76 0 0 34.04 -163.76 0z"/>
  <path id="1" class="fil4 str4" d="M7714.52 315.5l-3.07 -51.43 -2.29 -19.28 0 -38.34c0,-10.17 -3.97,-17.61 -11.96,-22.36 -7.99,-4.75 -19.91,-7.32 -35.72,-7.77l-43.21 -1.12 3.24 -36.55 36.72 0.5c30.34,0.45 52.88,6.65 67.63,18.61 14.7,11.9 22.07,29.34 22.07,52.31l0 67.46 26.22 3.58 0 32.75 -59.64 1.63zm-59.75 1.67c-18.33,0 -32.53,-4.47 -42.65,-13.47 -10.11,-8.95 -15.14,-21.58 -15.14,-37.95 0,-19 6.76,-33.6 20.29,-43.77 13.53,-10.11 32.69,-15.2 57.51,-15.2 9.78,0 18.44,0.56 25.82,1.62 7.43,1.12 14.54,2.79 21.29,5.09l-7.21 30.13c-7.1,-1.62 -13.7,-2.57 -19.78,-2.84 -6.09,-0.29 -12.52,-0.4 -19.17,-0.4 -25.77,0 -38.62,7.33 -38.62,22.08 0,6.76 2.23,11.96 6.77,15.65 4.53,3.63 11.12,5.48 19.73,5.48 10.06,0 18.44,-1.84 25.27,-5.48 6.76,-3.69 11.79,-8.33 15.2,-13.92 3.4,-5.65 5.09,-11.46 5.09,-17.43l0 -14.09 7.82 44.55 -13.92 0 5.76 -5.26c-0.23,10.07 -2.52,18.45 -6.99,25.15 -4.42,6.71 -10.63,11.74 -18.56,15.04 -7.99,3.36 -17.5,5.03 -28.51,5.03z"/>
  <path class="fil4 str4" d="M1745.32 316.79l0 -158.85c0,-60.02 28.34,-90.04 84.96,-90.04 13.02,0 25.54,1.06 37.67,3.24l-3.92 36.71c-7.21,-0.89 -13.53,-1.5 -19,-1.84 -5.48,-0.28 -10.68,-0.45 -15.7,-0.45 -29.18,0 -43.71,16.88 -43.71,50.76l0 160.47 -40.3 0zm-53.54 -103.01l0 -34.04 163.76 0 0 34.04 -163.76 0z"/>
  <path id="1" class="fil4 str4" d="M2010.41 318.42l-3.07 -51.43 -2.29 -19.28 0 -38.34c0,-10.17 -3.97,-17.61 -11.96,-22.36 -7.99,-4.75 -19.91,-7.32 -35.72,-7.77l-43.21 -1.12 3.24 -36.55 36.72 0.5c30.34,0.45 52.88,6.65 67.63,18.61 14.7,11.9 22.07,29.34 22.07,52.31l0 67.46 26.22 3.58 0 32.75 -59.64 1.63zm-59.75 1.67c-18.33,0 -32.53,-4.47 -42.65,-13.47 -10.11,-8.95 -15.14,-21.58 -15.14,-37.95 0,-19 6.76,-33.6 20.29,-43.77 13.53,-10.11 32.69,-15.2 57.51,-15.2 9.78,0 18.44,0.56 25.82,1.62 7.43,1.12 14.54,2.79 21.29,5.09l-7.21 30.13c-7.1,-1.62 -13.7,-2.57 -19.78,-2.84 -6.09,-0.29 -12.52,-0.4 -19.17,-0.4 -25.77,0 -38.62,7.33 -38.62,22.08 0,6.76 2.23,11.96 6.77,15.65 4.53,3.63 11.12,5.48 19.73,5.48 10.06,0 18.44,-1.84 25.27,-5.48 6.76,-3.69 11.79,-8.33 15.2,-13.92 3.4,-5.65 5.09,-11.46 5.09,-17.43l0 -14.09 7.82 44.55 -13.92 0 5.76 -5.26c-0.23,10.07 -2.52,18.45 -6.99,25.15 -4.42,6.71 -10.63,11.74 -18.56,15.04 -7.99,3.36 -17.5,5.03 -28.51,5.03z"/>
  <path class="fil4 str4" d="M4094.22 319.37l0 -158.85c0,-60.02 28.34,-90.04 84.96,-90.04 13.02,0 25.54,1.06 37.67,3.24l-3.92 36.71c-7.21,-0.89 -13.53,-1.5 -19,-1.84 -5.48,-0.28 -10.68,-0.45 -15.7,-0.45 -29.18,0 -43.71,16.88 -43.71,50.76l0 160.47 -40.3 0zm-53.54 -103.01l0 -34.04 163.76 0 0 34.04 -163.76 0z"/>
  <path id="1" class="fil4 str4" d="M4359.32 321l-3.07 -51.43 -2.29 -19.28 0 -38.34c0,-10.17 -3.97,-17.61 -11.96,-22.36 -7.99,-4.75 -19.91,-7.32 -35.72,-7.77l-43.21 -1.12 3.24 -36.55 36.72 0.5c30.34,0.45 52.88,6.65 67.63,18.61 14.7,11.9 22.07,29.34 22.07,52.31l0 67.46 26.22 3.58 0 32.75 -59.64 1.63zm-59.75 1.67c-18.33,0 -32.53,-4.47 -42.65,-13.47 -10.11,-8.95 -15.14,-21.58 -15.14,-37.95 0,-19 6.76,-33.6 20.29,-43.77 13.53,-10.11 32.69,-15.2 57.51,-15.2 9.78,0 18.44,0.56 25.82,1.62 7.43,1.12 14.54,2.79 21.29,5.09l-7.21 30.13c-7.1,-1.62 -13.7,-2.57 -19.78,-2.84 -6.09,-0.29 -12.52,-0.4 -19.17,-0.4 -25.77,0 -38.62,7.33 -38.62,22.08 0,6.76 2.23,11.96 6.77,15.65 4.53,3.63 11.12,5.48 19.73,5.48 10.06,0 18.44,-1.84 25.27,-5.48 6.76,-3.69 11.79,-8.33 15.2,-13.92 3.4,-5.65 5.09,-11.46 5.09,-17.43l0 -14.09 7.82 44.55 -13.92 0 5.76 -5.26c-0.23,10.07 -2.52,18.45 -6.99,25.15 -4.42,6.71 -10.63,11.74 -18.56,15.04 -7.99,3.36 -17.5,5.03 -28.51,5.03z"/>
  <path class="fil4 str4" d="M6443.12 321.95l0 -158.85c0,-60.02 28.34,-90.04 84.96,-90.04 13.02,0 25.54,1.06 37.67,3.24l-3.92 36.71c-7.21,-0.89 -13.53,-1.5 -19,-1.84 -5.48,-0.28 -10.68,-0.45 -15.7,-0.45 -29.18,0 -43.71,16.88 -43.71,50.76l0 160.47 -40.3 0zm-53.54 -103.01l0 -34.04 163.76 0 0 34.04 -163.76 0z"/>
  <path id="1" class="fil4 str4" d="M6708.22 323.57l-3.07 -51.43 -2.29 -19.28 0 -38.34c0,-10.17 -3.97,-17.61 -11.96,-22.36 -7.99,-4.75 -19.91,-7.32 -35.72,-7.77l-43.21 -1.12 3.24 -36.55 36.72 0.5c30.34,0.45 52.88,6.65 67.63,18.61 14.7,11.9 22.07,29.34 22.07,52.31l0 67.46 26.22 3.58 0 32.75 -59.64 1.63zm-59.75 1.67c-18.33,0 -32.53,-4.47 -42.65,-13.47 -10.11,-8.95 -15.14,-21.58 -15.14,-37.95 0,-19 6.76,-33.6 20.29,-43.77 13.53,-10.11 32.69,-15.2 57.51,-15.2 9.78,0 18.44,0.56 25.82,1.62 7.43,1.12 14.54,2.79 21.29,5.09l-7.21 30.13c-7.1,-1.62 -13.7,-2.57 -19.78,-2.84 -6.09,-0.29 -12.52,-0.4 -19.17,-0.4 -25.77,0 -38.62,7.33 -38.62,22.08 0,6.76 2.23,11.96 6.77,15.65 4.53,3.63 11.12,5.48 19.73,5.48 10.06,0 18.44,-1.84 25.27,-5.48 6.76,-3.69 11.79,-8.33 15.2,-13.92 3.4,-5.65 5.09,-11.46 5.09,-17.43l0 -14.09 7.82 44.55 -13.92 0 5.76 -5.26c-0.23,10.07 -2.52,18.45 -6.99,25.15 -4.42,6.71 -10.63,11.74 -18.56,15.04 -7.99,3.36 -17.5,5.03 -28.51,5.03z"/>
  <path class="fil4 str4" d="M8792.03 324.52l0 -158.85c0,-60.02 28.34,-90.04 84.96,-90.04 13.02,0 25.54,1.06 37.67,3.24l-3.92 36.71c-7.21,-0.89 -13.53,-1.5 -19,-1.84 -5.48,-0.28 -10.68,-0.45 -15.7,-0.45 -29.18,0 -43.71,16.88 -43.71,50.76l0 160.47 -40.3 0zm-53.54 -103.01l0 -34.04 163.76 0 0 34.04 -163.76 0z"/>
  <path id="1" class="fil4 str4" d="M9057.12 326.15l-3.07 -51.43 -2.29 -19.28 0 -38.34c0,-10.17 -3.97,-17.61 -11.96,-22.36 -7.99,-4.75 -19.91,-7.32 -35.72,-7.77l-43.21 -1.12 3.24 -36.55 36.72 0.5c30.34,0.45 52.88,6.65 67.63,18.61 14.7,11.9 22.07,29.34 22.07,52.31l0 67.46 26.22 3.58 0 32.75 -59.64 1.63zm-59.75 1.67c-18.33,0 -32.53,-4.47 -42.65,-13.47 -10.11,-8.95 -15.14,-21.58 -15.14,-37.95 0,-19 6.76,-33.6 20.29,-43.77 13.53,-10.11 32.69,-15.2 57.51,-15.2 9.78,0 18.44,0.56 25.82,1.62 7.43,1.12 14.54,2.79 21.29,5.09l-7.21 30.13c-7.1,-1.62 -13.7,-2.57 -19.78,-2.84 -6.09,-0.29 -12.52,-0.4 -19.17,-0.4 -25.77,0 -38.62,7.33 -38.62,22.08 0,6.76 2.23,11.96 6.77,15.65 4.53,3.63 11.12,5.48 19.73,5.48 10.06,0 18.44,-1.84 25.27,-5.48 6.76,-3.69 11.79,-8.33 15.2,-13.92 3.4,-5.65 5.09,-11.46 5.09,-17.43l0 -14.09 7.82 44.55 -13.92 0 5.76 -5.26c-0.23,10.07 -2.52,18.45 -6.99,25.15 -4.42,6.71 -10.63,11.74 -18.56,15.04 -7.99,3.36 -17.5,5.03 -28.51,5.03z"/>
  <path class="fil4 str4" d="M2772.23 3799.22l0 -158.85c0,-60.02 28.34,-90.04 84.96,-90.04 13.02,0 25.54,1.06 37.67,3.24l-3.92 36.71c-7.21,-0.89 -13.53,-1.5 -19,-1.84 -5.48,-0.28 -10.68,-0.45 -15.7,-0.45 -29.18,0 -43.71,16.88 -43.71,50.76l0 160.47 -40.3 0zm-53.54 -103.01l0 -34.04 163.76 0 0 34.04 -163.76 0z"/>
  <path id="1" class="fil4 str4" d="M3037.33 3800.85l-3.07 -51.43 -2.29 -19.28 0 -38.34c0,-10.17 -3.97,-17.61 -11.96,-22.36 -7.99,-4.75 -19.91,-7.32 -35.72,-7.77l-43.21 -1.12 3.24 -36.55 36.72 0.5c30.34,0.45 52.88,6.65 67.63,18.61 14.7,11.9 22.07,29.34 22.07,52.31l0 67.46 26.22 3.58 0 32.75 -59.64 1.63zm-59.75 1.67c-18.33,0 -32.53,-4.47 -42.65,-13.47 -10.11,-8.95 -15.14,-21.58 -15.14,-37.95 0,-19 6.76,-33.6 20.29,-43.77 13.53,-10.11 32.69,-15.2 57.51,-15.2 9.78,0 18.44,0.56 25.82,1.62 7.43,1.12 14.54,2.79 21.29,5.09l-7.21 30.13c-7.1,-1.62 -13.7,-2.57 -19.78,-2.84 -6.09,-0.29 -12.52,-0.4 -19.17,-0.4 -25.77,0 -38.62,7.33 -38.62,22.08 0,6.76 2.23,11.96 6.77,15.65 4.53,3.63 11.12,5.48 19.73,5.48 10.06,0 18.44,-1.84 25.27,-5.48 6.76,-3.69 11.79,-8.33 15.2,-13.92 3.4,-5.65 5.09,-11.46 5.09,-17.43l0 -14.09 7.82 44.55 -13.92 0 5.76 -5.26c-0.23,10.07 -2.52,18.45 -6.99,25.15 -4.42,6.71 -10.63,11.74 -18.56,15.04 -7.99,3.36 -17.5,5.03 -28.51,5.03z"/>
  <path class="fil4 str4" d="M5111.09 3801.8l0 -158.85c0,-60.02 28.34,-90.04 84.96,-90.04 13.02,0 25.54,1.06 37.67,3.24l-3.92 36.71c-7.21,-0.89 -13.53,-1.5 -19,-1.84 -5.48,-0.28 -10.68,-0.45 -15.7,-0.45 -29.18,0 -43.71,16.88 -43.71,50.76l0 160.47 -40.3 0zm-53.54 -103.01l0 -34.04 163.76 0 0 34.04 -163.76 0z"/>
  <path id="1" class="fil4 str4" d="M5376.19 3803.43l-3.07 -51.43 -2.29 -19.28 0 -38.34c0,-10.17 -3.97,-17.61 -11.96,-22.36 -7.99,-4.75 -19.91,-7.32 -35.72,-7.77l-43.21 -1.12 3.24 -36.55 36.72 0.5c30.34,0.45 52.88,6.65 67.63,18.61 14.7,11.9 22.07,29.34 22.07,52.31l0 67.46 26.22 3.58 0 32.75 -59.64 1.63zm-59.75 1.67c-18.33,0 -32.53,-4.47 -42.65,-13.47 -10.11,-8.95 -15.14,-21.58 -15.14,-37.95 0,-19 6.76,-33.6 20.29,-43.77 13.53,-10.11 32.69,-15.2 57.51,-15.2 9.78,0 18.44,0.56 25.82,1.62 7.43,1.12 14.54,2.79 21.29,5.09l-7.21 30.13c-7.1,-1.62 -13.7,-2.57 -19.78,-2.84 -6.09,-0.29 -12.52,-0.4 -19.17,-0.4 -25.77,0 -38.62,7.33 -38.62,22.08 0,6.76 2.23,11.96 6.77,15.65 4.53,3.63 11.12,5.48 19.73,5.48 10.06,0 18.44,-1.84 25.27,-5.48 6.76,-3.69 11.79,-8.33 15.2,-13.92 3.4,-5.65 5.09,-11.46 5.09,-17.43l0 -14.09 7.82 44.55 -13.92 0 5.76 -5.26c-0.23,10.07 -2.52,18.45 -6.99,25.15 -4.42,6.71 -10.63,11.74 -18.56,15.04 -7.99,3.36 -17.5,5.03 -28.51,5.03z"/>
  <path class="fil4 str4" d="M7449.96 3804.38l0 -158.85c0,-60.02 28.34,-90.04 84.96,-90.04 13.02,0 25.54,1.06 37.67,3.24l-3.92 36.71c-7.21,-0.89 -13.53,-1.5 -19,-1.84 -5.48,-0.28 -10.68,-0.45 -15.7,-0.45 -29.18,0 -43.71,16.88 -43.71,50.76l0 160.47 -40.3 0zm-53.54 -103.01l0 -34.04 163.76 0 0 34.04 -163.76 0z"/>
  <path id="1" class="fil4 str4" d="M7715.05 3806l-3.07 -51.43 -2.29 -19.28 0 -38.34c0,-10.17 -3.97,-17.61 -11.96,-22.36 -7.99,-4.75 -19.91,-7.32 -35.72,-7.77l-43.21 -1.12 3.24 -36.55 36.72 0.5c30.34,0.45 52.88,6.65 67.63,18.61 14.7,11.9 22.07,29.34 22.07,52.31l0 67.46 26.22 3.58 0 32.75 -59.64 1.63zm-59.75 1.67c-18.33,0 -32.53,-4.47 -42.65,-13.47 -10.11,-8.95 -15.14,-21.58 -15.14,-37.95 0,-19 6.76,-33.6 20.29,-43.77 13.53,-10.11 32.69,-15.2 57.51,-15.2 9.78,0 18.44,0.56 25.82,1.62 7.43,1.12 14.54,2.79 21.29,5.09l-7.21 30.13c-7.1,-1.62 -13.7,-2.57 -19.78,-2.84 -6.09,-0.29 -12.52,-0.4 -19.17,-0.4 -25.77,0 -38.62,7.33 -38.62,22.08 0,6.76 2.23,11.96 6.77,15.65 4.53,3.63 11.12,5.48 19.73,5.48 10.06,0 18.44,-1.84 25.27,-5.48 6.76,-3.69 11.79,-8.33 15.2,-13.92 3.4,-5.65 5.09,-11.46 5.09,-17.43l0 -14.09 7.82 44.55 -13.92 0 5.76 -5.26c-0.23,10.07 -2.52,18.45 -6.99,25.15 -4.42,6.71 -10.63,11.74 -18.56,15.04 -7.99,3.36 -17.5,5.03 -28.51,5.03z"/>
  <path class="fil4 str4" d="M1756.95 3802.6l0 -158.85c0,-60.02 28.34,-90.04 84.96,-90.04 13.02,0 25.54,1.06 37.67,3.24l-3.92 36.71c-7.21,-0.89 -13.53,-1.5 -19,-1.84 -5.48,-0.28 -10.68,-0.45 -15.7,-0.45 -29.18,0 -43.71,16.88 -43.71,50.76l0 160.47 -40.3 0zm-53.54 -103.01l0 -34.04 163.76 0 0 34.04 -163.76 0z"/>
  <path id="1" class="fil4 str4" d="M2022.05 3804.22l-3.07 -51.43 -2.29 -19.28 0 -38.34c0,-10.17 -3.97,-17.61 -11.96,-22.36 -7.99,-4.75 -19.91,-7.32 -35.72,-7.77l-43.21 -1.12 3.24 -36.55 36.72 0.5c30.34,0.45 52.88,6.65 67.63,18.61 14.7,11.9 22.07,29.34 22.07,52.31l0 67.46 26.22 3.58 0 32.75 -59.64 1.63zm-59.75 1.67c-18.33,0 -32.53,-4.47 -42.65,-13.47 -10.11,-8.95 -15.14,-21.58 -15.14,-37.95 0,-19 6.76,-33.6 20.29,-43.77 13.53,-10.11 32.69,-15.2 57.51,-15.2 9.78,0 18.44,0.56 25.82,1.62 7.43,1.12 14.54,2.79 21.29,5.09l-7.21 30.13c-7.1,-1.62 -13.7,-2.57 -19.78,-2.84 -6.09,-0.29 -12.52,-0.4 -19.17,-0.4 -25.77,0 -38.62,7.33 -38.62,22.08 0,6.76 2.23,11.96 6.77,15.65 4.53,3.63 11.12,5.48 19.73,5.48 10.06,0 18.44,-1.84 25.27,-5.48 6.76,-3.69 11.79,-8.33 15.2,-13.92 3.4,-5.65 5.09,-11.46 5.09,-17.43l0 -14.09 7.82 44.55 -13.92 0 5.76 -5.26c-0.23,10.07 -2.52,18.45 -6.99,25.15 -4.42,6.71 -10.63,11.74 -18.56,15.04 -7.99,3.36 -17.5,5.03 -28.51,5.03z"/>
  <path class="fil4 str4" d="M4117.61 3806.3l0 -158.85c0,-60.02 28.34,-90.04 84.96,-90.04 13.02,0 25.54,1.06 37.67,3.24l-3.92 36.71c-7.21,-0.89 -13.53,-1.5 -19,-1.84 -5.48,-0.28 -10.68,-0.45 -15.7,-0.45 -29.18,0 -43.71,16.88 -43.71,50.76l0 160.47 -40.3 0zm-53.54 -103.01l0 -34.04 163.76 0 0 34.04 -163.76 0z"/>
  <path id="1" class="fil4 str4" d="M4382.7 3807.92l-3.07 -51.43 -2.29 -19.28 0 -38.34c0,-10.17 -3.97,-17.61 -11.96,-22.36 -7.99,-4.75 -19.91,-7.32 -35.72,-7.77l-43.21 -1.12 3.24 -36.55 36.72 0.5c30.34,0.45 52.88,6.65 67.63,18.61 14.7,11.9 22.07,29.34 22.07,52.31l0 67.46 26.22 3.58 0 32.75 -59.64 1.63zm-59.75 1.67c-18.33,0 -32.53,-4.47 -42.65,-13.47 -10.11,-8.95 -15.14,-21.58 -15.14,-37.95 0,-19 6.76,-33.6 20.29,-43.77 13.53,-10.11 32.69,-15.2 57.51,-15.2 9.78,0 18.44,0.56 25.82,1.62 7.43,1.12 14.54,2.79 21.29,5.09l-7.21 30.13c-7.1,-1.62 -13.7,-2.57 -19.78,-2.84 -6.09,-0.29 -12.52,-0.4 -19.17,-0.4 -25.77,0 -38.62,7.33 -38.62,22.08 0,6.76 2.23,11.96 6.77,15.65 4.53,3.63 11.12,5.48 19.73,5.48 10.06,0 18.44,-1.84 25.27,-5.48 6.76,-3.69 11.79,-8.33 15.2,-13.92 3.4,-5.65 5.09,-11.46 5.09,-17.43l0 -14.09 7.82 44.55 -13.92 0 5.76 -5.26c-0.23,10.07 -2.52,18.45 -6.99,25.15 -4.42,6.71 -10.63,11.74 -18.56,15.04 -7.99,3.36 -17.5,5.03 -28.51,5.03z"/>
  <path class="fil4 str4" d="M6468.75 3800.49l0 -158.85c0,-60.02 28.34,-90.04 84.96,-90.04 13.02,0 25.54,1.06 37.67,3.24l-3.92 36.71c-7.21,-0.89 -13.53,-1.5 -19,-1.84 -5.48,-0.28 -10.68,-0.45 -15.7,-0.45 -29.18,0 -43.71,16.88 -43.71,50.76l0 160.47 -40.3 0zm-53.54 -103.01l0 -34.04 163.76 0 0 34.04 -163.76 0z"/>
  <path id="1" class="fil4 str4" d="M6733.85 3802.11l-3.07 -51.43 -2.29 -19.28 0 -38.34c0,-10.17 -3.97,-17.61 -11.96,-22.36 -7.99,-4.75 -19.91,-7.32 -35.72,-7.77l-43.21 -1.12 3.24 -36.55 36.72 0.5c30.34,0.45 52.88,6.65 67.63,18.61 14.7,11.9 22.07,29.34 22.07,52.31l0 67.46 26.22 3.58 0 32.75 -59.64 1.63zm-59.75 1.67c-18.33,0 -32.53,-4.47 -42.65,-13.47 -10.11,-8.95 -15.14,-21.58 -15.14,-37.95 0,-19 6.76,-33.6 20.29,-43.77 13.53,-10.11 32.69,-15.2 57.51,-15.2 9.78,0 18.44,0.56 25.82,1.62 7.43,1.12 14.54,2.79 21.29,5.09l-7.21 30.13c-7.1,-1.62 -13.7,-2.57 -19.78,-2.84 -6.09,-0.29 -12.52,-0.4 -19.17,-0.4 -25.77,0 -38.62,7.33 -38.62,22.08 0,6.76 2.23,11.96 6.77,15.65 4.53,3.63 11.12,5.48 19.73,5.48 10.06,0 18.44,-1.84 25.27,-5.48 6.76,-3.69 11.79,-8.33 15.2,-13.92 3.4,-5.65 5.09,-11.46 5.09,-17.43l0 -14.09 7.82 44.55 -13.92 0 5.76 -5.26c-0.23,10.07 -2.52,18.45 -6.99,25.15 -4.42,6.71 -10.63,11.74 -18.56,15.04 -7.99,3.36 -17.5,5.03 -28.51,5.03z"/>
  <path class="fil4 str4" d="M8810.39 3804.19l0 -158.85c0,-60.02 28.34,-90.04 84.96,-90.04 13.02,0 25.54,1.06 37.67,3.24l-3.92 36.71c-7.21,-0.89 -13.53,-1.5 -19,-1.84 -5.48,-0.28 -10.68,-0.45 -15.7,-0.45 -29.18,0 -43.71,16.88 -43.71,50.76l0 160.47 -40.3 0zm-53.54 -103.01l0 -34.04 163.76 0 0 34.04 -163.76 0z"/>
  <path id="1" class="fil4 str4" d="M9075.49 3805.81l-3.07 -51.43 -2.29 -19.28 0 -38.34c0,-10.17 -3.97,-17.61 -11.96,-22.36 -7.99,-4.75 -19.91,-7.32 -35.72,-7.77l-43.21 -1.12 3.24 -36.55 36.72 0.5c30.34,0.45 52.88,6.65 67.63,18.61 14.7,11.9 22.07,29.34 22.07,52.31l0 67.46 26.22 3.58 0 32.75 -59.64 1.63zm-59.75 1.67c-18.33,0 -32.53,-4.47 -42.65,-13.47 -10.11,-8.95 -15.14,-21.58 -15.14,-37.95 0,-19 6.76,-33.6 20.29,-43.77 13.53,-10.11 32.69,-15.2 57.51,-15.2 9.78,0 18.44,0.56 25.82,1.62 7.43,1.12 14.54,2.79 21.29,5.09l-7.21 30.13c-7.1,-1.62 -13.7,-2.57 -19.78,-2.84 -6.09,-0.29 -12.52,-0.4 -19.17,-0.4 -25.77,0 -38.62,7.33 -38.62,22.08 0,6.76 2.23,11.96 6.77,15.65 4.53,3.63 11.12,5.48 19.73,5.48 10.06,0 18.44,-1.84 25.27,-5.48 6.76,-3.69 11.79,-8.33 15.2,-13.92 3.4,-5.65 5.09,-11.46 5.09,-17.43l0 -14.09 7.82 44.55 -13.92 0 5.76 -5.26c-0.23,10.07 -2.52,18.45 -6.99,25.15 -4.42,6.71 -10.63,11.74 -18.56,15.04 -7.99,3.36 -17.5,5.03 -28.51,5.03z"/>
  <polygon class="fil5" points="2610.82,3810.77 2610.82,3810.76 2610.87,3810.76 2610.87,3810.77 "/>
  <path class="fil4 str4" d="M328.63 4190.64c-53.94,0 -80.87,-39.35 -80.87,-117.94 0,-80.77 26.93,-121.18 80.87,-121.18 53.94,0 80.88,40.41 80.88,121.18 0,78.59 -26.94,117.94 -80.88,117.94zm-0.16 -90.27c-6.88,0 -12.42,-2.51 -16.61,-7.48 -4.25,-5.04 -6.31,-11.74 -6.31,-20.18 -0.11,-8.27 1.96,-14.98 6.21,-20.07 4.24,-5.03 9.83,-7.6 16.71,-7.6 6.87,-0.11 12.46,2.41 16.7,7.55 4.25,5.13 6.32,11.85 6.21,20.12 0,8.44 -2.12,15.14 -6.31,20.24 -4.19,5.09 -9.73,7.54 -16.6,7.42zm0.16 54.73c26.72,0.1 40.14,-27.34 40.14,-82.39 0,-57.18 -13.41,-85.74 -40.14,-85.63 -27.1,-0.11 -40.57,28.44 -40.47,85.63 -0.1,55.05 13.37,82.5 40.47,82.39z"/>
  <polygon id="1" class="fil4 str4" points="442.26,4218.48 570.98,3923.69 611.95,3923.69 483.23,4218.48 "/>
  <path id="2" class="fil4 str4" d="M706.41 4187.35l0 -232.52 40.3 0 0 232.52 -40.3 0zm-56.79 0l0 -35.21 60.09 0.17 0 35.04 -60.09 0zm93.79 0l0 -35.21 53.88 0.17 0 35.04 -53.88 0zm-90.55 -175.06l0 -37.84 53.55 -19.62 0 38.62 -53.55 18.83z"/>
  <path class="fil4 str4" d="M318.89 718.62c-53.94,0 -80.87,-39.35 -80.87,-117.94 0,-80.77 26.93,-121.18 80.87,-121.18 53.94,0 80.88,40.41 80.88,121.18 0,78.59 -26.94,117.94 -80.88,117.94zm-0.16 -90.27c-6.88,0 -12.42,-2.51 -16.61,-7.48 -4.25,-5.04 -6.31,-11.74 -6.31,-20.18 -0.11,-8.27 1.96,-14.98 6.21,-20.07 4.24,-5.03 9.83,-7.6 16.71,-7.6 6.87,-0.11 12.46,2.41 16.7,7.55 4.25,5.13 6.32,11.85 6.21,20.12 0,8.44 -2.12,15.14 -6.31,20.24 -4.19,5.09 -9.73,7.54 -16.6,7.42zm0.16 54.73c26.72,0.1 40.14,-27.34 40.14,-82.39 0,-57.18 -13.41,-85.74 -40.14,-85.63 -27.1,-0.11 -40.57,28.44 -40.47,85.63 -0.1,55.05 13.37,82.5 40.47,82.39z"/>
  <polygon id="1" class="fil4 str4" points="432.52,746.46 561.24,451.67 602.21,451.67 473.49,746.46 "/>
  <path id="2" class="fil4 str4" d="M696.66 715.33l0 -232.52 40.3 0 0 232.52 -40.3 0zm-56.79 0l0 -35.21 60.09 0.17 0 35.04 -60.09 0zm93.79 0l0 -35.21 53.88 0.17 0 35.04 -53.88 0zm-90.55 -175.06l0 -37.84 53.55 -19.62 0 38.62 -53.55 18.83z"/>
  <path class="fil4 str4" d="M2686.27 716.71c-53.94,0 -80.87,-39.35 -80.87,-117.94 0,-80.77 26.93,-121.18 80.87,-121.18 53.94,0 80.88,40.41 80.88,121.18 0,78.59 -26.94,117.94 -80.88,117.94zm-0.16 -90.27c-6.88,0 -12.42,-2.51 -16.61,-7.48 -4.25,-5.04 -6.31,-11.74 -6.31,-20.18 -0.11,-8.27 1.96,-14.98 6.21,-20.07 4.24,-5.03 9.83,-7.6 16.71,-7.6 6.87,-0.11 12.46,2.41 16.7,7.55 4.25,5.13 6.32,11.85 6.21,20.12 0,8.44 -2.12,15.14 -6.31,20.24 -4.19,5.09 -9.73,7.54 -16.6,7.42zm0.16 54.73c26.72,0.1 40.14,-27.34 40.14,-82.39 0,-57.18 -13.41,-85.74 -40.14,-85.63 -27.1,-0.11 -40.57,28.44 -40.47,85.63 -0.1,55.05 13.37,82.5 40.47,82.39z"/>
  <polygon id="1" class="fil4 str4" points="2799.9,744.55 2928.62,449.76 2969.59,449.76 2840.87,744.55 "/>
  <path id="2" class="fil4 str4" d="M3064.05 713.42l0 -232.52 40.3 0 0 232.52 -40.3 0zm-56.79 0l0 -35.21 60.09 0.17 0 35.04 -60.09 0zm93.79 0l0 -35.21 53.88 0.17 0 35.04 -53.88 0zm-90.55 -175.06l0 -37.84 53.55 -19.62 0 38.62 -53.55 18.83z"/>
  <path class="fil4 str4" d="M5006.12 714.8c-53.94,0 -80.87,-39.35 -80.87,-117.94 0,-80.77 26.93,-121.18 80.87,-121.18 53.94,0 80.88,40.41 80.88,121.18 0,78.59 -26.94,117.94 -80.88,117.94zm-0.16 -90.27c-6.88,0 -12.42,-2.51 -16.61,-7.48 -4.25,-5.04 -6.31,-11.74 -6.31,-20.18 -0.11,-8.27 1.96,-14.98 6.21,-20.07 4.24,-5.03 9.83,-7.6 16.71,-7.6 6.87,-0.11 12.46,2.41 16.7,7.55 4.25,5.13 6.32,11.85 6.21,20.12 0,8.44 -2.12,15.14 -6.31,20.24 -4.19,5.09 -9.73,7.54 -16.6,7.42zm0.16 54.73c26.72,0.1 40.14,-27.34 40.14,-82.39 0,-57.18 -13.41,-85.74 -40.14,-85.63 -27.1,-0.11 -40.57,28.44 -40.47,85.63 -0.1,55.05 13.37,82.5 40.47,82.39z"/>
  <polygon id="1" class="fil4 str4" points="5119.75,742.64 5248.47,447.85 5289.44,447.85 5160.73,742.64 "/>
  <path id="2" class="fil4 str4" d="M5383.9 711.5l0 -232.52 40.3 0 0 232.52 -40.3 0zm-56.79 0l0 -35.21 60.09 0.17 0 35.04 -60.09 0zm93.79 0l0 -35.21 53.88 0.17 0 35.04 -53.88 0zm-90.55 -175.06l0 -37.84 53.55 -19.62 0 38.62 -53.55 18.83z"/>
  <path class="fil4 str4" d="M7354.2 707.87c-53.94,0 -80.87,-39.35 -80.87,-117.94 0,-80.77 26.93,-121.18 80.87,-121.18 53.94,0 80.88,40.41 80.88,121.18 0,78.59 -26.94,117.94 -80.88,117.94zm-0.16 -90.27c-6.88,0 -12.42,-2.51 -16.61,-7.48 -4.25,-5.04 -6.31,-11.74 -6.31,-20.18 -0.11,-8.27 1.96,-14.98 6.21,-20.07 4.24,-5.03 9.83,-7.6 16.71,-7.6 6.87,-0.11 12.46,2.41 16.7,7.55 4.25,5.13 6.32,11.85 6.21,20.12 0,8.44 -2.12,15.14 -6.31,20.24 -4.19,5.09 -9.73,7.54 -16.6,7.42zm0.16 54.73c26.72,0.1 40.14,-27.34 40.14,-82.39 0,-57.18 -13.41,-85.74 -40.14,-85.63 -27.1,-0.11 -40.57,28.44 -40.47,85.63 -0.1,55.05 13.37,82.5 40.47,82.39z"/>
  <polygon id="1" class="fil4 str4" points="7467.83,735.71 7596.55,440.92 7637.52,440.92 7508.8,735.71 "/>
  <path id="2" class="fil4 str4" d="M7731.98 704.57l0 -232.52 40.3 0 0 232.52 -40.3 0zm-56.79 0l0 -35.21 60.09 0.17 0 35.04 -60.09 0zm93.79 0l0 -35.21 53.88 0.17 0 35.04 -53.88 0zm-90.55 -175.06l0 -37.84 53.55 -19.62 0 38.62 -53.55 18.83z"/>
  <path class="fil4 str4" d="M1634.83 707.49l0 -232.52 40.3 0 0 232.52 -40.3 0zm-56.79 0l0 -35.21 60.09 0.17 0 35.04 -60.09 0zm93.79 0l0 -35.21 53.88 0.17 0 35.04 -53.88 0zm-90.55 -175.06l0 -37.84 53.55 -19.62 0 38.62 -53.55 18.83z"/>
  <polygon id="1" class="fil4 str4" points="1763.72,738.63 1892.44,443.84 1933.41,443.84 1804.69,738.63 "/>
  <path id="2" class="fil4 str4" d="M2043.13 710.79c-53.94,0 -80.87,-39.35 -80.87,-117.94 0,-80.77 26.93,-121.18 80.87,-121.18 53.94,0 80.88,40.41 80.88,121.18 0,78.59 -26.94,117.94 -80.88,117.94zm-0.16 -90.27c-6.88,0 -12.42,-2.51 -16.61,-7.48 -4.25,-5.04 -6.31,-11.74 -6.31,-20.18 -0.11,-8.27 1.96,-14.98 6.21,-20.07 4.24,-5.03 9.83,-7.6 16.71,-7.6 6.87,-0.11 12.46,2.41 16.7,7.55 4.25,5.13 6.32,11.85 6.21,20.12 0,8.44 -2.12,15.14 -6.31,20.24 -4.19,5.09 -9.73,7.54 -16.6,7.42zm0.16 54.73c26.72,0.1 40.14,-27.34 40.14,-82.39 0,-57.18 -13.41,-85.74 -40.14,-85.63 -27.1,-0.11 -40.57,28.44 -40.47,85.63 -0.1,55.05 13.37,82.5 40.47,82.39z"/>
  <path class="fil4 str4" d="M3983.74 710.07l0 -232.52 40.3 0 0 232.52 -40.3 0zm-56.79 0l0 -35.21 60.09 0.17 0 35.04 -60.09 0zm93.79 0l0 -35.21 53.88 0.17 0 35.04 -53.88 0zm-90.55 -175.06l0 -37.84 53.55 -19.62 0 38.62 -53.55 18.83z"/>
  <polygon id="1" class="fil4 str4" points="4112.62,741.2 4241.34,446.42 4282.32,446.42 4153.6,741.2 "/>
  <path id="2" class="fil4 str4" d="M4392.03 713.37c-53.94,0 -80.87,-39.35 -80.87,-117.94 0,-80.77 26.93,-121.18 80.87,-121.18 53.94,0 80.88,40.41 80.88,121.18 0,78.59 -26.94,117.94 -80.88,117.94zm-0.16 -90.27c-6.88,0 -12.42,-2.51 -16.61,-7.48 -4.25,-5.04 -6.31,-11.74 -6.31,-20.18 -0.11,-8.27 1.96,-14.98 6.21,-20.07 4.24,-5.03 9.83,-7.6 16.71,-7.6 6.87,-0.11 12.46,2.41 16.7,7.55 4.25,5.13 6.32,11.85 6.21,20.12 0,8.44 -2.12,15.14 -6.31,20.24 -4.19,5.09 -9.73,7.54 -16.6,7.42zm0.16 54.73c26.72,0.1 40.14,-27.34 40.14,-82.39 0,-57.18 -13.41,-85.74 -40.14,-85.63 -27.1,-0.11 -40.57,28.44 -40.47,85.63 -0.1,55.05 13.37,82.5 40.47,82.39z"/>
  <path class="fil4 str4" d="M6332.64 712.65l0 -232.52 40.3 0 0 232.52 -40.3 0zm-56.79 0l0 -35.21 60.09 0.17 0 35.04 -60.09 0zm93.79 0l0 -35.21 53.88 0.17 0 35.04 -53.88 0zm-90.55 -175.06l0 -37.84 53.55 -19.62 0 38.62 -53.55 18.83z"/>
  <polygon id="1" class="fil4 str4" points="6461.53,743.78 6590.25,448.99 6631.22,448.99 6502.5,743.78 "/>
  <path id="2" class="fil4 str4" d="M6740.93 715.94c-53.94,0 -80.87,-39.35 -80.87,-117.94 0,-80.77 26.93,-121.18 80.87,-121.18 53.94,0 80.88,40.41 80.88,121.18 0,78.59 -26.94,117.94 -80.88,117.94zm-0.16 -90.27c-6.88,0 -12.42,-2.51 -16.61,-7.48 -4.25,-5.04 -6.31,-11.74 -6.31,-20.18 -0.11,-8.27 1.96,-14.98 6.21,-20.07 4.24,-5.03 9.83,-7.6 16.71,-7.6 6.87,-0.11 12.46,2.41 16.7,7.55 4.25,5.13 6.32,11.85 6.21,20.12 0,8.44 -2.12,15.14 -6.31,20.24 -4.19,5.09 -9.73,7.54 -16.6,7.42zm0.16 54.73c26.72,0.1 40.14,-27.34 40.14,-82.39 0,-57.18 -13.41,-85.74 -40.14,-85.63 -27.1,-0.11 -40.57,28.44 -40.47,85.63 -0.1,55.05 13.37,82.5 40.47,82.39z"/>
  <path class="fil4 str4" d="M8681.54 715.22l0 -232.52 40.3 0 0 232.52 -40.3 0zm-56.79 0l0 -35.21 60.09 0.17 0 35.04 -60.09 0zm93.79 0l0 -35.21 53.88 0.17 0 35.04 -53.88 0zm-90.55 -175.06l0 -37.84 53.55 -19.62 0 38.62 -53.55 18.83z"/>
  <polygon id="1" class="fil4 str4" points="8810.43,746.36 8939.15,451.57 8980.12,451.57 8851.4,746.36 "/>
  <path id="2" class="fil4 str4" d="M9089.84 718.52c-53.94,0 -80.87,-39.35 -80.87,-117.94 0,-80.77 26.93,-121.18 80.87,-121.18 53.94,0 80.88,40.41 80.88,121.18 0,78.59 -26.94,117.94 -80.88,117.94zm-0.16 -90.27c-6.88,0 -12.42,-2.51 -16.61,-7.48 -4.25,-5.04 -6.31,-11.74 -6.31,-20.18 -0.11,-8.27 1.96,-14.98 6.21,-20.07 4.24,-5.03 9.83,-7.6 16.71,-7.6 6.87,-0.11 12.46,2.41 16.7,7.55 4.25,5.13 6.32,11.85 6.21,20.12 0,8.44 -2.12,15.14 -6.31,20.24 -4.19,5.09 -9.73,7.54 -16.6,7.42zm0.16 54.73c26.72,0.1 40.14,-27.34 40.14,-82.39 0,-57.18 -13.41,-85.74 -40.14,-85.63 -27.1,-0.11 -40.57,28.44 -40.47,85.63 -0.1,55.05 13.37,82.5 40.47,82.39z"/>
  <path class="fil4 str4" d="M2677 4193.22c-53.94,0 -80.87,-39.35 -80.87,-117.94 0,-80.77 26.93,-121.18 80.87,-121.18 53.94,0 80.88,40.41 80.88,121.18 0,78.59 -26.94,117.94 -80.88,117.94zm-0.16 -90.27c-6.88,0 -12.42,-2.51 -16.61,-7.48 -4.25,-5.04 -6.31,-11.74 -6.31,-20.18 -0.11,-8.27 1.96,-14.98 6.21,-20.07 4.24,-5.03 9.83,-7.6 16.71,-7.6 6.87,-0.11 12.46,2.41 16.7,7.55 4.25,5.13 6.32,11.85 6.21,20.12 0,8.44 -2.12,15.14 -6.31,20.24 -4.19,5.09 -9.73,7.54 -16.6,7.42zm0.16 54.73c26.72,0.1 40.14,-27.34 40.14,-82.39 0,-57.18 -13.41,-85.74 -40.14,-85.63 -27.1,-0.11 -40.57,28.44 -40.47,85.63 -0.1,55.05 13.37,82.5 40.47,82.39z"/>
  <polygon id="1" class="fil4 str4" points="2790.63,4221.06 2919.35,3926.27 2960.32,3926.27 2831.61,4221.06 "/>
  <path id="2" class="fil4 str4" d="M3054.78 4189.92l0 -232.52 40.3 0 0 232.52 -40.3 0zm-56.79 0l0 -35.21 60.09 0.17 0 35.04 -60.09 0zm93.79 0l0 -35.21 53.88 0.17 0 35.04 -53.88 0zm-90.55 -175.06l0 -37.84 53.55 -19.62 0 38.62 -53.55 18.83z"/>
  <path class="fil4 str4" d="M5015.87 4195.8c-53.94,0 -80.87,-39.35 -80.87,-117.94 0,-80.77 26.93,-121.18 80.87,-121.18 53.94,0 80.88,40.41 80.88,121.18 0,78.59 -26.94,117.94 -80.88,117.94zm-0.16 -90.27c-6.88,0 -12.42,-2.51 -16.61,-7.48 -4.25,-5.04 -6.31,-11.74 -6.31,-20.18 -0.11,-8.27 1.96,-14.98 6.21,-20.07 4.24,-5.03 9.83,-7.6 16.71,-7.6 6.87,-0.11 12.46,2.41 16.7,7.55 4.25,5.13 6.32,11.85 6.21,20.12 0,8.44 -2.12,15.14 -6.31,20.24 -4.19,5.09 -9.73,7.54 -16.6,7.42zm0.16 54.73c26.72,0.1 40.14,-27.34 40.14,-82.39 0,-57.18 -13.41,-85.74 -40.14,-85.63 -27.1,-0.11 -40.57,28.44 -40.47,85.63 -0.1,55.05 13.37,82.5 40.47,82.39z"/>
  <polygon id="1" class="fil4 str4" points="5129.5,4223.63 5258.21,3928.84 5299.19,3928.84 5170.47,4223.63 "/>
  <path id="2" class="fil4 str4" d="M5393.64 4192.5l0 -232.52 40.3 0 0 232.52 -40.3 0zm-56.79 0l0 -35.21 60.09 0.17 0 35.04 -60.09 0zm93.79 0l0 -35.21 53.88 0.17 0 35.04 -53.88 0zm-90.55 -175.06l0 -37.84 53.55 -19.62 0 38.62 -53.55 18.83z"/>
  <path class="fil4 str4" d="M7354.73 4198.37c-53.94,0 -80.87,-39.35 -80.87,-117.94 0,-80.77 26.93,-121.18 80.87,-121.18 53.94,0 80.88,40.41 80.88,121.18 0,78.59 -26.94,117.94 -80.88,117.94zm-0.16 -90.27c-6.88,0 -12.42,-2.51 -16.61,-7.48 -4.25,-5.04 -6.31,-11.74 -6.31,-20.18 -0.11,-8.27 1.96,-14.98 6.21,-20.07 4.24,-5.03 9.83,-7.6 16.71,-7.6 6.87,-0.11 12.46,2.41 16.7,7.55 4.25,5.13 6.32,11.85 6.21,20.12 0,8.44 -2.12,15.14 -6.31,20.24 -4.19,5.09 -9.73,7.54 -16.6,7.42zm0.16 54.73c26.72,0.1 40.14,-27.34 40.14,-82.39 0,-57.18 -13.41,-85.74 -40.14,-85.63 -27.1,-0.11 -40.57,28.44 -40.47,85.63 -0.1,55.05 13.37,82.5 40.47,82.39z"/>
  <polygon id="1" class="fil4 str4" points="7468.36,4226.21 7597.08,3931.42 7638.05,3931.42 7509.33,4226.21 "/>
  <path id="2" class="fil4 str4" d="M7732.51 4195.07l0 -232.52 40.3 0 0 232.52 -40.3 0zm-56.79 0l0 -35.21 60.09 0.17 0 35.04 -60.09 0zm93.79 0l0 -35.21 53.88 0.17 0 35.04 -53.88 0zm-90.55 -175.06l0 -37.84 53.55 -19.62 0 38.62 -53.55 18.83z"/>
  <path class="fil4 str4" d="M1646.47 4193.3l0 -232.52 40.3 0 0 232.52 -40.3 0zm-56.79 0l0 -35.21 60.09 0.17 0 35.04 -60.09 0zm93.79 0l0 -35.21 53.88 0.17 0 35.04 -53.88 0zm-90.55 -175.06l0 -37.84 53.55 -19.62 0 38.62 -53.55 18.83z"/>
  <path id="1" class="fil4 str4" d="M2054.76 4196.6c-53.94,0 -80.87,-39.35 -80.87,-117.94 0,-80.77 26.93,-121.18 80.87,-121.18 53.94,0 80.88,40.41 80.88,121.18 0,78.59 -26.94,117.94 -80.88,117.94zm-0.16 -90.27c-6.88,0 -12.42,-2.51 -16.61,-7.48 -4.25,-5.04 -6.31,-11.74 -6.31,-20.18 -0.11,-8.27 1.96,-14.98 6.21,-20.07 4.24,-5.03 9.83,-7.6 16.71,-7.6 6.87,-0.11 12.46,2.41 16.7,7.55 4.25,5.13 6.32,11.85 6.21,20.12 0,8.44 -2.12,15.14 -6.31,20.24 -4.19,5.09 -9.73,7.54 -16.6,7.42zm0.16 54.73c26.72,0.1 40.14,-27.34 40.14,-82.39 0,-57.18 -13.41,-85.74 -40.14,-85.63 -27.1,-0.11 -40.57,28.44 -40.47,85.63 -0.1,55.05 13.37,82.5 40.47,82.39z"/>
  <polygon id="2" class="fil4 str4" points="1775.36,4224.43 1904.08,3929.64 1945.05,3929.64 1816.33,4224.43 "/>
  <path class="fil4 str4" d="M4007.12 4196.99l0 -232.52 40.3 0 0 232.52 -40.3 0zm-56.79 0l0 -35.21 60.09 0.17 0 35.04 -60.09 0zm93.79 0l0 -35.21 53.88 0.17 0 35.04 -53.88 0zm-90.55 -175.06l0 -37.84 53.55 -19.62 0 38.62 -53.55 18.83z"/>
  <polygon id="1" class="fil4 str4" points="4136.01,4228.13 4264.73,3933.34 4305.7,3933.34 4176.98,4228.13 "/>
  <path id="2" class="fil4 str4" d="M4415.42 4200.29c-53.94,0 -80.87,-39.35 -80.87,-117.94 0,-80.77 26.93,-121.18 80.87,-121.18 53.94,0 80.88,40.41 80.88,121.18 0,78.59 -26.94,117.94 -80.88,117.94zm-0.16 -90.27c-6.88,0 -12.42,-2.51 -16.61,-7.48 -4.25,-5.04 -6.31,-11.74 -6.31,-20.18 -0.11,-8.27 1.96,-14.98 6.21,-20.07 4.24,-5.03 9.83,-7.6 16.71,-7.6 6.87,-0.11 12.46,2.41 16.7,7.55 4.25,5.13 6.32,11.85 6.21,20.12 0,8.44 -2.12,15.14 -6.31,20.24 -4.19,5.09 -9.73,7.54 -16.6,7.42zm0.16 54.73c26.72,0.1 40.14,-27.34 40.14,-82.39 0,-57.18 -13.41,-85.74 -40.14,-85.63 -27.1,-0.11 -40.57,28.44 -40.47,85.63 -0.1,55.05 13.37,82.5 40.47,82.39z"/>
  <path class="fil4 str4" d="M6358.27 4191.19l0 -232.52 40.3 0 0 232.52 -40.3 0zm-56.79 0l0 -35.21 60.09 0.17 0 35.04 -60.09 0zm93.79 0l0 -35.21 53.88 0.17 0 35.04 -53.88 0zm-90.55 -175.06l0 -37.84 53.55 -19.62 0 38.62 -53.55 18.83z"/>
  <path id="1" class="fil4 str4" d="M6766.56 4194.48c-53.94,0 -80.87,-39.35 -80.87,-117.94 0,-80.77 26.93,-121.18 80.87,-121.18 53.94,0 80.88,40.41 80.88,121.18 0,78.59 -26.94,117.94 -80.88,117.94zm-0.16 -90.27c-6.88,0 -12.42,-2.51 -16.61,-7.48 -4.25,-5.04 -6.31,-11.74 -6.31,-20.18 -0.11,-8.27 1.96,-14.98 6.21,-20.07 4.24,-5.03 9.83,-7.6 16.71,-7.6 6.87,-0.11 12.46,2.41 16.7,7.55 4.25,5.13 6.32,11.85 6.21,20.12 0,8.44 -2.12,15.14 -6.31,20.24 -4.19,5.09 -9.73,7.54 -16.6,7.42zm0.16 54.73c26.72,0.1 40.14,-27.34 40.14,-82.39 0,-57.18 -13.41,-85.74 -40.14,-85.63 -27.1,-0.11 -40.57,28.44 -40.47,85.63 -0.1,55.05 13.37,82.5 40.47,82.39z"/>
  <polygon id="2" class="fil4 str4" points="6487.16,4222.32 6615.88,3927.53 6656.85,3927.53 6528.13,4222.32 "/>
  <path class="fil4 str4" d="M8699.91 4194.88l0 -232.52 40.3 0 0 232.52 -40.3 0zm-56.79 0l0 -35.21 60.09 0.17 0 35.04 -60.09 0zm93.79 0l0 -35.21 53.88 0.17 0 35.04 -53.88 0zm-90.55 -175.06l0 -37.84 53.55 -19.62 0 38.62 -53.55 18.83z"/>
  <path id="1" class="fil4 str4" d="M9108.2 4198.18c-53.94,0 -80.87,-39.35 -80.87,-117.94 0,-80.77 26.93,-121.18 80.87,-121.18 53.94,0 80.88,40.41 80.88,121.18 0,78.59 -26.94,117.94 -80.88,117.94zm-0.16 -90.27c-6.88,0 -12.42,-2.51 -16.61,-7.48 -4.25,-5.04 -6.31,-11.74 -6.31,-20.18 -0.11,-8.27 1.96,-14.98 6.21,-20.07 4.24,-5.03 9.83,-7.6 16.71,-7.6 6.87,-0.11 12.46,2.41 16.7,7.55 4.25,5.13 6.32,11.85 6.21,20.12 0,8.44 -2.12,15.14 -6.31,20.24 -4.19,5.09 -9.73,7.54 -16.6,7.42zm0.16 54.73c26.72,0.1 40.14,-27.34 40.14,-82.39 0,-57.18 -13.41,-85.74 -40.14,-85.63 -27.1,-0.11 -40.57,28.44 -40.47,85.63 -0.1,55.05 13.37,82.5 40.47,82.39z"/>
  <polygon id="2" class="fil4 str4" points="8828.8,4226.02 8957.52,3931.23 8998.49,3931.23 8869.77,4226.02 "/>
  <polygon class="fil5" points="2480.38,4201.47 2480.38,4201.46 2480.45,4201.46 2480.45,4201.47 "/>
  <line class="fil0 str0" x1="890.43" y1="3264.24" x2="894.57" y2= "2774.11" />
  <line class="fil0 str0" x1="894.94" y1="998.52" x2="899.09" y2= "1488.65" />
  <line class="fil0 str0" x1="3248.32" y1="998.86" x2="3252.47" y2= "1488.98" />
  <line class="fil0 str0" x1="5571.25" y1="1000.31" x2="5575.4" y2= "1490.44" />
  <line class="fil0 str0" x1="7932.21" y1="1001.77" x2="7936.36" y2= "1491.89" />
  <line class="fil0 str0" x1="1479.36" y1="1002.3" x2="1483.51" y2= "1492.42" />
  <line class="fil0 str0" x1="3832.74" y1="1002.63" x2="3836.89" y2= "1492.76" />
  <line class="fil0 str0" x1="6184.19" y1="1004.09" x2="6188.34" y2= "1494.21" />
  <line class="fil0 str0" x1="8516.63" y1="1005.54" x2="8520.78" y2= "1495.67" />
  <line class="fil0 str0" x1="1489.59" y1="3258.83" x2="1485.68" y2= "2772.15" />
  <line class="fil0 str0" x1="3257.67" y1="3259.98" x2="3256.15" y2= "2771.07" />
  <line class="fil0 str0" x1="3840.99" y1="3261.08" x2="3839.42" y2= "2774.79" />
  <line class="fil0 str0" x1="5582.73" y1="3267.41" x2="5583.84" y2= "2770.63" />
  <line class="fil0 str0" x1="6185.42" y1="3263.66" x2="6188.05" y2= "2774.72" />
  <line class="fil0 str0" x1="7938.72" y1="3263.7" x2="7933.21" y2= "2770.29" />
  <line class="fil0 str0" x1="8526.38" y1="3263.35" x2="8527.22" y2= "2775.17" />
  <circle class="fil6 str5" cx="894.57" cy="2774.11" r="57.18"/>
  <circle class="fil1 str1" cx="899.09" cy="1488.65" r="57.18"/>
  <circle class="fil1 str1" cx="3252.47" cy="1488.98" r="57.18"/>
  <circle class="fil1 str1" cx="5575.4" cy="1490.44" r="57.18"/>
  <circle class="fil1 str1" cx="7936.36" cy="1491.89" r="57.18"/>
  <circle class="fil6 str5" cx="1483.51" cy="1492.42" r="57.18"/>
  <circle class="fil6 str5" cx="3836.89" cy="1492.76" r="57.18"/>
  <circle class="fil6 str5" cx="6188.34" cy="1494.21" r="57.18"/>
  <circle class="fil6 str5" cx="8520.78" cy="1495.67" r="57.18"/>
  <circle class="fil1 str1" cx="1485.68" cy="2772.15" r="57.18"/>
  <circle class="fil6 str5" cx="3256.15" cy="2771.07" r="57.18"/>
  <circle class="fil1 str1" cx="3839.42" cy="2774.79" r="57.18"/>
  <circle class="fil6 str5" cx="5583.84" cy="2770.63" r="57.18"/>
  <circle class="fil1 str1" cx="6188.05" cy="2774.72" r="57.18"/>
  <circle class="fil6 str5" cx="7933.21" cy="2770.29" r="57.18"/>
  <circle class="fil1 str1" cx="8527.22" cy="2775.17" r="57.18"/>
  <path class="fil7" d="M867.54 2615.04l0 -372.04 64.48 0 0 372.04 -64.48 0zm-90.86 0l0 -56.35 96.14 0.28 0 56.07 -96.14 0zm150.07 0l0 -56.35 86.2 0.28 0 56.07 -86.2 0zm-144.88 -280.1l0 -60.55 85.67 -31.39 0 61.8 -85.67 30.14z"/>
  <path class="fil7" d="M1363.34 2614.88l0 -67.61c55.72,-30.05 97.31,-61.35 124.94,-93.91 27.63,-32.55 41.32,-66.26 41.13,-101.05 0.18,-18.69 -4.38,-32.65 -13.59,-42.03 -9.3,-9.31 -23.25,-13.96 -41.94,-14.04 -14.49,0.09 -29.69,4.11 -45.61,12.34 -15.91,8.22 -29.51,19.14 -40.87,32.73l-38.72 -42.39c12.7,-18.51 30.67,-33.36 53.84,-44.54 23.07,-11.18 47.22,-16.82 72.44,-16.82 40.16,0 70.21,9.31 90.06,27.91 19.94,18.59 29.87,46.68 29.87,84.24 0,35.95 -10.91,70.47 -32.82,103.48 -21.91,33.08 -55.27,64.65 -99.99,94.88l0 66.8 -98.73 0zm15.66 0l0 -57.69 231.63 0 0 57.69 -231.63 0z"/>
  <path class="fil7" d="M3235.91 2616.29c-19.76,0 -37.83,-1.16 -54.28,-3.39 -16.36,-2.33 -30.94,-5.37 -43.73,-9.21l6.53 -60.81c11,2.95 23.42,6.17 37.2,9.48 13.86,3.31 31.21,4.91 52.14,4.91 24.68,0 43.73,-4.56 57.32,-13.68 13.5,-9.21 20.3,-22.09 20.3,-38.73 0,-11.98 -4.02,-22.26 -12.07,-30.58 -8.04,-8.4 -19.67,-14.75 -34.88,-19.14 -15.2,-4.38 -33.62,-6.53 -55.26,-6.53l-8.41 0 -6.26 -49.81 77.53 19.41c31.3,0.98 56.61,9.66 76.11,25.93 19.49,16.19 29.24,38.63 29.24,67.34 0,33.18 -12.34,58.93 -36.93,77.27 -24.69,18.33 -59.47,27.54 -104.55,27.54zm-35.15 -167.69l-6.26 -49.81c25.49,-3.31 46.33,-8.22 62.33,-14.66 16.09,-6.45 27.9,-14.22 35.41,-23.35 7.51,-9.03 11.27,-19.32 11.27,-30.67 0,-11.81 -3.94,-21.11 -11.8,-27.73 -7.87,-6.62 -19.23,-9.92 -34.08,-10.01 -13.77,0.09 -28.7,3.04 -44.62,9.12 -16.01,6 -31.21,14.93 -45.52,26.83l-36.13 -46.41c16.46,-16.9 35.42,-29.16 56.97,-36.75 21.55,-7.61 45.6,-11.46 72.16,-11.46 34.79,0 61.62,7.24 80.58,21.65 18.97,14.4 28.44,34.96 28.44,61.71 0,23.07 -7.61,43.02 -22.89,59.83 -15.3,16.9 -35.24,28.53 -59.92,34.96l0 28.88 -85.95 7.87z"/>
  <path class="fil7" d="M3698.85 2540.28l48.38 -272.76 63.94 0 -49.01 272.76 -63.31 0zm-0.54 0l39.79 -56.34 147.21 0 0 56.34 -187 0zm238.96 0l0 -56.34 40.87 0 0 56.34 -40.87 0zm-57.15 78.34l0 -372.04 62.33 0 0 372.04 -62.33 0z"/>
  <path class="fil7" d="M5580.23 2620.01c-40.24,0 -71.28,-10.11 -93.28,-30.14 -22.08,-20.13 -33.09,-48.29 -33.09,-84.69l66.09 0c0,17.71 5.37,31.39 16.1,41.13 10.73,9.84 26.02,14.67 45.96,14.67 19.58,0 34.96,-5.99 46.24,-18.06 11.27,-11.99 16.9,-28.53 16.9,-49.45 0,-19.59 -5.82,-34.97 -17.44,-46.15 -11.63,-11.17 -27.64,-16.81 -48.02,-16.81 -22.54,0 -43.74,5.28 -63.41,15.74l9.92 -56.88c11.18,-6.26 23.25,-10.73 36.13,-13.33 12.97,-2.6 25.66,-3.94 38.27,-3.94 34.25,0 61.26,10.82 80.93,32.46 19.77,21.73 29.6,51.34 29.6,88.9 0,26.02 -5.28,48.46 -15.83,67.43 -10.55,18.96 -25.57,33.54 -45.16,43.73 -19.59,10.19 -42.93,15.38 -69.94,15.38zm-103.83 -173.76l5.28 -203.55 63.67 0 -8.95 161.43 -20.12 42.12 -39.89 0zm33.09 -145.95l-4.74 -57.6 182.89 0 0 57.6 -178.14 0z"/>
  <path class="fil7" d="M6115.51 2525.34l-55.09 -52.68 0 -17.8c0,-69.58 18.51,-122.34 55.44,-158.56 36.93,-36.13 93.28,-55.98 168.84,-59.47l5.28 59.47c-108.12,4.56 -162.23,51.15 -162.23,139.69l-12.24 89.34zm77.27 90.42c-42.3,0 -74.95,-12.52 -97.84,-37.38 -22.99,-24.86 -34.52,-60.1 -34.52,-105.71l52.68 30.94 0 -68.14 20.74 0c4.83,-19.41 14.67,-34.35 29.34,-44.9 14.67,-10.64 32.64,-15.91 53.92,-15.91 32.56,0 57.6,10.19 75.22,30.58 17.62,20.31 26.48,49.19 26.48,86.57 0,39.08 -10.91,69.58 -32.74,91.31 -21.82,21.73 -52.94,32.65 -93.27,32.65zm0.53 -59.03c18.87,0.18 33.36,-5.36 43.46,-16.72 10.11,-11.36 15.2,-27.45 15.2,-48.21 0,-18.69 -5.28,-33.08 -15.83,-43.28 -10.55,-10.11 -25.67,-15.12 -45.25,-15.12 -20.21,0 -35.86,5.29 -46.95,15.84 -11.18,10.55 -16.72,25.57 -16.72,45.16 0,21.02 5.54,36.67 16.72,47.05 11.09,10.37 27.55,15.47 49.37,15.29z"/>
  <path class="fil7" d="M7878.88 2619.97l119.92 -372.04 67.88 0 -122.61 372.04 -65.2 0zm-90.42 -233.68l0 -130.49 63.13 0 0 130.49 -63.13 0zm0 -80.23l0 -58.13 278.22 0 -39.79 58.13 -238.42 0z"/>
  <path class="fil7" d="M8525.62 2618.64c-41.05,0 -72.89,-9.39 -95.51,-28.17 -22.63,-18.78 -33.89,-45.25 -33.89,-79.33 0,-31.21 11.27,-55.36 33.89,-72.44 22.63,-16.99 54.46,-25.49 95.51,-25.49 41.05,0 72.89,8.5 95.51,25.49 22.63,17.08 33.9,41.23 33.9,72.44 0,34.08 -11.27,60.55 -33.9,79.33 -22.63,18.78 -54.46,28.17 -95.51,28.17zm0 -58.76c20.21,-0.17 35.86,-5.1 46.87,-14.75 11,-9.74 16.54,-23.34 16.54,-41.05 0,-17.98 -5.54,-32.1 -16.54,-42.29 -11.01,-10.2 -26.66,-15.3 -46.87,-15.3 -20.13,0 -35.68,5.1 -46.77,15.3 -11.08,10.19 -16.64,24.32 -16.64,42.29 0,17.71 5.46,31.39 16.46,41.14 11,9.83 26.66,14.66 46.95,14.66zm-43.55 -131.46l0 -26.74 87.55 0 0 26.74 -87.55 0zm43.55 -41.14c16.72,0 29.78,-3.94 39,-11.81 9.3,-7.86 13.95,-18.78 13.95,-32.73 0,-15.38 -4.65,-27.27 -13.77,-35.5 -9.21,-8.32 -22.27,-12.43 -39.18,-12.52 -16.81,0.09 -29.78,4.2 -39.08,12.52 -9.21,8.22 -13.86,20.12 -13.86,35.5 0,13.96 4.65,24.87 13.86,32.73 9.3,7.87 22.27,11.81 39.08,11.81zm0 30.59c-37.74,0 -66.98,-7.61 -87.82,-22.9 -20.74,-15.29 -31.12,-36.85 -31.12,-64.57 0,-29.87 10.38,-53.03 31.12,-69.58 20.84,-16.46 50.08,-24.77 87.82,-24.77 37.74,0 66.98,8.32 87.74,24.77 20.84,16.55 31.21,39.71 31.21,69.58 0,27.72 -10.37,49.28 -31.21,64.57 -20.75,15.3 -49.99,22.9 -87.74,22.9z"/>
  <path class="fil7" d="M648.89 2025.58l-5.19 -59.74c108.13,-4.2 162.14,-50.61 162.14,-139.33l6.26 -96.23 61.09 59.47 0 12.62c0,70.92 -18.42,124.93 -55.45,162.05 -36.93,37.11 -93.18,57.5 -168.84,61.16zm93.81 -196.75c20.31,0 35.95,-5.28 47.04,-15.73 11.09,-10.47 16.55,-25.49 16.37,-45.08 0.18,-20.92 -5.28,-36.57 -16.28,-47.04 -11,-10.37 -27.45,-15.56 -49.45,-15.56 -19.05,0 -33.72,5.64 -44.01,17 -10.37,11.35 -15.47,27.45 -15.47,48.2 0,18.69 5.28,33.09 15.91,43.11 10.73,10.11 25.93,15.11 45.88,15.11zm-26.2 58.94c-32.46,0 -57.5,-10.2 -75.22,-30.68 -17.62,-20.39 -26.47,-49.19 -26.47,-86.48 0,-39.26 11,-69.76 32.91,-91.4 21.9,-21.65 52.94,-32.46 93.18,-32.46 42.21,0 74.85,12.43 97.84,37.29 22.98,24.95 34.43,60.19 34.43,105.7l-52.68 -30.85 0 68.06 -20.67 0c-4.91,19.4 -14.66,34.43 -29.33,44.98 -14.67,10.55 -32.73,15.83 -54.02,15.83z"/>
  <path class="fil7" d="M1451.79 2017.71l0 -372.04 64.48 0 0 372.04 -64.48 0zm-90.86 0l0 -56.35 96.14 0.28 0 56.07 -96.14 0zm150.07 0l0 -56.35 86.2 0.28 0 56.07 -86.2 0zm-144.88 -280.1l0 -60.55 85.67 -31.39 0 61.8 -85.67 30.14z"/>
  <path id="1" class="fil7" d="M1790.64 2022.98c-86.3,0 -129.4,-62.96 -129.4,-188.69 0,-129.23 43.1,-193.89 129.4,-193.89 86.3,0 129.41,64.66 129.41,193.89 0,125.73 -43.11,188.69 -129.41,188.69zm-0.27 -144.43c-11,0 -19.86,-4.02 -26.56,-11.98 -6.8,-8.05 -10.11,-18.78 -10.11,-32.28 -0.18,-13.24 3.13,-23.98 9.92,-32.11 6.8,-8.04 15.74,-12.16 26.74,-12.16 11,-0.18 19.94,3.84 26.74,12.07 6.8,8.22 10.11,18.96 9.92,32.2 0,13.5 -3.4,24.23 -10.11,32.37 -6.71,8.14 -15.56,12.07 -26.56,11.89zm0.27 87.55c42.75,0.18 64.22,-43.73 64.22,-131.82 0,-91.49 -21.47,-137.19 -64.22,-137.01 -43.37,-0.18 -64.93,45.52 -64.75,137.01 -0.18,88.09 21.38,132 64.75,131.82z"/>
  <path class="fil7" d="M2921.18 2015.74l0 -372.04 64.48 0 0 372.04 -64.48 0zm-90.86 0l0 -56.35 96.14 0.28 0 56.07 -96.14 0zm150.07 0l0 -56.35 86.2 0.28 0 56.07 -86.2 0zm-144.88 -280.1l0 -60.55 85.67 -31.39 0 61.8 -85.67 30.14z"/>
  <path id="1" class="fil7" d="M3235.62 2015.74l0 -372.04 64.48 0 0 372.04 -64.48 0zm-90.86 0l0 -56.35 96.14 0.28 0 56.07 -96.14 0zm150.07 0l0 -56.35 86.2 0.28 0 56.07 -86.2 0zm-144.88 -280.1l0 -60.55 85.67 -31.39 0 61.8 -85.67 30.14z"/>
  <path class="fil7" d="M3797.12 2019.66l0 -372.04 64.48 0 0 372.04 -64.48 0zm-90.86 0l0 -56.35 96.14 0.28 0 56.07 -96.14 0zm150.07 0l0 -56.35 86.2 0.28 0 56.07 -86.2 0zm-144.88 -280.1l0 -60.55 85.67 -31.39 0 61.8 -85.67 30.14z"/>
  <path id="1" class="fil7" d="M4021.23 2019.66l0 -67.61c55.72,-30.05 97.31,-61.35 124.94,-93.91 27.63,-32.55 41.32,-66.26 41.13,-101.05 0.18,-18.69 -4.38,-32.65 -13.59,-42.03 -9.3,-9.31 -23.25,-13.96 -41.94,-14.04 -14.49,0.09 -29.69,4.11 -45.61,12.34 -15.91,8.22 -29.51,19.14 -40.87,32.73l-38.72 -42.39c12.7,-18.51 30.67,-33.36 53.84,-44.54 23.07,-11.18 47.22,-16.82 72.44,-16.82 40.16,0 70.21,9.31 90.06,27.91 19.94,18.59 29.87,46.68 29.87,84.24 0,35.95 -10.91,70.47 -32.82,103.48 -21.91,33.08 -55.27,64.65 -99.99,94.88l0 66.8 -98.73 0zm15.66 0l0 -57.69 231.63 0 0 57.69 -231.63 0z"/>
  <path class="fil7" d="M5245.92 2019.95l0 -372.04 64.48 0 0 372.04 -64.48 0zm-90.86 0l0 -56.35 96.14 0.28 0 56.07 -96.14 0zm150.07 0l0 -56.35 86.2 0.28 0 56.07 -86.2 0zm-144.88 -280.1l0 -60.55 85.67 -31.39 0 61.8 -85.67 30.14z"/>
  <path id="1" class="fil7" d="M5562.23 2025.23c-19.76,0 -37.83,-1.16 -54.28,-3.39 -16.36,-2.33 -30.94,-5.37 -43.73,-9.21l6.53 -60.81c11,2.95 23.42,6.17 37.2,9.48 13.86,3.31 31.21,4.91 52.14,4.91 24.68,0 43.73,-4.56 57.32,-13.68 13.5,-9.21 20.3,-22.09 20.3,-38.73 0,-11.98 -4.02,-22.26 -12.07,-30.58 -8.04,-8.4 -19.67,-14.75 -34.88,-19.14 -15.2,-4.38 -33.62,-6.53 -55.26,-6.53l-8.41 0 -6.26 -49.81 77.53 19.41c31.3,0.98 56.61,9.66 76.11,25.93 19.49,16.19 29.24,38.63 29.24,67.34 0,33.18 -12.34,58.93 -36.93,77.27 -24.69,18.33 -59.47,27.54 -104.55,27.54zm-35.15 -167.69l-6.26 -49.81c25.49,-3.31 46.33,-8.22 62.33,-14.66 16.09,-6.45 27.9,-14.22 35.41,-23.35 7.51,-9.03 11.27,-19.32 11.27,-30.67 0,-11.81 -3.94,-21.11 -11.8,-27.73 -7.87,-6.62 -19.23,-9.92 -34.08,-10.01 -13.77,0.09 -28.7,3.04 -44.62,9.12 -16.01,6 -31.21,14.93 -45.52,26.83l-36.13 -46.41c16.46,-16.9 35.42,-29.16 56.97,-36.75 21.55,-7.61 45.6,-11.46 72.16,-11.46 34.79,0 61.62,7.24 80.58,21.65 18.97,14.4 28.44,34.96 28.44,61.71 0,23.07 -7.61,43.02 -22.89,59.83 -15.3,16.9 -35.24,28.53 -59.92,34.96l0 28.88 -85.95 7.87z"/>
  <path class="fil7" d="M6143.37 2026.7l0 -372.04 64.48 0 0 372.04 -64.48 0zm-90.86 0l0 -56.35 96.14 0.28 0 56.07 -96.14 0zm150.07 0l0 -56.35 86.2 0.28 0 56.07 -86.2 0zm-144.88 -280.1l0 -60.55 85.67 -31.39 0 61.8 -85.67 30.14z"/>
  <path id="1" class="fil7" d="M6341.82 1948.36l48.38 -272.76 63.94 0 -49.01 272.76 -63.31 0zm-0.54 0l39.79 -56.34 147.21 0 0 56.34 -187 0zm238.96 0l0 -56.34 40.87 0 0 56.34 -40.87 0zm-57.15 78.34l0 -372.04 62.33 0 0 372.04 -62.33 0z"/>
  <path class="fil7" d="M7595.49 2021.06l0 -372.04 64.48 0 0 372.04 -64.48 0zm-90.86 0l0 -56.35 96.14 0.28 0 56.07 -96.14 0zm150.07 0l0 -56.35 86.2 0.28 0 56.07 -86.2 0zm-144.88 -280.1l0 -60.55 85.67 -31.39 0 61.8 -85.67 30.14z"/>
  <path id="1" class="fil7" d="M7935.41 2026.34c-40.24,0 -71.28,-10.11 -93.28,-30.14 -22.08,-20.13 -33.09,-48.29 -33.09,-84.69l66.09 0c0,17.71 5.37,31.39 16.1,41.13 10.73,9.84 26.02,14.67 45.96,14.67 19.58,0 34.96,-5.99 46.24,-18.06 11.27,-11.99 16.9,-28.53 16.9,-49.45 0,-19.59 -5.82,-34.97 -17.44,-46.15 -11.63,-11.17 -27.64,-16.81 -48.02,-16.81 -22.54,0 -43.74,5.28 -63.41,15.74l9.92 -56.88c11.18,-6.26 23.25,-10.73 36.13,-13.33 12.97,-2.6 25.66,-3.94 38.27,-3.94 34.25,0 61.26,10.82 80.93,32.46 19.77,21.73 29.6,51.34 29.6,88.9 0,26.02 -5.28,48.46 -15.83,67.43 -10.55,18.96 -25.57,33.54 -45.16,43.73 -19.59,10.19 -42.93,15.38 -69.94,15.38zm-103.83 -173.76l5.28 -203.55 63.67 0 -8.95 161.43 -20.12 42.12 -39.89 0zm33.09 -145.95l-4.74 -57.6 182.89 0 0 57.6 -178.14 0z"/>
  <path class="fil7" d="M8487.96 2025.49l0 -372.04 64.48 0 0 372.04 -64.48 0zm-90.86 0l0 -56.35 96.14 0.28 0 56.07 -96.14 0zm150.07 0l0 -56.35 86.2 0.28 0 56.07 -86.2 0zm-144.88 -280.1l0 -60.55 85.67 -31.39 0 61.8 -85.67 30.14z"/>
  <path id="1" class="fil7" d="M8752.95 1940.35l-55.09 -52.68 0 -17.8c0,-69.58 18.51,-122.34 55.44,-158.56 36.93,-36.13 93.28,-55.98 168.84,-59.47l5.28 59.47c-108.12,4.56 -162.23,51.15 -162.23,139.69l-12.24 89.34zm77.27 90.42c-42.3,0 -74.95,-12.52 -97.84,-37.38 -22.99,-24.86 -34.52,-60.1 -34.52,-105.71l52.68 30.94 0 -68.14 20.74 0c4.83,-19.41 14.67,-34.35 29.34,-44.9 14.67,-10.64 32.64,-15.91 53.92,-15.91 32.56,0 57.6,10.19 75.22,30.58 17.62,20.31 26.48,49.19 26.48,86.57 0,39.08 -10.91,69.58 -32.74,91.31 -21.82,21.73 -52.94,32.65 -93.27,32.65zm0.53 -59.03c18.87,0.18 33.36,-5.36 43.46,-16.72 10.11,-11.36 15.2,-27.45 15.2,-48.21 0,-18.69 -5.28,-33.08 -15.83,-43.28 -10.55,-10.11 -25.67,-15.12 -45.25,-15.12 -20.21,0 -35.86,5.29 -46.95,15.84 -11.18,10.55 -16.72,25.57 -16.72,45.16 0,21.02 5.54,36.67 16.72,47.05 11.09,10.37 27.55,15.47 49.37,15.29z"/>
  <line class="fil0 str6" x1="890.43" y1="3264.24" x2="894.35" y2= "4199.06" />
  <line class="fil0 str6" x1="889.49" y1="66.88" x2="893.42" y2= "1001.7" />
  <line class="fil0 str6" x1="3246.85" y1="66.69" x2="3250.78" y2= "1001.51" />
  <line class="fil0 str6" x1="5567.82" y1="69.26" x2="5571.75" y2= "1004.09" />
  <line class="fil0 str6" x1="7930.72" y1="76.27" x2="7934.64" y2= "1011.09" />
  <line class="fil0 str6" x1="3258.16" y1="3263.19" x2="3262.09" y2= "4198.01" />
  <line class="fil0 str6" x1="3840.98" y1="3262.41" x2="3844.9" y2= "4197.23" />
  <line class="fil0 str6" x1="7933.44" y1="3258.77" x2="7937.36" y2= "4193.59" />
  <line class="fil0 str6" x1="5582.27" y1="3263.19" x2="5586.2" y2= "4198.01" />
  <line class="fil0 str6" x1="6187.07" y1="3253.68" x2="6190.99" y2= "4188.51" />
  <line class="fil0 str6" x1="8525.8" y1="3261.51" x2="8529.72" y2= "4196.33" />
  <line class="fil0 str6" x1="1489.34" y1="3264.24" x2="1493.26" y2= "4199.06" />
  <line class="fil0 str6" x1="1478.9" y1="66.88" x2="1482.82" y2= "1001.7" />
  <line class="fil0 str6" x1="3826.75" y1="66.69" x2="3830.67" y2= "1001.51" />
  <line class="fil0 str6" x1="6176.24" y1="69.26" x2="6180.16" y2= "1004.09" />
  <line class="fil0 str6" x1="8510.62" y1="76.27" x2="8514.54" y2= "1011.09" />
  <circle class="fil8 str7" cx="894.35" cy="4199.06" r="57.18"/>
  <circle class="fil8 str7" cx="889.49" cy="81.09" r="57.18"/>
  <circle class="fil8 str7" cx="1478.9" cy="66.88" r="57.18"/>
  <circle class="fil8 str7" cx="3826.75" cy="66.69" r="57.18"/>
  <circle class="fil8 str7" cx="6176.24" cy="69.26" r="57.18"/>
  <circle class="fil8 str7" cx="7930.72" cy="76.27" r="57.18"/>
  <circle class="fil8 str7" cx="8510.62" cy="76.27" r="57.18"/>
  <circle class="fil8 str7" cx="5567.82" cy="69.26" r="57.18"/>
  <circle class="fil8 str7" cx="3246.85" cy="66.69" r="57.18"/>
  <circle class="fil8 str7" cx="1493.26" cy="4199.06" r="57.18"/>
  <circle class="fil8 str7" cx="3262.09" cy="4198.01" r="57.18"/>
  <circle class="fil8 str7" cx="3844.9" cy="4197.23" r="57.18"/>
  <circle class="fil8 str7" cx="5586.2" cy="4198.01" r="57.18"/>
  <circle class="fil8 str7" cx="6190.99" cy="4188.51" r="57.18"/>
  <circle class="fil8 str7" cx="7937.36" cy="4193.59" r="57.18"/>
  <circle class="fil8 str7" cx="8529.72" cy="4196.33" r="57.18"/>
 </g>
</svg>
