<?xml version="1.0" encoding="UTF-8"?>
<!DOCTYPE svg PUBLIC "-//W3C//DTD SVG 1.1//EN" "http://www.w3.org/Graphics/SVG/1.1/DTD/svg11.dtd">
<!-- Creator: CorelDRAW 2020 (64-Bit) -->
<svg xmlns="http://www.w3.org/2000/svg" xml:space="preserve" width="70.779mm" height="30.025mm" version="1.1" style="shape-rendering:geometricPrecision; text-rendering:geometricPrecision; image-rendering:optimizeQuality; fill-rule:evenodd; clip-rule:evenodd"
viewBox="0 0 2546.04 1080.05"
 xmlns:xlink="http://www.w3.org/1999/xlink"
 xmlns:xodm="http://www.corel.com/coreldraw/odm/2003">
 <defs>
  <style type="text/css">
   <![CDATA[
    .str4 {stroke:#373435;stroke-width:3.81;stroke-miterlimit:22.9256}
    .str0 {stroke:#FEFEFE;stroke-width:25.38;stroke-miterlimit:22.9256}
    .str6 {stroke:#373435;stroke-width:25.38;stroke-miterlimit:22.9256}
    .str7 {stroke:#373435;stroke-width:7.19;stroke-miterlimit:22.9256}
    .str2 {stroke:#31383E;stroke-width:7.19;stroke-miterlimit:22.9256}
    .str3 {stroke:#3F4749;stroke-width:7.19;stroke-miterlimit:22.9256}
    .str5 {stroke:#4CDBC4;stroke-width:7.19;stroke-miterlimit:22.9256}
    .str1 {stroke:#B5F1F4;stroke-width:7.19;stroke-miterlimit:22.9256}
    .fil0 {fill:none}
    .fil5 {fill:#373435}
    .fil8 {fill:#373435}
    .fil2 {fill:#31383E}
    .fil3 {fill:#3F4749}
    .fil6 {fill:#4CDBC4}
    .fil1 {fill:#B5F1F4}
    .fil7 {fill:#FEFEFE;fill-rule:nonzero}
    .fil4 {fill:#373435;fill-rule:nonzero}
   ]]>
  </style>
 </defs>
 <g id="Capa_x0020_1">
  <metadata id="CorelCorpID_0Corel-Layer"/>
  <line class="fil0 str0" x1="2528.41" y1="825.34" x2="2528" y2= "580.41" />
  <circle class="fil1 str1" cx="2528" cy="580.41" r="14.45"/>
  <rect class="fil2 str2" x="3.6" y="256.31" width="2431.66" height="566.98"/>
  <rect class="fil3 str3" x="56.05" y="309.26" width="2325.33" height="460.27"/>
  <path class="fil4 str4" d="M108.27 960.35l0 -40.12c0,-15.17 7.16,-22.74 21.46,-22.74 3.29,0 6.45,0.27 9.51,0.82l-0.99 9.28c-1.82,-0.23 -3.42,-0.38 -4.8,-0.47 -1.38,-0.07 -2.7,-0.11 -3.97,-0.11 -7.37,0 -11.04,4.26 -11.04,12.82l0 40.53 -10.18 0zm-13.53 -26.02l0 -8.6 41.37 0 0 8.6 -41.37 0z"/>
  <path id="1" class="fil4 str4" d="M175.24 960.76l-0.78 -12.99 -0.58 -4.87 0 -9.69c0,-2.57 -1,-4.45 -3.02,-5.64 -2.02,-1.2 -5.03,-1.85 -9.02,-1.96l-10.91 -0.28 0.82 -9.23 9.28 0.13c7.67,0.11 13.36,1.68 17.08,4.7 3.71,3.01 5.58,7.41 5.58,13.22l0 17.04 6.62 0.9 0 8.27 -15.06 0.41zm-15.09 0.42c-4.63,0 -8.22,-1.13 -10.77,-3.4 -2.56,-2.26 -3.83,-5.45 -3.83,-9.59 0,-4.8 1.71,-8.49 5.13,-11.05 3.42,-2.56 8.26,-3.84 14.53,-3.84 2.47,0 4.66,0.14 6.53,0.41 1.88,0.28 3.67,0.71 5.38,1.28l-1.82 7.61c-1.79,-0.41 -3.46,-0.65 -5,-0.72 -1.54,-0.07 -3.16,-0.1 -4.84,-0.1 -6.51,0 -9.76,1.85 -9.76,5.58 0,1.71 0.56,3.02 1.71,3.95 1.14,0.92 2.81,1.38 4.98,1.38 2.54,0 4.66,-0.47 6.38,-1.38 1.71,-0.93 2.98,-2.1 3.84,-3.51 0.86,-1.43 1.28,-2.9 1.28,-4.41l0 -3.56 1.98 11.25 -3.52 0 1.46 -1.33c-0.06,2.54 -0.64,4.66 -1.77,6.36 -1.12,1.69 -2.68,2.96 -4.69,3.8 -2.02,0.85 -4.42,1.27 -7.2,1.27z"/>
  <path class="fil4 str4" d="M105.81 83.21l0 -40.12c0,-15.17 7.16,-22.74 21.46,-22.74 3.29,0 6.45,0.27 9.51,0.82l-0.99 9.28c-1.82,-0.23 -3.42,-0.38 -4.8,-0.47 -1.38,-0.07 -2.7,-0.11 -3.97,-0.11 -7.37,0 -11.04,4.26 -11.04,12.82l0 40.53 -10.18 0zm-13.53 -26.02l0 -8.6 41.37 0 0 8.6 -41.37 0z"/>
  <path id="1" class="fil4 str4" d="M172.78 83.62l-0.78 -12.99 -0.58 -4.87 0 -9.69c0,-2.57 -1,-4.45 -3.02,-5.64 -2.02,-1.2 -5.03,-1.85 -9.02,-1.96l-10.91 -0.28 0.82 -9.23 9.28 0.13c7.67,0.11 13.36,1.68 17.08,4.7 3.71,3.01 5.58,7.41 5.58,13.22l0 17.04 6.62 0.9 0 8.27 -15.06 0.41zm-15.09 0.42c-4.63,0 -8.22,-1.13 -10.77,-3.4 -2.56,-2.26 -3.83,-5.45 -3.83,-9.59 0,-4.8 1.71,-8.49 5.13,-11.05 3.42,-2.56 8.26,-3.84 14.53,-3.84 2.47,0 4.66,0.14 6.53,0.41 1.88,0.28 3.67,0.71 5.38,1.28l-1.82 7.61c-1.79,-0.41 -3.46,-0.65 -5,-0.72 -1.54,-0.07 -3.16,-0.1 -4.84,-0.1 -6.51,0 -9.76,1.85 -9.76,5.58 0,1.71 0.56,3.02 1.71,3.95 1.14,0.92 2.81,1.38 4.98,1.38 2.54,0 4.66,-0.47 6.38,-1.38 1.71,-0.93 2.98,-2.1 3.84,-3.51 0.86,-1.43 1.28,-2.9 1.28,-4.41l0 -3.56 1.98 11.25 -3.52 0 1.46 -1.33c-0.06,2.54 -0.64,4.66 -1.77,6.36 -1.12,1.69 -2.68,2.96 -4.69,3.8 -2.02,0.85 -4.42,1.27 -7.2,1.27z"/>
  <path class="fil4 str4" d="M703.88 82.73l0 -40.12c0,-15.17 7.16,-22.74 21.46,-22.74 3.29,0 6.45,0.27 9.51,0.82l-0.99 9.28c-1.82,-0.23 -3.42,-0.38 -4.8,-0.47 -1.38,-0.07 -2.7,-0.11 -3.97,-0.11 -7.37,0 -11.04,4.26 -11.04,12.82l0 40.53 -10.18 0zm-13.53 -26.02l0 -8.6 41.37 0 0 8.6 -41.37 0z"/>
  <path id="1" class="fil4 str4" d="M770.85 83.14l-0.78 -12.99 -0.58 -4.87 0 -9.69c0,-2.57 -1,-4.45 -3.02,-5.64 -2.02,-1.2 -5.03,-1.85 -9.02,-1.96l-10.91 -0.28 0.82 -9.23 9.28 0.13c7.67,0.11 13.36,1.68 17.08,4.7 3.71,3.01 5.58,7.41 5.58,13.22l0 17.04 6.62 0.9 0 8.27 -15.06 0.41zm-15.09 0.42c-4.63,0 -8.22,-1.13 -10.77,-3.4 -2.56,-2.26 -3.83,-5.45 -3.83,-9.59 0,-4.8 1.71,-8.49 5.13,-11.05 3.42,-2.56 8.26,-3.84 14.53,-3.84 2.47,0 4.66,0.14 6.53,0.41 1.88,0.28 3.67,0.71 5.38,1.28l-1.82 7.61c-1.79,-0.41 -3.46,-0.65 -5,-0.72 -1.54,-0.07 -3.16,-0.1 -4.84,-0.1 -6.51,0 -9.76,1.85 -9.76,5.58 0,1.71 0.56,3.02 1.71,3.95 1.14,0.92 2.81,1.38 4.98,1.38 2.54,0 4.66,-0.47 6.38,-1.38 1.71,-0.93 2.98,-2.1 3.84,-3.51 0.86,-1.43 1.28,-2.9 1.28,-4.41l0 -3.56 1.98 11.25 -3.52 0 1.46 -1.33c-0.06,2.54 -0.64,4.66 -1.77,6.36 -1.12,1.69 -2.68,2.96 -4.69,3.8 -2.02,0.85 -4.42,1.27 -7.2,1.27z"/>
  <path class="fil4 str4" d="M1289.95 82.25l0 -40.12c0,-15.17 7.16,-22.74 21.46,-22.74 3.29,0 6.45,0.27 9.51,0.82l-0.99 9.28c-1.82,-0.23 -3.42,-0.38 -4.8,-0.47 -1.38,-0.07 -2.7,-0.11 -3.97,-0.11 -7.37,0 -11.04,4.26 -11.04,12.82l0 40.53 -10.18 0zm-13.53 -26.02l0 -8.6 41.37 0 0 8.6 -41.37 0z"/>
  <path id="1" class="fil4 str4" d="M1356.91 82.66l-0.78 -12.99 -0.58 -4.87 0 -9.69c0,-2.57 -1,-4.45 -3.02,-5.64 -2.02,-1.2 -5.03,-1.85 -9.02,-1.96l-10.91 -0.28 0.82 -9.23 9.28 0.13c7.67,0.11 13.36,1.68 17.08,4.7 3.71,3.01 5.58,7.41 5.58,13.22l0 17.04 6.62 0.9 0 8.27 -15.06 0.41zm-15.09 0.42c-4.63,0 -8.22,-1.13 -10.77,-3.4 -2.56,-2.26 -3.83,-5.45 -3.83,-9.59 0,-4.8 1.71,-8.49 5.13,-11.05 3.42,-2.56 8.26,-3.84 14.53,-3.84 2.47,0 4.66,0.14 6.53,0.41 1.88,0.28 3.67,0.71 5.38,1.28l-1.82 7.61c-1.79,-0.41 -3.46,-0.65 -5,-0.72 -1.54,-0.07 -3.16,-0.1 -4.84,-0.1 -6.51,0 -9.76,1.85 -9.76,5.58 0,1.71 0.56,3.02 1.71,3.95 1.14,0.92 2.81,1.38 4.98,1.38 2.54,0 4.66,-0.47 6.38,-1.38 1.71,-0.93 2.98,-2.1 3.84,-3.51 0.86,-1.43 1.28,-2.9 1.28,-4.41l0 -3.56 1.98 11.25 -3.52 0 1.46 -1.33c-0.06,2.54 -0.64,4.66 -1.77,6.36 -1.12,1.69 -2.68,2.96 -4.69,3.8 -2.02,0.85 -4.42,1.27 -7.2,1.27z"/>
  <path class="fil4 str4" d="M1883.14 80.49l0 -40.12c0,-15.17 7.16,-22.74 21.46,-22.74 3.29,0 6.45,0.27 9.51,0.82l-0.99 9.28c-1.82,-0.23 -3.42,-0.38 -4.8,-0.47 -1.38,-0.07 -2.7,-0.11 -3.97,-0.11 -7.37,0 -11.04,4.26 -11.04,12.82l0 40.53 -10.18 0zm-13.53 -26.02l0 -8.6 41.37 0 0 8.6 -41.37 0z"/>
  <path id="1" class="fil4 str4" d="M1950.11 80.9l-0.78 -12.99 -0.58 -4.87 0 -9.69c0,-2.57 -1,-4.45 -3.02,-5.64 -2.02,-1.2 -5.03,-1.85 -9.02,-1.96l-10.91 -0.28 0.82 -9.23 9.28 0.13c7.67,0.11 13.36,1.68 17.08,4.7 3.71,3.01 5.58,7.41 5.58,13.22l0 17.04 6.62 0.9 0 8.27 -15.06 0.41zm-15.09 0.42c-4.63,0 -8.22,-1.13 -10.77,-3.4 -2.56,-2.26 -3.83,-5.45 -3.83,-9.59 0,-4.8 1.71,-8.49 5.13,-11.05 3.42,-2.56 8.26,-3.84 14.53,-3.84 2.47,0 4.66,0.14 6.53,0.41 1.88,0.28 3.67,0.71 5.38,1.28l-1.82 7.61c-1.79,-0.41 -3.46,-0.65 -5,-0.72 -1.54,-0.07 -3.16,-0.1 -4.84,-0.1 -6.51,0 -9.76,1.85 -9.76,5.58 0,1.71 0.56,3.02 1.71,3.95 1.14,0.92 2.81,1.38 4.98,1.38 2.54,0 4.66,-0.47 6.38,-1.38 1.71,-0.93 2.98,-2.1 3.84,-3.51 0.86,-1.43 1.28,-2.9 1.28,-4.41l0 -3.56 1.98 11.25 -3.52 0 1.46 -1.33c-0.06,2.54 -0.64,4.66 -1.77,6.36 -1.12,1.69 -2.68,2.96 -4.69,3.8 -2.02,0.85 -4.42,1.27 -7.2,1.27z"/>
  <path class="fil4 str4" d="M442.11 81.23l0 -40.12c0,-15.17 7.16,-22.74 21.46,-22.74 3.29,0 6.45,0.27 9.51,0.82l-0.99 9.28c-1.82,-0.23 -3.42,-0.38 -4.8,-0.47 -1.38,-0.07 -2.7,-0.11 -3.97,-0.11 -7.37,0 -11.04,4.26 -11.04,12.82l0 40.53 -10.18 0zm-13.53 -26.02l0 -8.6 41.37 0 0 8.6 -41.37 0z"/>
  <path id="1" class="fil4 str4" d="M509.08 81.64l-0.78 -12.99 -0.58 -4.87 0 -9.69c0,-2.57 -1,-4.45 -3.02,-5.64 -2.02,-1.2 -5.03,-1.85 -9.02,-1.96l-10.91 -0.28 0.82 -9.23 9.28 0.13c7.67,0.11 13.36,1.68 17.08,4.7 3.71,3.01 5.58,7.41 5.58,13.22l0 17.04 6.62 0.9 0 8.27 -15.06 0.41zm-15.09 0.42c-4.63,0 -8.22,-1.13 -10.77,-3.4 -2.56,-2.26 -3.83,-5.45 -3.83,-9.59 0,-4.8 1.71,-8.49 5.13,-11.05 3.42,-2.56 8.26,-3.84 14.53,-3.84 2.47,0 4.66,0.14 6.53,0.41 1.88,0.28 3.67,0.71 5.38,1.28l-1.82 7.61c-1.79,-0.41 -3.46,-0.65 -5,-0.72 -1.54,-0.07 -3.16,-0.1 -4.84,-0.1 -6.51,0 -9.76,1.85 -9.76,5.58 0,1.71 0.56,3.02 1.71,3.95 1.14,0.92 2.81,1.38 4.98,1.38 2.54,0 4.66,-0.47 6.38,-1.38 1.71,-0.93 2.98,-2.1 3.84,-3.51 0.86,-1.43 1.28,-2.9 1.28,-4.41l0 -3.56 1.98 11.25 -3.52 0 1.46 -1.33c-0.06,2.54 -0.64,4.66 -1.77,6.36 -1.12,1.69 -2.68,2.96 -4.69,3.8 -2.02,0.85 -4.42,1.27 -7.2,1.27z"/>
  <path class="fil4 str4" d="M1035.52 81.88l0 -40.12c0,-15.17 7.16,-22.74 21.46,-22.74 3.29,0 6.45,0.27 9.51,0.82l-0.99 9.28c-1.82,-0.23 -3.42,-0.38 -4.8,-0.47 -1.38,-0.07 -2.7,-0.11 -3.97,-0.11 -7.37,0 -11.04,4.26 -11.04,12.82l0 40.53 -10.18 0zm-13.53 -26.02l0 -8.6 41.37 0 0 8.6 -41.37 0z"/>
  <path id="1" class="fil4 str4" d="M1102.48 82.29l-0.78 -12.99 -0.58 -4.87 0 -9.69c0,-2.57 -1,-4.45 -3.02,-5.64 -2.02,-1.2 -5.03,-1.85 -9.02,-1.96l-10.91 -0.28 0.82 -9.23 9.28 0.13c7.67,0.11 13.36,1.68 17.08,4.7 3.71,3.01 5.58,7.41 5.58,13.22l0 17.04 6.62 0.9 0 8.27 -15.06 0.41zm-15.09 0.42c-4.63,0 -8.22,-1.13 -10.77,-3.4 -2.56,-2.26 -3.83,-5.45 -3.83,-9.59 0,-4.8 1.71,-8.49 5.13,-11.05 3.42,-2.56 8.26,-3.84 14.53,-3.84 2.47,0 4.66,0.14 6.53,0.41 1.88,0.28 3.67,0.71 5.38,1.28l-1.82 7.61c-1.79,-0.41 -3.46,-0.65 -5,-0.72 -1.54,-0.07 -3.16,-0.1 -4.84,-0.1 -6.51,0 -9.76,1.85 -9.76,5.58 0,1.71 0.56,3.02 1.71,3.95 1.14,0.92 2.81,1.38 4.98,1.38 2.54,0 4.66,-0.47 6.38,-1.38 1.71,-0.93 2.98,-2.1 3.84,-3.51 0.86,-1.43 1.28,-2.9 1.28,-4.41l0 -3.56 1.98 11.25 -3.52 0 1.46 -1.33c-0.06,2.54 -0.64,4.66 -1.77,6.36 -1.12,1.69 -2.68,2.96 -4.69,3.8 -2.02,0.85 -4.42,1.27 -7.2,1.27z"/>
  <path class="fil4 str4" d="M1628.92 82.53l0 -40.12c0,-15.17 7.16,-22.74 21.46,-22.74 3.29,0 6.45,0.27 9.51,0.82l-0.99 9.28c-1.82,-0.23 -3.42,-0.38 -4.8,-0.47 -1.38,-0.07 -2.7,-0.11 -3.97,-0.11 -7.37,0 -11.04,4.26 -11.04,12.82l0 40.53 -10.18 0zm-13.53 -26.02l0 -8.6 41.37 0 0 8.6 -41.37 0z"/>
  <path id="1" class="fil4 str4" d="M1695.89 82.94l-0.78 -12.99 -0.58 -4.87 0 -9.69c0,-2.57 -1,-4.45 -3.02,-5.64 -2.02,-1.2 -5.03,-1.85 -9.02,-1.96l-10.91 -0.28 0.82 -9.23 9.28 0.13c7.67,0.11 13.36,1.68 17.08,4.7 3.71,3.01 5.58,7.41 5.58,13.22l0 17.04 6.62 0.9 0 8.27 -15.06 0.41zm-15.09 0.42c-4.63,0 -8.22,-1.13 -10.77,-3.4 -2.56,-2.26 -3.83,-5.45 -3.83,-9.59 0,-4.8 1.71,-8.49 5.13,-11.05 3.42,-2.56 8.26,-3.84 14.53,-3.84 2.47,0 4.66,0.14 6.53,0.41 1.88,0.28 3.67,0.71 5.38,1.28l-1.82 7.61c-1.79,-0.41 -3.46,-0.65 -5,-0.72 -1.54,-0.07 -3.16,-0.1 -4.84,-0.1 -6.51,0 -9.76,1.85 -9.76,5.58 0,1.71 0.56,3.02 1.71,3.95 1.14,0.92 2.81,1.38 4.98,1.38 2.54,0 4.66,-0.47 6.38,-1.38 1.71,-0.93 2.98,-2.1 3.84,-3.51 0.86,-1.43 1.28,-2.9 1.28,-4.41l0 -3.56 1.98 11.25 -3.52 0 1.46 -1.33c-0.06,2.54 -0.64,4.66 -1.77,6.36 -1.12,1.69 -2.68,2.96 -4.69,3.8 -2.02,0.85 -4.42,1.27 -7.2,1.27z"/>
  <path class="fil4 str4" d="M2222.33 83.18l0 -40.12c0,-15.17 7.16,-22.74 21.46,-22.74 3.29,0 6.45,0.27 9.51,0.82l-0.99 9.28c-1.82,-0.23 -3.42,-0.38 -4.8,-0.47 -1.38,-0.07 -2.7,-0.11 -3.97,-0.11 -7.37,0 -11.04,4.26 -11.04,12.82l0 40.53 -10.18 0zm-13.53 -26.02l0 -8.6 41.37 0 0 8.6 -41.37 0z"/>
  <path id="1" class="fil4 str4" d="M2289.29 83.59l-0.78 -12.99 -0.58 -4.87 0 -9.69c0,-2.57 -1,-4.45 -3.02,-5.64 -2.02,-1.2 -5.03,-1.85 -9.02,-1.96l-10.91 -0.28 0.82 -9.23 9.28 0.13c7.67,0.11 13.36,1.68 17.08,4.7 3.71,3.01 5.58,7.41 5.58,13.22l0 17.04 6.62 0.9 0 8.27 -15.06 0.41zm-15.09 0.42c-4.63,0 -8.22,-1.13 -10.77,-3.4 -2.56,-2.26 -3.83,-5.45 -3.83,-9.59 0,-4.8 1.71,-8.49 5.13,-11.05 3.42,-2.56 8.26,-3.84 14.53,-3.84 2.47,0 4.66,0.14 6.53,0.41 1.88,0.28 3.67,0.71 5.38,1.28l-1.82 7.61c-1.79,-0.41 -3.46,-0.65 -5,-0.72 -1.54,-0.07 -3.16,-0.1 -4.84,-0.1 -6.51,0 -9.76,1.85 -9.76,5.58 0,1.71 0.56,3.02 1.71,3.95 1.14,0.92 2.81,1.38 4.98,1.38 2.54,0 4.66,-0.47 6.38,-1.38 1.71,-0.93 2.98,-2.1 3.84,-3.51 0.86,-1.43 1.28,-2.9 1.28,-4.41l0 -3.56 1.98 11.25 -3.52 0 1.46 -1.33c-0.06,2.54 -0.64,4.66 -1.77,6.36 -1.12,1.69 -2.68,2.96 -4.69,3.8 -2.02,0.85 -4.42,1.27 -7.2,1.27z"/>
  <path class="fil4 str4" d="M701.54 961l0 -40.12c0,-15.17 7.16,-22.74 21.46,-22.74 3.29,0 6.45,0.27 9.51,0.82l-0.99 9.28c-1.82,-0.23 -3.42,-0.38 -4.8,-0.47 -1.38,-0.07 -2.7,-0.11 -3.97,-0.11 -7.37,0 -11.04,4.26 -11.04,12.82l0 40.53 -10.18 0zm-13.53 -26.02l0 -8.6 41.37 0 0 8.6 -41.37 0z"/>
  <path id="1" class="fil4 str4" d="M768.51 961.41l-0.78 -12.99 -0.58 -4.87 0 -9.69c0,-2.57 -1,-4.45 -3.02,-5.64 -2.02,-1.2 -5.03,-1.85 -9.02,-1.96l-10.91 -0.28 0.82 -9.23 9.28 0.13c7.67,0.11 13.36,1.68 17.08,4.7 3.71,3.01 5.58,7.41 5.58,13.22l0 17.04 6.62 0.9 0 8.27 -15.06 0.41zm-15.09 0.42c-4.63,0 -8.22,-1.13 -10.77,-3.4 -2.56,-2.26 -3.83,-5.45 -3.83,-9.59 0,-4.8 1.71,-8.49 5.13,-11.05 3.42,-2.56 8.26,-3.84 14.53,-3.84 2.47,0 4.66,0.14 6.53,0.41 1.88,0.28 3.67,0.71 5.38,1.28l-1.82 7.61c-1.79,-0.41 -3.46,-0.65 -5,-0.72 -1.54,-0.07 -3.16,-0.1 -4.84,-0.1 -6.51,0 -9.76,1.85 -9.76,5.58 0,1.71 0.56,3.02 1.71,3.95 1.14,0.92 2.81,1.38 4.98,1.38 2.54,0 4.66,-0.47 6.38,-1.38 1.71,-0.93 2.98,-2.1 3.84,-3.51 0.86,-1.43 1.28,-2.9 1.28,-4.41l0 -3.56 1.98 11.25 -3.52 0 1.46 -1.33c-0.06,2.54 -0.64,4.66 -1.77,6.36 -1.12,1.69 -2.68,2.96 -4.69,3.8 -2.02,0.85 -4.42,1.27 -7.2,1.27z"/>
  <path class="fil4 str4" d="M1292.41 961.65l0 -40.12c0,-15.17 7.16,-22.74 21.46,-22.74 3.29,0 6.45,0.27 9.51,0.82l-0.99 9.28c-1.82,-0.23 -3.42,-0.38 -4.8,-0.47 -1.38,-0.07 -2.7,-0.11 -3.97,-0.11 -7.37,0 -11.04,4.26 -11.04,12.82l0 40.53 -10.18 0zm-13.53 -26.02l0 -8.6 41.37 0 0 8.6 -41.37 0z"/>
  <path id="1" class="fil4 str4" d="M1359.38 962.06l-0.78 -12.99 -0.58 -4.87 0 -9.69c0,-2.57 -1,-4.45 -3.02,-5.64 -2.02,-1.2 -5.03,-1.85 -9.02,-1.96l-10.91 -0.28 0.82 -9.23 9.28 0.13c7.67,0.11 13.36,1.68 17.08,4.7 3.71,3.01 5.58,7.41 5.58,13.22l0 17.04 6.62 0.9 0 8.27 -15.06 0.41zm-15.09 0.42c-4.63,0 -8.22,-1.13 -10.77,-3.4 -2.56,-2.26 -3.83,-5.45 -3.83,-9.59 0,-4.8 1.71,-8.49 5.13,-11.05 3.42,-2.56 8.26,-3.84 14.53,-3.84 2.47,0 4.66,0.14 6.53,0.41 1.88,0.28 3.67,0.71 5.38,1.28l-1.82 7.61c-1.79,-0.41 -3.46,-0.65 -5,-0.72 -1.54,-0.07 -3.16,-0.1 -4.84,-0.1 -6.51,0 -9.76,1.85 -9.76,5.58 0,1.71 0.56,3.02 1.71,3.95 1.14,0.92 2.81,1.38 4.98,1.38 2.54,0 4.66,-0.47 6.38,-1.38 1.71,-0.93 2.98,-2.1 3.84,-3.51 0.86,-1.43 1.28,-2.9 1.28,-4.41l0 -3.56 1.98 11.25 -3.52 0 1.46 -1.33c-0.06,2.54 -0.64,4.66 -1.77,6.36 -1.12,1.69 -2.68,2.96 -4.69,3.8 -2.02,0.85 -4.42,1.27 -7.2,1.27z"/>
  <path class="fil4 str4" d="M1883.28 962.3l0 -40.12c0,-15.17 7.16,-22.74 21.46,-22.74 3.29,0 6.45,0.27 9.51,0.82l-0.99 9.28c-1.82,-0.23 -3.42,-0.38 -4.8,-0.47 -1.38,-0.07 -2.7,-0.11 -3.97,-0.11 -7.37,0 -11.04,4.26 -11.04,12.82l0 40.53 -10.18 0zm-13.53 -26.02l0 -8.6 41.37 0 0 8.6 -41.37 0z"/>
  <path id="1" class="fil4 str4" d="M1950.25 962.71l-0.78 -12.99 -0.58 -4.87 0 -9.69c0,-2.57 -1,-4.45 -3.02,-5.64 -2.02,-1.2 -5.03,-1.85 -9.02,-1.96l-10.91 -0.28 0.82 -9.23 9.28 0.13c7.67,0.11 13.36,1.68 17.08,4.7 3.71,3.01 5.58,7.41 5.58,13.22l0 17.04 6.62 0.9 0 8.27 -15.06 0.41zm-15.09 0.42c-4.63,0 -8.22,-1.13 -10.77,-3.4 -2.56,-2.26 -3.83,-5.45 -3.83,-9.59 0,-4.8 1.71,-8.49 5.13,-11.05 3.42,-2.56 8.26,-3.84 14.53,-3.84 2.47,0 4.66,0.14 6.53,0.41 1.88,0.28 3.67,0.71 5.38,1.28l-1.82 7.61c-1.79,-0.41 -3.46,-0.65 -5,-0.72 -1.54,-0.07 -3.16,-0.1 -4.84,-0.1 -6.51,0 -9.76,1.85 -9.76,5.58 0,1.71 0.56,3.02 1.71,3.95 1.14,0.92 2.81,1.38 4.98,1.38 2.54,0 4.66,-0.47 6.38,-1.38 1.71,-0.93 2.98,-2.1 3.84,-3.51 0.86,-1.43 1.28,-2.9 1.28,-4.41l0 -3.56 1.98 11.25 -3.52 0 1.46 -1.33c-0.06,2.54 -0.64,4.66 -1.77,6.36 -1.12,1.69 -2.68,2.96 -4.69,3.8 -2.02,0.85 -4.42,1.27 -7.2,1.27z"/>
  <path class="fil4 str4" d="M445.05 961.85l0 -40.12c0,-15.17 7.16,-22.74 21.46,-22.74 3.29,0 6.45,0.27 9.51,0.82l-0.99 9.28c-1.82,-0.23 -3.42,-0.38 -4.8,-0.47 -1.38,-0.07 -2.7,-0.11 -3.97,-0.11 -7.37,0 -11.04,4.26 -11.04,12.82l0 40.53 -10.18 0zm-13.53 -26.02l0 -8.6 41.37 0 0 8.6 -41.37 0z"/>
  <path id="1" class="fil4 str4" d="M512.02 962.26l-0.78 -12.99 -0.58 -4.87 0 -9.69c0,-2.57 -1,-4.45 -3.02,-5.64 -2.02,-1.2 -5.03,-1.85 -9.02,-1.96l-10.91 -0.28 0.82 -9.23 9.28 0.13c7.67,0.11 13.36,1.68 17.08,4.7 3.71,3.01 5.58,7.41 5.58,13.22l0 17.04 6.62 0.9 0 8.27 -15.06 0.41zm-15.09 0.42c-4.63,0 -8.22,-1.13 -10.77,-3.4 -2.56,-2.26 -3.83,-5.45 -3.83,-9.59 0,-4.8 1.71,-8.49 5.13,-11.05 3.42,-2.56 8.26,-3.84 14.53,-3.84 2.47,0 4.66,0.14 6.53,0.41 1.88,0.28 3.67,0.71 5.38,1.28l-1.82 7.61c-1.79,-0.41 -3.46,-0.65 -5,-0.72 -1.54,-0.07 -3.16,-0.1 -4.84,-0.1 -6.51,0 -9.76,1.85 -9.76,5.58 0,1.71 0.56,3.02 1.71,3.95 1.14,0.92 2.81,1.38 4.98,1.38 2.54,0 4.66,-0.47 6.38,-1.38 1.71,-0.93 2.98,-2.1 3.84,-3.51 0.86,-1.43 1.28,-2.9 1.28,-4.41l0 -3.56 1.98 11.25 -3.52 0 1.46 -1.33c-0.06,2.54 -0.64,4.66 -1.77,6.36 -1.12,1.69 -2.68,2.96 -4.69,3.8 -2.02,0.85 -4.42,1.27 -7.2,1.27z"/>
  <path class="fil4 str4" d="M1041.43 962.79l0 -40.12c0,-15.17 7.16,-22.74 21.46,-22.74 3.29,0 6.45,0.27 9.51,0.82l-0.99 9.28c-1.82,-0.23 -3.42,-0.38 -4.8,-0.47 -1.38,-0.07 -2.7,-0.11 -3.97,-0.11 -7.37,0 -11.04,4.26 -11.04,12.82l0 40.53 -10.18 0zm-13.53 -26.02l0 -8.6 41.37 0 0 8.6 -41.37 0z"/>
  <path id="1" class="fil4 str4" d="M1108.39 963.2l-0.78 -12.99 -0.58 -4.87 0 -9.69c0,-2.57 -1,-4.45 -3.02,-5.64 -2.02,-1.2 -5.03,-1.85 -9.02,-1.96l-10.91 -0.28 0.82 -9.23 9.28 0.13c7.67,0.11 13.36,1.68 17.08,4.7 3.71,3.01 5.58,7.41 5.58,13.22l0 17.04 6.62 0.9 0 8.27 -15.06 0.41zm-15.09 0.42c-4.63,0 -8.22,-1.13 -10.77,-3.4 -2.56,-2.26 -3.83,-5.45 -3.83,-9.59 0,-4.8 1.71,-8.49 5.13,-11.05 3.42,-2.56 8.26,-3.84 14.53,-3.84 2.47,0 4.66,0.14 6.53,0.41 1.88,0.28 3.67,0.71 5.38,1.28l-1.82 7.61c-1.79,-0.41 -3.46,-0.65 -5,-0.72 -1.54,-0.07 -3.16,-0.1 -4.84,-0.1 -6.51,0 -9.76,1.85 -9.76,5.58 0,1.71 0.56,3.02 1.71,3.95 1.14,0.92 2.81,1.38 4.98,1.38 2.54,0 4.66,-0.47 6.38,-1.38 1.71,-0.93 2.98,-2.1 3.84,-3.51 0.86,-1.43 1.28,-2.9 1.28,-4.41l0 -3.56 1.98 11.25 -3.52 0 1.46 -1.33c-0.06,2.54 -0.64,4.66 -1.77,6.36 -1.12,1.69 -2.68,2.96 -4.69,3.8 -2.02,0.85 -4.42,1.27 -7.2,1.27z"/>
  <path class="fil4 str4" d="M1635.4 961.32l0 -40.12c0,-15.17 7.16,-22.74 21.46,-22.74 3.29,0 6.45,0.27 9.51,0.82l-0.99 9.28c-1.82,-0.23 -3.42,-0.38 -4.8,-0.47 -1.38,-0.07 -2.7,-0.11 -3.97,-0.11 -7.37,0 -11.04,4.26 -11.04,12.82l0 40.53 -10.18 0zm-13.53 -26.02l0 -8.6 41.37 0 0 8.6 -41.37 0z"/>
  <path id="1" class="fil4 str4" d="M1702.36 961.73l-0.78 -12.99 -0.58 -4.87 0 -9.69c0,-2.57 -1,-4.45 -3.02,-5.64 -2.02,-1.2 -5.03,-1.85 -9.02,-1.96l-10.91 -0.28 0.82 -9.23 9.28 0.13c7.67,0.11 13.36,1.68 17.08,4.7 3.71,3.01 5.58,7.41 5.58,13.22l0 17.04 6.62 0.9 0 8.27 -15.06 0.41zm-15.09 0.42c-4.63,0 -8.22,-1.13 -10.77,-3.4 -2.56,-2.26 -3.83,-5.45 -3.83,-9.59 0,-4.8 1.71,-8.49 5.13,-11.05 3.42,-2.56 8.26,-3.84 14.53,-3.84 2.47,0 4.66,0.14 6.53,0.41 1.88,0.28 3.67,0.71 5.38,1.28l-1.82 7.61c-1.79,-0.41 -3.46,-0.65 -5,-0.72 -1.54,-0.07 -3.16,-0.1 -4.84,-0.1 -6.51,0 -9.76,1.85 -9.76,5.58 0,1.71 0.56,3.02 1.71,3.95 1.14,0.92 2.81,1.38 4.98,1.38 2.54,0 4.66,-0.47 6.38,-1.38 1.71,-0.93 2.98,-2.1 3.84,-3.51 0.86,-1.43 1.28,-2.9 1.28,-4.41l0 -3.56 1.98 11.25 -3.52 0 1.46 -1.33c-0.06,2.54 -0.64,4.66 -1.77,6.36 -1.12,1.69 -2.68,2.96 -4.69,3.8 -2.02,0.85 -4.42,1.27 -7.2,1.27z"/>
  <path class="fil4 str4" d="M2226.97 962.25l0 -40.12c0,-15.17 7.16,-22.74 21.46,-22.74 3.29,0 6.45,0.27 9.51,0.82l-0.99 9.28c-1.82,-0.23 -3.42,-0.38 -4.8,-0.47 -1.38,-0.07 -2.7,-0.11 -3.97,-0.11 -7.37,0 -11.04,4.26 -11.04,12.82l0 40.53 -10.18 0zm-13.53 -26.02l0 -8.6 41.37 0 0 8.6 -41.37 0z"/>
  <path id="1" class="fil4 str4" d="M2293.93 962.66l-0.78 -12.99 -0.58 -4.87 0 -9.69c0,-2.57 -1,-4.45 -3.02,-5.64 -2.02,-1.2 -5.03,-1.85 -9.02,-1.96l-10.91 -0.28 0.82 -9.23 9.28 0.13c7.67,0.11 13.36,1.68 17.08,4.7 3.71,3.01 5.58,7.41 5.58,13.22l0 17.04 6.62 0.9 0 8.27 -15.06 0.41zm-15.09 0.42c-4.63,0 -8.22,-1.13 -10.77,-3.4 -2.56,-2.26 -3.83,-5.45 -3.83,-9.59 0,-4.8 1.71,-8.49 5.13,-11.05 3.42,-2.56 8.26,-3.84 14.53,-3.84 2.47,0 4.66,0.14 6.53,0.41 1.88,0.28 3.67,0.71 5.38,1.28l-1.82 7.61c-1.79,-0.41 -3.46,-0.65 -5,-0.72 -1.54,-0.07 -3.16,-0.1 -4.84,-0.1 -6.51,0 -9.76,1.85 -9.76,5.58 0,1.71 0.56,3.02 1.71,3.95 1.14,0.92 2.81,1.38 4.98,1.38 2.54,0 4.66,-0.47 6.38,-1.38 1.71,-0.93 2.98,-2.1 3.84,-3.51 0.86,-1.43 1.28,-2.9 1.28,-4.41l0 -3.56 1.98 11.25 -3.52 0 1.46 -1.33c-0.06,2.54 -0.64,4.66 -1.77,6.36 -1.12,1.69 -2.68,2.96 -4.69,3.8 -2.02,0.85 -4.42,1.27 -7.2,1.27z"/>
  <polygon class="fil5" points="660.77,963.91 660.77,963.9 660.8,963.9 660.8,963.91 "/>
  <path class="fil4 str4" d="M84.22 1059.88c-13.63,0 -20.43,-9.94 -20.43,-29.79 0,-20.4 6.8,-30.61 20.43,-30.61 13.62,0 20.43,10.21 20.43,30.61 0,19.85 -6.81,29.79 -20.43,29.79zm-0.04 -22.8c-1.74,0 -3.13,-0.64 -4.19,-1.89 -1.07,-1.27 -1.59,-2.96 -1.59,-5.1 -0.03,-2.09 0.49,-3.78 1.57,-5.07 1.07,-1.27 2.48,-1.92 4.22,-1.92 1.74,-0.03 3.15,0.61 4.22,1.91 1.07,1.3 1.59,2.99 1.56,5.08 0,2.13 -0.54,3.83 -1.59,5.11 -1.06,1.28 -2.46,1.91 -4.19,1.88zm0.04 13.82c6.75,0.03 10.14,-6.9 10.14,-20.81 0,-14.44 -3.39,-21.66 -10.14,-21.63 -6.85,-0.03 -10.25,7.19 -10.22,21.63 -0.03,13.91 3.37,20.84 10.22,20.81z"/>
  <polygon id="1" class="fil4 str4" points="112.92,1066.91 145.43,992.46 155.78,992.46 123.27,1066.91 "/>
  <path id="2" class="fil4 str4" d="M179.64 1059.05l0 -58.73 10.18 0 0 58.73 -10.18 0zm-14.34 0l0 -8.9 15.18 0.04 0 8.85 -15.18 0zm23.69 0l0 -8.9 13.61 0.04 0 8.85 -13.61 0zm-22.87 -44.22l0 -9.56 13.53 -4.95 0 9.76 -13.53 4.76z"/>
  <path class="fil4 str4" d="M81.75 182.75c-13.63,0 -20.43,-9.94 -20.43,-29.79 0,-20.4 6.8,-30.61 20.43,-30.61 13.62,0 20.43,10.21 20.43,30.61 0,19.85 -6.81,29.79 -20.43,29.79zm-0.04 -22.8c-1.74,0 -3.13,-0.64 -4.19,-1.89 -1.07,-1.27 -1.59,-2.96 -1.59,-5.1 -0.03,-2.09 0.49,-3.78 1.57,-5.07 1.07,-1.27 2.48,-1.92 4.22,-1.92 1.74,-0.03 3.15,0.61 4.22,1.91 1.07,1.3 1.59,2.99 1.56,5.08 0,2.13 -0.54,3.83 -1.59,5.11 -1.06,1.28 -2.46,1.91 -4.19,1.88zm0.04 13.82c6.75,0.03 10.14,-6.9 10.14,-20.81 0,-14.44 -3.39,-21.66 -10.14,-21.63 -6.85,-0.03 -10.25,7.19 -10.22,21.63 -0.03,13.91 3.37,20.84 10.22,20.81z"/>
  <polygon id="1" class="fil4 str4" points="110.45,189.78 142.97,115.32 153.32,115.32 120.8,189.78 "/>
  <path id="2" class="fil4 str4" d="M177.18 181.91l0 -58.73 10.18 0 0 58.73 -10.18 0zm-14.34 0l0 -8.9 15.18 0.04 0 8.85 -15.18 0zm23.69 0l0 -8.9 13.61 0.04 0 8.85 -13.61 0zm-22.87 -44.22l0 -9.56 13.53 -4.95 0 9.76 -13.53 4.76z"/>
  <path class="fil4 str4" d="M679.83 182.27c-13.63,0 -20.43,-9.94 -20.43,-29.79 0,-20.4 6.8,-30.61 20.43,-30.61 13.62,0 20.43,10.21 20.43,30.61 0,19.85 -6.81,29.79 -20.43,29.79zm-0.04 -22.8c-1.74,0 -3.13,-0.64 -4.19,-1.89 -1.07,-1.27 -1.59,-2.96 -1.59,-5.1 -0.03,-2.09 0.49,-3.78 1.57,-5.07 1.07,-1.27 2.48,-1.92 4.22,-1.92 1.74,-0.03 3.15,0.61 4.22,1.91 1.07,1.3 1.59,2.99 1.56,5.08 0,2.13 -0.54,3.83 -1.59,5.11 -1.06,1.28 -2.46,1.91 -4.19,1.88zm0.04 13.82c6.75,0.03 10.14,-6.9 10.14,-20.81 0,-14.44 -3.39,-21.66 -10.14,-21.63 -6.85,-0.03 -10.25,7.19 -10.22,21.63 -0.03,13.91 3.37,20.84 10.22,20.81z"/>
  <polygon id="1" class="fil4 str4" points="708.53,189.29 741.05,114.84 751.39,114.84 718.88,189.29 "/>
  <path id="2" class="fil4 str4" d="M775.25 181.43l0 -58.73 10.18 0 0 58.73 -10.18 0zm-14.34 0l0 -8.9 15.18 0.04 0 8.85 -15.18 0zm23.69 0l0 -8.9 13.61 0.04 0 8.85 -13.61 0zm-22.87 -44.22l0 -9.56 13.53 -4.95 0 9.76 -13.53 4.76z"/>
  <path class="fil4 str4" d="M1265.89 181.78c-13.63,0 -20.43,-9.94 -20.43,-29.79 0,-20.4 6.8,-30.61 20.43,-30.61 13.62,0 20.43,10.21 20.43,30.61 0,19.85 -6.81,29.79 -20.43,29.79zm-0.04 -22.8c-1.74,0 -3.13,-0.64 -4.19,-1.89 -1.07,-1.27 -1.59,-2.96 -1.59,-5.1 -0.03,-2.09 0.49,-3.78 1.57,-5.07 1.07,-1.27 2.48,-1.92 4.22,-1.92 1.74,-0.03 3.15,0.61 4.22,1.91 1.07,1.3 1.59,2.99 1.56,5.08 0,2.13 -0.54,3.83 -1.59,5.11 -1.06,1.28 -2.46,1.91 -4.19,1.88zm0.04 13.82c6.75,0.03 10.14,-6.9 10.14,-20.81 0,-14.44 -3.39,-21.66 -10.14,-21.63 -6.85,-0.03 -10.25,7.19 -10.22,21.63 -0.03,13.91 3.37,20.84 10.22,20.81z"/>
  <polygon id="1" class="fil4 str4" points="1294.59,188.81 1327.11,114.35 1337.46,114.35 1304.94,188.81 "/>
  <path id="2" class="fil4 str4" d="M1361.32 180.95l0 -58.73 10.18 0 0 58.73 -10.18 0zm-14.34 0l0 -8.9 15.18 0.04 0 8.85 -15.18 0zm23.69 0l0 -8.9 13.61 0.04 0 8.85 -13.61 0zm-22.87 -44.22l0 -9.56 13.53 -4.95 0 9.76 -13.53 4.76z"/>
  <path class="fil4 str4" d="M1859.09 180.03c-13.63,0 -20.43,-9.94 -20.43,-29.79 0,-20.4 6.8,-30.61 20.43,-30.61 13.62,0 20.43,10.21 20.43,30.61 0,19.85 -6.81,29.79 -20.43,29.79zm-0.04 -22.8c-1.74,0 -3.13,-0.64 -4.19,-1.89 -1.07,-1.27 -1.59,-2.96 -1.59,-5.1 -0.03,-2.09 0.49,-3.78 1.57,-5.07 1.07,-1.27 2.48,-1.92 4.22,-1.92 1.74,-0.03 3.15,0.61 4.22,1.91 1.07,1.3 1.59,2.99 1.56,5.08 0,2.13 -0.54,3.83 -1.59,5.11 -1.06,1.28 -2.46,1.91 -4.19,1.88zm0.04 13.82c6.75,0.03 10.14,-6.9 10.14,-20.81 0,-14.44 -3.39,-21.66 -10.14,-21.63 -6.85,-0.03 -10.25,7.19 -10.22,21.63 -0.03,13.91 3.37,20.84 10.22,20.81z"/>
  <polygon id="1" class="fil4 str4" points="1887.79,187.06 1920.31,112.6 1930.66,112.6 1898.14,187.06 "/>
  <path id="2" class="fil4 str4" d="M1954.52 179.2l0 -58.73 10.18 0 0 58.73 -10.18 0zm-14.34 0l0 -8.9 15.18 0.04 0 8.85 -15.18 0zm23.69 0l0 -8.9 13.61 0.04 0 8.85 -13.61 0zm-22.87 -44.22l0 -9.56 13.53 -4.95 0 9.76 -13.53 4.76z"/>
  <path class="fil4 str4" d="M414.2 179.93l0 -58.73 10.18 0 0 58.73 -10.18 0zm-14.34 0l0 -8.9 15.18 0.04 0 8.85 -15.18 0zm23.69 0l0 -8.9 13.61 0.04 0 8.85 -13.61 0zm-22.87 -44.22l0 -9.56 13.53 -4.95 0 9.76 -13.53 4.76z"/>
  <polygon id="1" class="fil4 str4" points="446.76,187.8 479.27,113.34 489.62,113.34 457.11,187.8 "/>
  <path id="2" class="fil4 str4" d="M517.34 180.77c-13.63,0 -20.43,-9.94 -20.43,-29.79 0,-20.4 6.8,-30.61 20.43,-30.61 13.62,0 20.43,10.21 20.43,30.61 0,19.85 -6.81,29.79 -20.43,29.79zm-0.04 -22.8c-1.74,0 -3.13,-0.64 -4.19,-1.89 -1.07,-1.27 -1.59,-2.96 -1.59,-5.1 -0.03,-2.09 0.49,-3.78 1.57,-5.07 1.07,-1.27 2.48,-1.92 4.22,-1.92 1.74,-0.03 3.15,0.61 4.22,1.91 1.07,1.3 1.59,2.99 1.56,5.08 0,2.13 -0.54,3.83 -1.59,5.11 -1.06,1.28 -2.46,1.91 -4.19,1.88zm0.04 13.82c6.75,0.03 10.14,-6.9 10.14,-20.81 0,-14.44 -3.39,-21.66 -10.14,-21.63 -6.85,-0.03 -10.25,7.19 -10.22,21.63 -0.03,13.91 3.37,20.84 10.22,20.81z"/>
  <path class="fil4 str4" d="M1007.61 180.59l0 -58.73 10.18 0 0 58.73 -10.18 0zm-14.34 0l0 -8.9 15.18 0.04 0 8.85 -15.18 0zm23.69 0l0 -8.9 13.61 0.04 0 8.85 -13.61 0zm-22.87 -44.22l0 -9.56 13.53 -4.95 0 9.76 -13.53 4.76z"/>
  <polygon id="1" class="fil4 str4" points="1040.16,188.45 1072.68,113.99 1083.03,113.99 1050.51,188.45 "/>
  <path id="2" class="fil4 str4" d="M1110.75 181.42c-13.63,0 -20.43,-9.94 -20.43,-29.79 0,-20.4 6.8,-30.61 20.43,-30.61 13.62,0 20.43,10.21 20.43,30.61 0,19.85 -6.81,29.79 -20.43,29.79zm-0.04 -22.8c-1.74,0 -3.13,-0.64 -4.19,-1.89 -1.07,-1.27 -1.59,-2.96 -1.59,-5.1 -0.03,-2.09 0.49,-3.78 1.57,-5.07 1.07,-1.27 2.48,-1.92 4.22,-1.92 1.74,-0.03 3.15,0.61 4.22,1.91 1.07,1.3 1.59,2.99 1.56,5.08 0,2.13 -0.54,3.83 -1.59,5.11 -1.06,1.28 -2.46,1.91 -4.19,1.88zm0.04 13.82c6.75,0.03 10.14,-6.9 10.14,-20.81 0,-14.44 -3.39,-21.66 -10.14,-21.63 -6.85,-0.03 -10.25,7.19 -10.22,21.63 -0.03,13.91 3.37,20.84 10.22,20.81z"/>
  <path class="fil4 str4" d="M1601.01 181.24l0 -58.73 10.18 0 0 58.73 -10.18 0zm-14.34 0l0 -8.9 15.18 0.04 0 8.85 -15.18 0zm23.69 0l0 -8.9 13.61 0.04 0 8.85 -13.61 0zm-22.87 -44.22l0 -9.56 13.53 -4.95 0 9.76 -13.53 4.76z"/>
  <polygon id="1" class="fil4 str4" points="1633.57,189.1 1666.08,114.64 1676.43,114.64 1643.92,189.1 "/>
  <path id="2" class="fil4 str4" d="M1704.15 182.07c-13.63,0 -20.43,-9.94 -20.43,-29.79 0,-20.4 6.8,-30.61 20.43,-30.61 13.62,0 20.43,10.21 20.43,30.61 0,19.85 -6.81,29.79 -20.43,29.79zm-0.04 -22.8c-1.74,0 -3.13,-0.64 -4.19,-1.89 -1.07,-1.27 -1.59,-2.96 -1.59,-5.1 -0.03,-2.09 0.49,-3.78 1.57,-5.07 1.07,-1.27 2.48,-1.92 4.22,-1.92 1.74,-0.03 3.15,0.61 4.22,1.91 1.07,1.3 1.59,2.99 1.56,5.08 0,2.13 -0.54,3.83 -1.59,5.11 -1.06,1.28 -2.46,1.91 -4.19,1.88zm0.04 13.82c6.75,0.03 10.14,-6.9 10.14,-20.81 0,-14.44 -3.39,-21.66 -10.14,-21.63 -6.85,-0.03 -10.25,7.19 -10.22,21.63 -0.03,13.91 3.37,20.84 10.22,20.81z"/>
  <path class="fil4 str4" d="M2194.41 181.89l0 -58.73 10.18 0 0 58.73 -10.18 0zm-14.34 0l0 -8.9 15.18 0.04 0 8.85 -15.18 0zm23.69 0l0 -8.9 13.61 0.04 0 8.85 -13.61 0zm-22.87 -44.22l0 -9.56 13.53 -4.95 0 9.76 -13.53 4.76z"/>
  <polygon id="1" class="fil4 str4" points="2226.97,189.75 2259.49,115.29 2269.84,115.29 2237.32,189.75 "/>
  <path id="2" class="fil4 str4" d="M2297.55 182.72c-13.63,0 -20.43,-9.94 -20.43,-29.79 0,-20.4 6.8,-30.61 20.43,-30.61 13.62,0 20.43,10.21 20.43,30.61 0,19.85 -6.81,29.79 -20.43,29.79zm-0.04 -22.8c-1.74,0 -3.13,-0.64 -4.19,-1.89 -1.07,-1.27 -1.59,-2.96 -1.59,-5.1 -0.03,-2.09 0.49,-3.78 1.57,-5.07 1.07,-1.27 2.48,-1.92 4.22,-1.92 1.74,-0.03 3.15,0.61 4.22,1.91 1.07,1.3 1.59,2.99 1.56,5.08 0,2.13 -0.54,3.83 -1.59,5.11 -1.06,1.28 -2.46,1.91 -4.19,1.88zm0.04 13.82c6.75,0.03 10.14,-6.9 10.14,-20.81 0,-14.44 -3.39,-21.66 -10.14,-21.63 -6.85,-0.03 -10.25,7.19 -10.22,21.63 -0.03,13.91 3.37,20.84 10.22,20.81z"/>
  <path class="fil4 str4" d="M677.49 1060.54c-13.63,0 -20.43,-9.94 -20.43,-29.79 0,-20.4 6.8,-30.61 20.43,-30.61 13.62,0 20.43,10.21 20.43,30.61 0,19.85 -6.81,29.79 -20.43,29.79zm-0.04 -22.8c-1.74,0 -3.13,-0.64 -4.19,-1.89 -1.07,-1.27 -1.59,-2.96 -1.59,-5.1 -0.03,-2.09 0.49,-3.78 1.57,-5.07 1.07,-1.27 2.48,-1.92 4.22,-1.92 1.74,-0.03 3.15,0.61 4.22,1.91 1.07,1.3 1.59,2.99 1.56,5.08 0,2.13 -0.54,3.83 -1.59,5.11 -1.06,1.28 -2.46,1.91 -4.19,1.88zm0.04 13.82c6.75,0.03 10.14,-6.9 10.14,-20.81 0,-14.44 -3.39,-21.66 -10.14,-21.63 -6.85,-0.03 -10.25,7.19 -10.22,21.63 -0.03,13.91 3.37,20.84 10.22,20.81z"/>
  <polygon id="1" class="fil4 str4" points="706.19,1067.56 738.7,993.11 749.05,993.11 716.54,1067.56 "/>
  <path id="2" class="fil4 str4" d="M772.91 1059.7l0 -58.73 10.18 0 0 58.73 -10.18 0zm-14.34 0l0 -8.9 15.18 0.04 0 8.85 -15.18 0zm23.69 0l0 -8.9 13.61 0.04 0 8.85 -13.61 0zm-22.87 -44.22l0 -9.56 13.53 -4.95 0 9.76 -13.53 4.76z"/>
  <path class="fil4 str4" d="M1268.36 1061.19c-13.63,0 -20.43,-9.94 -20.43,-29.79 0,-20.4 6.8,-30.61 20.43,-30.61 13.62,0 20.43,10.21 20.43,30.61 0,19.85 -6.81,29.79 -20.43,29.79zm-0.04 -22.8c-1.74,0 -3.13,-0.64 -4.19,-1.89 -1.07,-1.27 -1.59,-2.96 -1.59,-5.1 -0.03,-2.09 0.49,-3.78 1.57,-5.07 1.07,-1.27 2.48,-1.92 4.22,-1.92 1.74,-0.03 3.15,0.61 4.22,1.91 1.07,1.3 1.59,2.99 1.56,5.08 0,2.13 -0.54,3.83 -1.59,5.11 -1.06,1.28 -2.46,1.91 -4.19,1.88zm0.04 13.82c6.75,0.03 10.14,-6.9 10.14,-20.81 0,-14.44 -3.39,-21.66 -10.14,-21.63 -6.85,-0.03 -10.25,7.19 -10.22,21.63 -0.03,13.91 3.37,20.84 10.22,20.81z"/>
  <polygon id="1" class="fil4 str4" points="1297.06,1068.22 1329.57,993.76 1339.92,993.76 1307.41,1068.22 "/>
  <path id="2" class="fil4 str4" d="M1363.78 1060.35l0 -58.73 10.18 0 0 58.73 -10.18 0zm-14.34 0l0 -8.9 15.18 0.04 0 8.85 -15.18 0zm23.69 0l0 -8.9 13.61 0.04 0 8.85 -13.61 0zm-22.87 -44.22l0 -9.56 13.53 -4.95 0 9.76 -13.53 4.76z"/>
  <path class="fil4 str4" d="M1859.22 1061.84c-13.63,0 -20.43,-9.94 -20.43,-29.79 0,-20.4 6.8,-30.61 20.43,-30.61 13.62,0 20.43,10.21 20.43,30.61 0,19.85 -6.81,29.79 -20.43,29.79zm-0.04 -22.8c-1.74,0 -3.13,-0.64 -4.19,-1.89 -1.07,-1.27 -1.59,-2.96 -1.59,-5.1 -0.03,-2.09 0.49,-3.78 1.57,-5.07 1.07,-1.27 2.48,-1.92 4.22,-1.92 1.74,-0.03 3.15,0.61 4.22,1.91 1.07,1.3 1.59,2.99 1.56,5.08 0,2.13 -0.54,3.83 -1.59,5.11 -1.06,1.28 -2.46,1.91 -4.19,1.88zm0.04 13.82c6.75,0.03 10.14,-6.9 10.14,-20.81 0,-14.44 -3.39,-21.66 -10.14,-21.63 -6.85,-0.03 -10.25,7.19 -10.22,21.63 -0.03,13.91 3.37,20.84 10.22,20.81z"/>
  <polygon id="1" class="fil4 str4" points="1887.92,1068.87 1920.44,994.41 1930.79,994.41 1898.27,1068.87 "/>
  <path id="2" class="fil4 str4" d="M1954.65 1061l0 -58.73 10.18 0 0 58.73 -10.18 0zm-14.34 0l0 -8.9 15.18 0.04 0 8.85 -15.18 0zm23.69 0l0 -8.9 13.61 0.04 0 8.85 -13.61 0zm-22.87 -44.22l0 -9.56 13.53 -4.95 0 9.76 -13.53 4.76z"/>
  <path class="fil4 str4" d="M417.14 1060.55l0 -58.73 10.18 0 0 58.73 -10.18 0zm-14.34 0l0 -8.9 15.18 0.04 0 8.85 -15.18 0zm23.69 0l0 -8.9 13.61 0.04 0 8.85 -13.61 0zm-22.87 -44.22l0 -9.56 13.53 -4.95 0 9.76 -13.53 4.76z"/>
  <path id="1" class="fil4 str4" d="M520.28 1061.39c-13.63,0 -20.43,-9.94 -20.43,-29.79 0,-20.4 6.8,-30.61 20.43,-30.61 13.62,0 20.43,10.21 20.43,30.61 0,19.85 -6.81,29.79 -20.43,29.79zm-0.04 -22.8c-1.74,0 -3.13,-0.64 -4.19,-1.89 -1.07,-1.27 -1.59,-2.96 -1.59,-5.1 -0.03,-2.09 0.49,-3.78 1.57,-5.07 1.07,-1.27 2.48,-1.92 4.22,-1.92 1.74,-0.03 3.15,0.61 4.22,1.91 1.07,1.3 1.59,2.99 1.56,5.08 0,2.13 -0.54,3.83 -1.59,5.11 -1.06,1.28 -2.46,1.91 -4.19,1.88zm0.04 13.82c6.75,0.03 10.14,-6.9 10.14,-20.81 0,-14.44 -3.39,-21.66 -10.14,-21.63 -6.85,-0.03 -10.25,7.19 -10.22,21.63 -0.03,13.91 3.37,20.84 10.22,20.81z"/>
  <polygon id="2" class="fil4 str4" points="449.7,1068.42 482.22,993.96 492.56,993.96 460.05,1068.42 "/>
  <path class="fil4 str4" d="M1013.51 1061.49l0 -58.73 10.18 0 0 58.73 -10.18 0zm-14.34 0l0 -8.9 15.18 0.04 0 8.85 -15.18 0zm23.69 0l0 -8.9 13.61 0.04 0 8.85 -13.61 0zm-22.87 -44.22l0 -9.56 13.53 -4.95 0 9.76 -13.53 4.76z"/>
  <polygon id="1" class="fil4 str4" points="1046.07,1069.35 1078.59,994.89 1088.94,994.89 1056.42,1069.35 "/>
  <path id="2" class="fil4 str4" d="M1116.65 1062.32c-13.63,0 -20.43,-9.94 -20.43,-29.79 0,-20.4 6.8,-30.61 20.43,-30.61 13.62,0 20.43,10.21 20.43,30.61 0,19.85 -6.81,29.79 -20.43,29.79zm-0.04 -22.8c-1.74,0 -3.13,-0.64 -4.19,-1.89 -1.07,-1.27 -1.59,-2.96 -1.59,-5.1 -0.03,-2.09 0.49,-3.78 1.57,-5.07 1.07,-1.27 2.48,-1.92 4.22,-1.92 1.74,-0.03 3.15,0.61 4.22,1.91 1.07,1.3 1.59,2.99 1.56,5.08 0,2.13 -0.54,3.83 -1.59,5.11 -1.06,1.28 -2.46,1.91 -4.19,1.88zm0.04 13.82c6.75,0.03 10.14,-6.9 10.14,-20.81 0,-14.44 -3.39,-21.66 -10.14,-21.63 -6.85,-0.03 -10.25,7.19 -10.22,21.63 -0.03,13.91 3.37,20.84 10.22,20.81z"/>
  <path class="fil4 str4" d="M1607.49 1060.02l0 -58.73 10.18 0 0 58.73 -10.18 0zm-14.34 0l0 -8.9 15.18 0.04 0 8.85 -15.18 0zm23.69 0l0 -8.9 13.61 0.04 0 8.85 -13.61 0zm-22.87 -44.22l0 -9.56 13.53 -4.95 0 9.76 -13.53 4.76z"/>
  <path id="1" class="fil4 str4" d="M1710.62 1060.86c-13.63,0 -20.43,-9.94 -20.43,-29.79 0,-20.4 6.8,-30.61 20.43,-30.61 13.62,0 20.43,10.21 20.43,30.61 0,19.85 -6.81,29.79 -20.43,29.79zm-0.04 -22.8c-1.74,0 -3.13,-0.64 -4.19,-1.89 -1.07,-1.27 -1.59,-2.96 -1.59,-5.1 -0.03,-2.09 0.49,-3.78 1.57,-5.07 1.07,-1.27 2.48,-1.92 4.22,-1.92 1.74,-0.03 3.15,0.61 4.22,1.91 1.07,1.3 1.59,2.99 1.56,5.08 0,2.13 -0.54,3.83 -1.59,5.11 -1.06,1.28 -2.46,1.91 -4.19,1.88zm0.04 13.82c6.75,0.03 10.14,-6.9 10.14,-20.81 0,-14.44 -3.39,-21.66 -10.14,-21.63 -6.85,-0.03 -10.25,7.19 -10.22,21.63 -0.03,13.91 3.37,20.84 10.22,20.81z"/>
  <polygon id="2" class="fil4 str4" points="1640.04,1067.88 1672.56,993.43 1682.91,993.43 1650.39,1067.88 "/>
  <path class="fil4 str4" d="M2199.05 1060.96l0 -58.73 10.18 0 0 58.73 -10.18 0zm-14.34 0l0 -8.9 15.18 0.04 0 8.85 -15.18 0zm23.69 0l0 -8.9 13.61 0.04 0 8.85 -13.61 0zm-22.87 -44.22l0 -9.56 13.53 -4.95 0 9.76 -13.53 4.76z"/>
  <path id="1" class="fil4 str4" d="M2302.19 1061.79c-13.63,0 -20.43,-9.94 -20.43,-29.79 0,-20.4 6.8,-30.61 20.43,-30.61 13.62,0 20.43,10.21 20.43,30.61 0,19.85 -6.81,29.79 -20.43,29.79zm-0.04 -22.8c-1.74,0 -3.13,-0.64 -4.19,-1.89 -1.07,-1.27 -1.59,-2.96 -1.59,-5.1 -0.03,-2.09 0.49,-3.78 1.57,-5.07 1.07,-1.27 2.48,-1.92 4.22,-1.92 1.74,-0.03 3.15,0.61 4.22,1.91 1.07,1.3 1.59,2.99 1.56,5.08 0,2.13 -0.54,3.83 -1.59,5.11 -1.06,1.28 -2.46,1.91 -4.19,1.88zm0.04 13.82c6.75,0.03 10.14,-6.9 10.14,-20.81 0,-14.44 -3.39,-21.66 -10.14,-21.63 -6.85,-0.03 -10.25,7.19 -10.22,21.63 -0.03,13.91 3.37,20.84 10.22,20.81z"/>
  <polygon id="2" class="fil4 str4" points="2231.61,1068.82 2264.13,994.36 2274.48,994.36 2241.96,1068.82 "/>
  <polygon class="fil5" points="627.82,1062.61 627.82,1062.61 627.87,1062.61 627.87,1062.61 "/>
  <line class="fil0 str0" x1="226.15" y1="825.85" x2="227.19" y2= "702.02" />
  <line class="fil0 str0" x1="227.29" y1="253.46" x2="228.33" y2= "377.28" />
  <line class="fil0 str0" x1="821.82" y1="253.54" x2="822.87" y2= "377.36" />
  <line class="fil0 str0" x1="1408.67" y1="253.91" x2="1409.71" y2= "377.73" />
  <line class="fil0 str0" x1="2005.11" y1="254.28" x2="2006.16" y2= "378.09" />
  <line class="fil0 str0" x1="374.93" y1="254.41" x2="375.98" y2= "378.23" />
  <line class="fil0 str0" x1="969.46" y1="254.49" x2="970.51" y2= "378.31" />
  <line class="fil0 str0" x1="1563.51" y1="254.86" x2="1564.56" y2= "378.68" />
  <line class="fil0 str0" x1="2152.76" y1="255.23" x2="2153.8" y2= "379.05" />
  <line class="fil0 str0" x1="377.51" y1="824.48" x2="376.53" y2= "701.53" />
  <line class="fil0 str0" x1="824.18" y1="824.77" x2="823.8" y2= "701.25" />
  <line class="fil0 str0" x1="971.55" y1="825.05" x2="971.15" y2= "702.2" />
  <line class="fil0 str0" x1="1411.56" y1="826.65" x2="1411.85" y2= "701.15" />
  <line class="fil0 str0" x1="1563.82" y1="825.7" x2="1564.49" y2= "702.18" />
  <line class="fil0 str0" x1="2006.76" y1="825.71" x2="2005.36" y2= "701.06" />
  <line class="fil0 str0" x1="2155.22" y1="825.62" x2="2155.43" y2= "702.29" />
  <circle class="fil6 str5" cx="227.19" cy="702.02" r="14.45"/>
  <circle class="fil1 str1" cx="228.33" cy="377.28" r="14.45"/>
  <circle class="fil1 str1" cx="822.87" cy="377.36" r="14.45"/>
  <circle class="fil1 str1" cx="1409.71" cy="377.73" r="14.45"/>
  <circle class="fil1 str1" cx="2006.16" cy="378.1" r="14.45"/>
  <circle class="fil6 str5" cx="375.98" cy="378.23" r="14.45"/>
  <circle class="fil6 str5" cx="970.51" cy="378.32" r="14.45"/>
  <circle class="fil6 str5" cx="1564.56" cy="378.68" r="14.45"/>
  <circle class="fil6 str5" cx="2153.8" cy="379.05" r="14.45"/>
  <circle class="fil1 str1" cx="376.53" cy="701.53" r="14.45"/>
  <circle class="fil6 str5" cx="823.8" cy="701.25" r="14.45"/>
  <circle class="fil1 str1" cx="971.15" cy="702.2" r="14.45"/>
  <circle class="fil6 str5" cx="1411.84" cy="701.14" r="14.45"/>
  <circle class="fil1 str1" cx="1564.49" cy="702.18" r="14.45"/>
  <circle class="fil6 str5" cx="2005.37" cy="701.06" r="14.45"/>
  <circle class="fil1 str1" cx="2155.43" cy="702.29" r="14.45"/>
  <path class="fil7" d="M220.36 661.84l0 -93.98 16.29 0 0 93.98 -16.29 0zm-22.95 0l0 -14.23 24.29 0.07 0 14.17 -24.29 0zm37.91 0l0 -14.23 21.78 0.07 0 14.17 -21.78 0zm-36.6 -70.76l0 -15.3 21.64 -7.93 0 15.61 -21.64 7.61z"/>
  <path class="fil7" d="M345.62 661.8l0 -17.08c14.08,-7.59 24.58,-15.5 31.56,-23.72 6.98,-8.22 10.44,-16.74 10.39,-25.53 0.04,-4.72 -1.11,-8.24 -3.44,-10.62 -2.35,-2.35 -5.87,-3.53 -10.59,-3.55 -3.66,0.02 -7.5,1.04 -11.52,3.12 -4.02,2.08 -7.46,4.83 -10.32,8.27l-9.78 -10.71c3.21,-4.68 7.75,-8.43 13.6,-11.25 5.83,-2.82 11.93,-4.25 18.3,-4.25 10.14,0 17.73,2.35 22.75,7.05 5.04,4.7 7.55,11.79 7.55,21.28 0,9.08 -2.76,17.8 -8.29,26.14 -5.54,8.36 -13.96,16.33 -25.26,23.97l0 16.87 -24.94 0zm3.95 0l0 -14.57 58.51 0 0 14.57 -58.51 0z"/>
  <path class="fil7" d="M818.68 662.16c-4.99,0 -9.55,-0.29 -13.71,-0.86 -4.13,-0.59 -7.82,-1.36 -11.05,-2.33l1.65 -15.36c2.78,0.75 5.92,1.56 9.4,2.4 3.5,0.83 7.88,1.24 13.17,1.24 6.24,0 11.05,-1.15 14.48,-3.46 3.41,-2.33 5.13,-5.58 5.13,-9.78 0,-3.03 -1.02,-5.63 -3.05,-7.73 -2.03,-2.12 -4.97,-3.73 -8.81,-4.83 -3.84,-1.1 -8.5,-1.65 -13.96,-1.65l-2.12 0 -1.58 -12.58 19.59 4.9c7.91,0.25 14.3,2.44 19.23,6.55 4.92,4.09 7.39,9.76 7.39,17.01 0,8.38 -3.12,14.89 -9.33,19.52 -6.23,4.63 -15.03,6.96 -26.41,6.96zm-8.88 -42.36l-1.58 -12.58c6.44,-0.84 11.71,-2.08 15.75,-3.71 4.06,-1.63 7.05,-3.59 8.95,-5.9 1.9,-2.28 2.85,-4.88 2.85,-7.75 0,-2.98 -0.99,-5.33 -2.98,-7 -1.99,-1.67 -4.86,-2.51 -8.61,-2.53 -3.48,0.02 -7.25,0.77 -11.27,2.31 -4.04,1.51 -7.88,3.77 -11.5,6.78l-9.13 -11.73c4.16,-4.27 8.95,-7.36 14.39,-9.28 5.45,-1.92 11.52,-2.89 18.23,-2.89 8.79,0 15.56,1.83 20.36,5.47 4.79,3.64 7.18,8.83 7.18,15.59 0,5.83 -1.92,10.86 -5.78,15.11 -3.86,4.27 -8.9,7.21 -15.14,8.83l0 7.3 -21.71 1.99z"/>
  <path class="fil7" d="M935.64 642.95l12.22 -68.9 16.15 0 -12.38 68.9 -15.99 0zm-0.14 0l10.05 -14.23 37.18 0 0 14.23 -47.24 0zm60.36 0l0 -14.23 10.32 0 0 14.23 -10.32 0zm-14.44 19.79l0 -93.98 15.74 0 0 93.98 -15.74 0z"/>
  <path class="fil7" d="M1410.93 663.1c-10.17,0 -18,-2.55 -23.56,-7.62 -5.58,-5.08 -8.36,-12.2 -8.36,-21.39l16.69 0c0,4.47 1.36,7.93 4.07,10.39 2.71,2.48 6.57,3.71 11.61,3.71 4.95,0 8.83,-1.51 11.68,-4.56 2.85,-3.03 4.27,-7.21 4.27,-12.49 0,-4.95 -1.47,-8.83 -4.41,-11.66 -2.94,-2.82 -6.98,-4.24 -12.13,-4.24 -5.69,0 -11.05,1.33 -16.02,3.97l2.51 -14.37c2.82,-1.58 5.87,-2.71 9.13,-3.37 3.28,-0.65 6.49,-1 9.67,-1 8.65,0 15.48,2.73 20.45,8.2 4.99,5.49 7.48,12.97 7.48,22.46 0,6.57 -1.33,12.24 -4,17.03 -2.67,4.79 -6.46,8.47 -11.41,11.05 -4.95,2.58 -10.84,3.89 -17.67,3.89zm-26.23 -43.9l1.33 -51.42 16.09 0 -2.26 40.78 -5.08 10.64 -10.08 0zm8.36 -36.87l-1.19 -14.55 46.2 0 0 14.55 -45 0z"/>
  <path class="fil7" d="M1546.16 639.18l-13.91 -13.31 0 -4.5c0,-17.58 4.68,-30.9 14,-40.05 9.33,-9.13 23.57,-14.14 42.66,-15.02l1.33 15.02c-27.31,1.15 -40.98,12.92 -40.98,35.29l-3.1 22.57zm19.52 22.84c-10.68,0 -18.93,-3.17 -24.71,-9.45 -5.81,-6.28 -8.72,-15.18 -8.72,-26.7l13.31 7.82 0 -17.22 5.24 0c1.22,-4.9 3.71,-8.67 7.41,-11.34 3.71,-2.69 8.24,-4.02 13.62,-4.02 8.22,0 14.55,2.58 19,7.73 4.45,5.13 6.69,12.42 6.69,21.87 0,9.87 -2.76,17.58 -8.27,23.07 -5.51,5.49 -13.37,8.25 -23.57,8.25zm0.14 -14.91c4.77,0.04 8.43,-1.36 10.98,-4.23 2.55,-2.87 3.84,-6.94 3.84,-12.18 0,-4.72 -1.33,-8.36 -4,-10.94 -2.67,-2.55 -6.48,-3.82 -11.43,-3.82 -5.11,0 -9.06,1.33 -11.86,4 -2.82,2.67 -4.22,6.46 -4.22,11.41 0,5.31 1.4,9.26 4.22,11.89 2.8,2.62 6.96,3.91 12.47,3.86z"/>
  <path class="fil7" d="M1991.64 663.08l30.3 -93.98 17.15 0 -30.97 93.98 -16.47 0zm-22.84 -59.03l0 -32.96 15.95 0 0 32.96 -15.95 0zm0 -20.26l0 -14.68 70.28 0 -10.05 14.68 -60.23 0z"/>
  <path class="fil7" d="M2155.03 662.75c-10.37,0 -18.41,-2.37 -24.13,-7.12 -5.71,-4.74 -8.56,-11.43 -8.56,-20.04 0,-7.88 2.85,-13.99 8.56,-18.3 5.72,-4.3 13.76,-6.44 24.13,-6.44 10.37,0 18.41,2.14 24.13,6.44 5.72,4.31 8.56,10.41 8.56,18.3 0,8.6 -2.85,15.29 -8.56,20.04 -5.72,4.74 -13.76,7.12 -24.13,7.12zm0 -14.85c5.1,-0.04 9.06,-1.29 11.84,-3.73 2.78,-2.46 4.18,-5.9 4.18,-10.37 0,-4.54 -1.4,-8.11 -4.18,-10.68 -2.78,-2.58 -6.73,-3.86 -11.84,-3.86 -5.08,0 -9.01,1.29 -11.82,3.86 -2.8,2.58 -4.2,6.14 -4.2,10.68 0,4.47 1.38,7.93 4.16,10.39 2.78,2.49 6.73,3.71 11.86,3.71zm-11 -33.21l0 -6.76 22.12 0 0 6.76 -22.12 0zm11 -10.39c4.22,0 7.52,-0.99 9.85,-2.98 2.35,-1.99 3.53,-4.74 3.53,-8.27 0,-3.89 -1.18,-6.89 -3.48,-8.97 -2.33,-2.1 -5.63,-3.14 -9.9,-3.16 -4.25,0.02 -7.53,1.06 -9.87,3.16 -2.33,2.08 -3.5,5.08 -3.5,8.97 0,3.52 1.17,6.28 3.5,8.27 2.35,1.99 5.63,2.98 9.87,2.98zm0 7.73c-9.53,0 -16.92,-1.92 -22.18,-5.78 -5.24,-3.86 -7.86,-9.31 -7.86,-16.31 0,-7.55 2.62,-13.4 7.86,-17.58 5.26,-4.16 12.65,-6.26 22.18,-6.26 9.53,0 16.92,2.1 22.16,6.26 5.26,4.18 7.88,10.03 7.88,17.58 0,7 -2.62,12.45 -7.88,16.31 -5.24,3.86 -12.63,5.78 -22.16,5.78z"/>
  <path class="fil7" d="M165.12 512.92l-1.31 -15.09c27.31,-1.06 40.96,-12.78 40.96,-35.19l1.58 -24.31 15.43 15.02 0 3.19c0,17.91 -4.65,31.56 -14,40.94 -9.33,9.37 -23.54,14.53 -42.66,15.45zm23.7 -49.7c5.13,0 9.08,-1.33 11.89,-3.97 2.8,-2.64 4.18,-6.44 4.13,-11.39 0.05,-5.28 -1.33,-9.24 -4.11,-11.88 -2.78,-2.62 -6.94,-3.93 -12.49,-3.93 -4.81,0 -8.52,1.42 -11.12,4.29 -2.62,2.87 -3.91,6.94 -3.91,12.18 0,4.72 1.33,8.36 4.02,10.89 2.71,2.55 6.55,3.82 11.59,3.82zm-6.62 14.89c-8.2,0 -14.53,-2.58 -19,-7.75 -4.45,-5.15 -6.69,-12.43 -6.69,-21.85 0,-9.92 2.78,-17.62 8.31,-23.09 5.53,-5.47 13.37,-8.2 23.54,-8.2 10.66,0 18.91,3.14 24.72,9.42 5.81,6.3 8.69,15.21 8.69,26.7l-13.31 -7.79 0 17.19 -5.22 0c-1.24,4.9 -3.71,8.7 -7.41,11.36 -3.71,2.67 -8.27,4 -13.65,4z"/>
  <path class="fil7" d="M367.96 510.93l0 -93.98 16.29 0 0 93.98 -16.29 0zm-22.95 0l0 -14.23 24.29 0.07 0 14.17 -24.29 0zm37.91 0l0 -14.23 21.78 0.07 0 14.17 -21.78 0zm-36.6 -70.76l0 -15.3 21.64 -7.93 0 15.61 -21.64 7.61z"/>
  <path id="1" class="fil7" d="M453.56 512.27c-21.8,0 -32.69,-15.91 -32.69,-47.67 0,-32.64 10.89,-48.98 32.69,-48.98 21.8,0 32.69,16.33 32.69,48.98 0,31.76 -10.89,47.67 -32.69,47.67zm-0.07 -36.49c-2.78,0 -5.01,-1.02 -6.71,-3.03 -1.72,-2.03 -2.55,-4.74 -2.55,-8.15 -0.05,-3.34 0.79,-6.05 2.51,-8.11 1.72,-2.03 3.98,-3.07 6.76,-3.07 2.78,-0.04 5.04,0.97 6.76,3.05 1.72,2.08 2.55,4.79 2.51,8.13 0,3.41 -0.86,6.12 -2.55,8.18 -1.69,2.05 -3.93,3.05 -6.71,3zm0.07 22.12c10.8,0.05 16.22,-11.05 16.22,-33.3 0,-23.11 -5.42,-34.66 -16.22,-34.61 -10.96,-0.05 -16.4,11.5 -16.36,34.61 -0.05,22.25 5.4,33.35 16.36,33.3z"/>
  <path class="fil7" d="M739.17 510.43l0 -93.98 16.29 0 0 93.98 -16.29 0zm-22.95 0l0 -14.23 24.29 0.07 0 14.17 -24.29 0zm37.91 0l0 -14.23 21.78 0.07 0 14.17 -21.78 0zm-36.6 -70.76l0 -15.3 21.64 -7.93 0 15.61 -21.64 7.61z"/>
  <path id="1" class="fil7" d="M818.6 510.43l0 -93.98 16.29 0 0 93.98 -16.29 0zm-22.95 0l0 -14.23 24.29 0.07 0 14.17 -24.29 0zm37.91 0l0 -14.23 21.78 0.07 0 14.17 -21.78 0zm-36.6 -70.76l0 -15.3 21.64 -7.93 0 15.61 -21.64 7.61z"/>
  <path class="fil7" d="M960.46 511.42l0 -93.98 16.29 0 0 93.98 -16.29 0zm-22.95 0l0 -14.23 24.29 0.07 0 14.17 -24.29 0zm37.91 0l0 -14.23 21.78 0.07 0 14.17 -21.78 0zm-36.6 -70.76l0 -15.3 21.64 -7.93 0 15.61 -21.64 7.61z"/>
  <path id="1" class="fil7" d="M1017.08 511.42l0 -17.08c14.08,-7.59 24.58,-15.5 31.56,-23.72 6.98,-8.22 10.44,-16.74 10.39,-25.53 0.04,-4.72 -1.11,-8.24 -3.44,-10.62 -2.35,-2.35 -5.87,-3.53 -10.59,-3.55 -3.66,0.02 -7.5,1.04 -11.52,3.12 -4.02,2.08 -7.46,4.83 -10.32,8.27l-9.78 -10.71c3.21,-4.68 7.75,-8.43 13.6,-11.25 5.83,-2.82 11.93,-4.25 18.3,-4.25 10.14,0 17.73,2.35 22.75,7.05 5.04,4.7 7.55,11.79 7.55,21.28 0,9.08 -2.76,17.8 -8.29,26.14 -5.54,8.36 -13.96,16.33 -25.26,23.97l0 16.87 -24.94 0zm3.95 0l0 -14.57 58.51 0 0 14.57 -58.51 0z"/>
  <path class="fil7" d="M1326.47 511.5l0 -93.98 16.29 0 0 93.98 -16.29 0zm-22.95 0l0 -14.23 24.29 0.07 0 14.17 -24.29 0zm37.91 0l0 -14.23 21.78 0.07 0 14.17 -21.78 0zm-36.6 -70.76l0 -15.3 21.64 -7.93 0 15.61 -21.64 7.61z"/>
  <path id="1" class="fil7" d="M1406.38 512.83c-4.99,0 -9.55,-0.29 -13.71,-0.86 -4.13,-0.59 -7.82,-1.36 -11.05,-2.33l1.65 -15.36c2.78,0.75 5.92,1.56 9.4,2.4 3.5,0.83 7.88,1.24 13.17,1.24 6.24,0 11.05,-1.15 14.48,-3.46 3.41,-2.33 5.13,-5.58 5.13,-9.78 0,-3.03 -1.02,-5.63 -3.05,-7.73 -2.03,-2.12 -4.97,-3.73 -8.81,-4.83 -3.84,-1.1 -8.5,-1.65 -13.96,-1.65l-2.12 0 -1.58 -12.58 19.59 4.9c7.91,0.25 14.3,2.44 19.23,6.55 4.92,4.09 7.39,9.76 7.39,17.01 0,8.38 -3.12,14.89 -9.33,19.52 -6.23,4.63 -15.03,6.96 -26.41,6.96zm-8.88 -42.36l-1.58 -12.58c6.44,-0.84 11.71,-2.08 15.75,-3.71 4.06,-1.63 7.05,-3.59 8.95,-5.9 1.9,-2.28 2.85,-4.88 2.85,-7.75 0,-2.98 -0.99,-5.33 -2.98,-7 -1.99,-1.67 -4.86,-2.51 -8.61,-2.53 -3.48,0.02 -7.25,0.77 -11.27,2.31 -4.04,1.51 -7.88,3.77 -11.5,6.78l-9.13 -11.73c4.16,-4.27 8.95,-7.36 14.39,-9.28 5.45,-1.92 11.52,-2.89 18.23,-2.89 8.79,0 15.56,1.83 20.36,5.47 4.79,3.64 7.18,8.83 7.18,15.59 0,5.83 -1.92,10.86 -5.78,15.11 -3.86,4.27 -8.9,7.21 -15.14,8.83l0 7.3 -21.71 1.99z"/>
  <path class="fil7" d="M1553.2 513.2l0 -93.98 16.29 0 0 93.98 -16.29 0zm-22.95 0l0 -14.23 24.29 0.07 0 14.17 -24.29 0zm37.91 0l0 -14.23 21.78 0.07 0 14.17 -21.78 0zm-36.6 -70.76l0 -15.3 21.64 -7.93 0 15.61 -21.64 7.61z"/>
  <path id="1" class="fil7" d="M1603.33 493.41l12.22 -68.9 16.15 0 -12.38 68.9 -15.99 0zm-0.14 0l10.05 -14.23 37.18 0 0 14.23 -47.24 0zm60.36 0l0 -14.23 10.32 0 0 14.23 -10.32 0zm-14.44 19.79l0 -93.98 15.74 0 0 93.98 -15.74 0z"/>
  <path class="fil7" d="M1920.04 511.78l0 -93.98 16.29 0 0 93.98 -16.29 0zm-22.95 0l0 -14.23 24.29 0.07 0 14.17 -24.29 0zm37.91 0l0 -14.23 21.78 0.07 0 14.17 -21.78 0zm-36.6 -70.76l0 -15.3 21.64 -7.93 0 15.61 -21.64 7.61z"/>
  <path id="1" class="fil7" d="M2005.92 513.11c-10.17,0 -18,-2.55 -23.56,-7.62 -5.58,-5.08 -8.36,-12.2 -8.36,-21.39l16.69 0c0,4.47 1.36,7.93 4.07,10.39 2.71,2.48 6.57,3.71 11.61,3.71 4.95,0 8.83,-1.51 11.68,-4.56 2.85,-3.03 4.27,-7.21 4.27,-12.49 0,-4.95 -1.47,-8.83 -4.41,-11.66 -2.94,-2.82 -6.98,-4.24 -12.13,-4.24 -5.69,0 -11.05,1.33 -16.02,3.97l2.51 -14.37c2.82,-1.58 5.87,-2.71 9.13,-3.37 3.28,-0.65 6.49,-1 9.67,-1 8.65,0 15.48,2.73 20.45,8.2 4.99,5.49 7.48,12.97 7.48,22.46 0,6.57 -1.33,12.24 -4,17.03 -2.67,4.79 -6.46,8.47 -11.41,11.05 -4.95,2.58 -10.84,3.89 -17.67,3.89zm-26.23 -43.9l1.33 -51.42 16.09 0 -2.26 40.78 -5.08 10.64 -10.08 0zm8.36 -36.87l-1.19 -14.55 46.2 0 0 14.55 -45 0z"/>
  <path class="fil7" d="M2145.51 512.9l0 -93.98 16.29 0 0 93.98 -16.29 0zm-22.95 0l0 -14.23 24.29 0.07 0 14.17 -24.29 0zm37.91 0l0 -14.23 21.78 0.07 0 14.17 -21.78 0zm-36.6 -70.76l0 -15.3 21.64 -7.93 0 15.61 -21.64 7.61z"/>
  <path id="1" class="fil7" d="M2212.45 491.39l-13.91 -13.31 0 -4.5c0,-17.58 4.68,-30.9 14,-40.05 9.33,-9.13 23.57,-14.14 42.66,-15.02l1.33 15.02c-27.31,1.15 -40.98,12.92 -40.98,35.29l-3.1 22.57zm19.52 22.84c-10.68,0 -18.93,-3.17 -24.71,-9.45 -5.81,-6.28 -8.72,-15.18 -8.72,-26.7l13.31 7.82 0 -17.22 5.24 0c1.22,-4.9 3.71,-8.67 7.41,-11.34 3.71,-2.69 8.24,-4.02 13.62,-4.02 8.22,0 14.55,2.58 19,7.73 4.45,5.13 6.69,12.42 6.69,21.87 0,9.87 -2.76,17.58 -8.27,23.07 -5.51,5.49 -13.37,8.25 -23.57,8.25zm0.14 -14.91c4.77,0.04 8.43,-1.36 10.98,-4.23 2.55,-2.87 3.84,-6.94 3.84,-12.18 0,-4.72 -1.33,-8.36 -4,-10.94 -2.67,-2.55 -6.48,-3.82 -11.43,-3.82 -5.11,0 -9.06,1.33 -11.86,4 -2.82,2.67 -4.22,6.46 -4.22,11.41 0,5.31 1.4,9.26 4.22,11.89 2.8,2.62 6.96,3.91 12.47,3.86z"/>
  <line class="fil0 str6" x1="226.15" y1="825.85" x2="227.14" y2= "1062.01" />
  <line class="fil0 str6" x1="225.91" y1="18.09" x2="226.9" y2= "254.26" />
  <line class="fil0 str6" x1="821.45" y1="18.05" x2="822.44" y2= "254.21" />
  <line class="fil0 str6" x1="1407.8" y1="18.7" x2="1408.79" y2= "254.86" />
  <line class="fil0 str6" x1="2004.74" y1="20.47" x2="2005.73" y2= "256.63" />
  <line class="fil0 str6" x1="824.31" y1="825.58" x2="825.3" y2= "1061.74" />
  <line class="fil0 str6" x1="971.55" y1="825.38" x2="972.53" y2= "1061.55" />
  <line class="fil0 str6" x1="2005.42" y1="824.46" x2="2006.42" y2= "1060.63" />
  <line class="fil0 str6" x1="1411.45" y1="825.58" x2="1412.44" y2= "1061.74" />
  <line class="fil0 str6" x1="1564.24" y1="823.18" x2="1565.23" y2= "1059.34" />
  <line class="fil0 str6" x1="2155.07" y1="825.15" x2="2156.06" y2= "1061.32" />
  <line class="fil0 str6" x1="377.45" y1="825.85" x2="378.44" y2= "1062.01" />
  <line class="fil0 str6" x1="374.81" y1="18.09" x2="375.8" y2= "254.26" />
  <line class="fil0 str6" x1="967.95" y1="18.05" x2="968.94" y2= "254.21" />
  <line class="fil0 str6" x1="1561.5" y1="18.7" x2="1562.49" y2= "254.86" />
  <line class="fil0 str6" x1="2151.24" y1="20.47" x2="2152.23" y2= "256.63" />
  <circle class="fil8 str7" cx="227.14" cy="1062.01" r="14.45"/>
  <circle class="fil8 str7" cx="225.91" cy="21.69" r="14.45"/>
  <circle class="fil8 str7" cx="374.81" cy="18.09" r="14.45"/>
  <circle class="fil8 str7" cx="967.95" cy="18.05" r="14.45"/>
  <circle class="fil8 str7" cx="1561.5" cy="18.7" r="14.45"/>
  <circle class="fil8 str7" cx="2004.74" cy="20.47" r="14.45"/>
  <circle class="fil8 str7" cx="2151.24" cy="20.47" r="14.45"/>
  <circle class="fil8 str7" cx="1407.8" cy="18.7" r="14.45"/>
  <circle class="fil8 str7" cx="821.45" cy="18.05" r="14.45"/>
  <circle class="fil8 str7" cx="378.44" cy="1062.01" r="14.45"/>
  <circle class="fil8 str7" cx="825.3" cy="1061.74" r="14.45"/>
  <circle class="fil8 str7" cx="972.54" cy="1061.55" r="14.45"/>
  <circle class="fil8 str7" cx="1412.44" cy="1061.74" r="14.45"/>
  <circle class="fil8 str7" cx="1565.23" cy="1059.34" r="14.45"/>
  <circle class="fil8 str7" cx="2006.42" cy="1060.63" r="14.45"/>
  <circle class="fil8 str7" cx="2156.06" cy="1061.32" r="14.45"/>
 </g>
</svg>
